<svg width="13" height="16" viewBox="0 0 13 16" fill="none" xmlns="http://www.w3.org/2000/svg">
<path d="M0.10289 13.4313C0.218428 13.5698 0.407088 13.6243 0.577854 13.568L2.45562 12.9598L2.99531 14.8586C3.04458 15.0318 3.19414 15.1577 3.3733 15.1769C3.38898 15.1787 3.40489 15.1796 3.42057 15.1796C3.58206 15.1796 3.73272 15.0908 3.81026 14.9456L6.08678 10.6807C6.24341 10.6948 6.4018 10.7034 6.56175 10.7034C6.6817 10.7034 6.80011 10.6979 6.91808 10.6897L9.18974 14.9456C9.26728 15.0905 9.41772 15.1796 9.57943 15.1796C9.59511 15.1796 9.61102 15.1787 9.6267 15.1769C9.80608 15.1577 9.95542 15.0318 10.0047 14.8586L10.5442 12.9598L12.4221 13.568C12.5931 13.6243 12.7816 13.5698 12.8971 13.4313C13.0126 13.2932 13.0328 13.0986 12.9479 12.9397L10.6756 8.6825C11.3598 7.80128 11.7682 6.69649 11.7682 5.49715C11.7682 2.62615 9.43274 0.290649 6.56197 0.290649C3.69119 0.290649 1.35547 2.62615 1.35547 5.49737C1.35547 6.65363 1.735 7.72285 2.37521 8.58795L0.0520795 12.9397C-0.0327514 13.0986 -0.0126482 13.2932 0.10289 13.4313ZM10.4635 12.0048C10.3489 11.9675 10.2249 11.9785 10.1191 12.0355L10.0126 12.0925C9.90682 12.1491 9.82862 12.2461 9.79592 12.3614L9.45417 13.564L7.84216 10.5439C8.67169 10.3334 9.42214 9.92315 10.0396 9.36778L11.6534 12.3903L10.4635 12.0048ZM6.56197 1.1743C8.94541 1.1743 10.8846 3.11349 10.8846 5.49715C10.8846 7.88058 8.94541 9.81954 6.56197 9.81954C4.17853 9.81954 2.23935 7.88058 2.23935 5.49715C2.23913 3.11349 4.17853 1.1743 6.56197 1.1743ZM3.00172 9.29068C3.60813 9.86019 4.35018 10.2859 5.17419 10.5141L3.54627 13.5638L3.2043 12.3612C3.1716 12.2461 3.0934 12.1491 2.98802 12.0925L2.88176 12.0355C2.77595 11.9788 2.65157 11.9675 2.53692 12.0046L1.34708 12.3899L3.00172 9.29068Z" fill="#122737" fill-opacity="0.7"/>
</svg>
