<svg xmlns="http://www.w3.org/2000/svg" xmlns:xlink="http://www.w3.org/1999/xlink" viewBox="0 0 33.43 33.43"><defs><style>.cls-1{fill:url(#radial-gradient);}.cls-2{fill:#9e9e9f;}.cls-3{fill:#717071;}.cls-4{fill:#231815;}.cls-5{fill:#888;}.cls-6{fill:#b4b4b5;}.cls-7{fill:#fff;}.cls-8{fill:#f1eff2;}</style><radialGradient id="radial-gradient" cx="22.83" cy="11.64" r="25.04" gradientTransform="translate(7.57 -5.08) rotate(22.23)" gradientUnits="userSpaceOnUse"><stop offset="0.08" stop-color="#fff"/><stop offset="0.5" stop-color="#e4e3e3"/><stop offset="1" stop-color="#bdbbbb"/></radialGradient></defs><title>ball</title><g id="Шар_2" data-name="Шар 2"><g id="Objects"><circle class="cls-1" cx="16.71" cy="16.71" r="16.71" transform="translate(-5.08 7.57) rotate(-22.23)"/><polygon class="cls-2" points="13.4 18 21.31 15.31 21.36 15.45 13.45 18.14 13.4 18 13.4 18"/><path class="cls-3" d="M11.57,24.16h0l.12-.1a26.32,26.32,0,0,0,1.84,2h0a18.1,18.1,0,0,0,4.18,3v.19l-.07,0a20.73,20.73,0,0,1-6.07-5.09Z"/><path class="cls-2" d="M23.58,27.36a20.63,20.63,0,0,0,2-5.61h0a16.4,16.4,0,0,0,.31-2.49H26a19.88,19.88,0,0,1-2.32,8.17h0l-.13-.07Z"/><path class="cls-4" d="M8.39,13.3a18.21,18.21,0,0,1,1.83-7.06h0l.13.07a19,19,0,0,0-.9,2.21h0a15.11,15.11,0,0,0-.91,4.78h0c0,.25,0,.49,0,.73H8.42c0-.24,0-.49,0-.74Z"/><path class="cls-5" d="M19,5.74a24.7,24.7,0,0,0-2.34-1.49h0l.07-.13S21,6.36,22.81,9.37h0l-.13.08A13.65,13.65,0,0,0,19,5.74Z"/><path class="cls-4" d="M4.89,27.58A8.6,8.6,0,0,1,6.08,23.4h0l.13.08a7.24,7.24,0,0,0-.58,1.2h0A7.87,7.87,0,0,0,5,27.58H5c0,.18,0,.36,0,.55h0l-.14,0q0-.3,0-.57Z"/><path class="cls-6" d="M30.78,16.65a4.94,4.94,0,0,0-1-.6h0l.05-.14A7,7,0,0,1,33,18.85h0l-.13.08a7.71,7.71,0,0,0-2-2.28Z"/><path class="cls-2" d="M28.09,10a13.11,13.11,0,0,0,.54-3.73h0c0-.24,0-.48,0-.74h.07c0,.25,0,.5,0,.74h0A12.76,12.76,0,0,1,28.16,10h0l-.07,0Z"/><path class="cls-4" d="M.67,14.37.8,14.3A9.24,9.24,0,0,0,2.61,16h0C3.35,16.61,4,17.08,4,17.08H4L4,17.21A18.19,18.19,0,0,1,.67,14.37Z"/><path class="cls-4" d="M1.53,9.77A12.65,12.65,0,0,1,7.66,4.11h0l0,.07A8.55,8.55,0,0,0,5.62,5.32h0a14.05,14.05,0,0,0-4,4.48h0l-.06,0Z"/><path class="cls-7" d="M17.53,1.23a19.67,19.67,0,0,1,7.76,1.19S21.08.56,17.53,1Z"/><path class="cls-2" d="M26.13,29a5.67,5.67,0,0,0,2.94-1.37,6.68,6.68,0,0,1-3,1.67Z"/><path class="cls-2" d="M16.88,31.83a15.19,15.19,0,0,1-4.47.79A15,15,0,0,0,17,32.09Z"/><path d="M7.08,4.31A14.24,14.24,0,0,1,12.38.57,12.64,12.64,0,0,1,17.87,1L17,4.41A27.51,27.51,0,0,0,10.06,6.6Z"/><path d="M8.42,13.22a54.63,54.63,0,0,0,5.32,4.67S12.2,22.82,12,24.41a13.26,13.26,0,0,1-6.21-.5,15.64,15.64,0,0,1-2.14-7S6.43,14,8.42,13.22Z"/><path d="M17.23,28.89s4.37-.4,6.81-2.34A13.19,13.19,0,0,0,26.53,29s-2.56,3-4.62,3.57a11.74,11.74,0,0,1-5.78-.43A10.85,10.85,0,0,0,17.23,28.89Z"/><path class="cls-4" d="M22.35,8.94s-1,4.67-1.59,6.56c0,0,3.53,2.94,5.12,4.53,0,0,3.78-2.29,4.28-3.83a12.8,12.8,0,0,0-1.89-6.76A8.16,8.16,0,0,0,22.35,8.94Z"/><path d="M22.62,9.21s-.95,4.44-1.51,6.24c0,0,3.35,2.78,4.86,4.3,0,0,3.59-2.18,4.07-3.64a12.2,12.2,0,0,0-1.8-6.43A7.77,7.77,0,0,0,22.62,9.21Z"/><path d="M1.86,9.05A16.58,16.58,0,0,0,0,16.71v.09a7.22,7.22,0,0,1,1-2.24A18.63,18.63,0,0,1,1.86,9.05Z"/><path d="M5,27.44a9.66,9.66,0,0,1-2-1.16,16.77,16.77,0,0,0,8.06,6.17C9.37,31.62,6.41,29.91,5,27.44Z"/><path d="M32.2,23a16.68,16.68,0,0,0,1.22-6,4,4,0,0,1-.72,1.59A27.79,27.79,0,0,1,32.2,23Z"/><path d="M28.67,5.9c1.13.44,2.25,2.06,3,3.32a16.79,16.79,0,0,0-6.9-7.16A23,23,0,0,1,28.67,5.9Z"/><path class="cls-7" d="M14.6,17.9,20.1,16a1.45,1.45,0,0,1,1.27.25l3.75,3.25c.31.27.3.29,0,0l-3.74-2.83A1.73,1.73,0,0,0,20,16.49L14.61,18C14.22,18.05,14.21,18,14.6,17.9Z"/><path class="cls-7" d="M8.24,13.1S8.57,8.7,10,6.61L7.15,4.52,9.62,6.65A16,16,0,0,0,8.24,13.1Z"/><path class="cls-8" d="M7,4.24A10.32,10.32,0,0,1,11.43.92,8.44,8.44,0,0,0,7,4.24Z"/><path class="cls-8" d="M11.78,24.58a19.18,19.18,0,0,0,5.3,4.52A9.13,9.13,0,0,1,16.13,32a13.32,13.32,0,0,0,.71-2.77A14,14,0,0,1,11.78,24.58Z"/><path class="cls-8" d="M23.94,26.5a21.85,21.85,0,0,0,1.76-6.38A38.88,38.88,0,0,1,24,25.92a2,2,0,0,1-.62.69,17.61,17.61,0,0,1-6,2.13A13.49,13.49,0,0,0,23.94,26.5Z"/><path class="cls-7" d="M26.07,20s3.36-1.94,4.1-3.62C30.17,16.39,29.54,18.48,26.07,20Z"/></g></g></svg>