<svg width="370" height="347" viewBox="0 0 370 347" fill="none" xmlns="http://www.w3.org/2000/svg">
<path opacity="0.55" d="M199.012 13.656H194.812V14.892H197.62C197.488 15.48 197.188 15.948 196.72 16.296C196.252 16.644 195.652 16.812 194.908 16.812C193.972 16.812 193.228 16.536 192.652 15.96C192.076 15.396 191.8 14.676 191.8 13.812C191.8 12.948 192.076 12.228 192.652 11.652C193.216 11.076 193.936 10.788 194.824 10.788C195.364 10.788 195.856 10.92 196.3 11.16C196.732 11.4 197.068 11.724 197.296 12.12L198.484 11.436C198.124 10.836 197.62 10.344 196.972 9.984C196.324 9.624 195.604 9.444 194.824 9.444C193.576 9.444 192.52 9.876 191.68 10.716C190.84 11.556 190.42 12.588 190.42 13.8C190.42 15.024 190.84 16.056 191.68 16.896C192.52 17.736 193.6 18.156 194.896 18.156C196.12 18.156 197.104 17.796 197.872 17.064C198.628 16.332 199.012 15.384 199.012 14.232V13.656ZM203.555 18.156C204.443 18.156 205.187 17.856 205.799 17.244C206.411 16.644 206.723 15.888 206.723 15C206.723 14.112 206.411 13.368 205.799 12.756C205.187 12.156 204.443 11.844 203.555 11.844C202.667 11.844 201.923 12.156 201.311 12.756C200.687 13.368 200.387 14.112 200.387 15C200.387 15.888 200.687 16.644 201.311 17.244C201.923 17.856 202.667 18.156 203.555 18.156ZM203.555 16.896C203.027 16.896 202.583 16.716 202.223 16.356C201.863 15.996 201.683 15.552 201.683 15C201.683 14.46 201.863 14.004 202.223 13.644C202.583 13.284 203.027 13.104 203.555 13.104C204.083 13.104 204.527 13.284 204.887 13.644C205.247 14.004 205.427 14.46 205.427 15C205.427 15.552 205.247 15.996 204.887 16.356C204.527 16.716 204.083 16.896 203.555 16.896ZM213.18 12V12.852C212.688 12.18 211.992 11.844 211.08 11.844C210.252 11.844 209.544 12.156 208.968 12.756C208.38 13.368 208.092 14.112 208.092 15C208.092 15.888 208.38 16.632 208.968 17.244C209.544 17.856 210.252 18.156 211.08 18.156C211.992 18.156 212.688 17.82 213.18 17.136V18H214.476V12H213.18ZM211.284 16.92C210.732 16.92 210.288 16.74 209.928 16.38C209.568 16.02 209.388 15.552 209.388 15C209.388 14.448 209.568 13.992 209.928 13.632C210.288 13.272 210.732 13.08 211.284 13.08C211.824 13.08 212.28 13.272 212.64 13.632C213 13.992 213.18 14.448 213.18 15C213.18 15.552 213 16.02 212.64 16.38C212.28 16.74 211.824 16.92 211.284 16.92ZM216.52 18H217.816V9.24H216.52V18ZM220.983 13.656C220.983 13.452 221.067 13.296 221.235 13.188C221.403 13.08 221.607 13.02 221.859 13.02C222.399 13.02 222.771 13.248 222.987 13.704L224.079 13.092C223.863 12.708 223.563 12.396 223.179 12.18C222.795 11.964 222.351 11.844 221.859 11.844C221.235 11.844 220.707 12.012 220.287 12.348C219.867 12.684 219.663 13.128 219.663 13.68C219.663 14.088 219.771 14.412 219.987 14.676C220.203 14.94 220.479 15.12 220.803 15.228C221.115 15.348 221.439 15.444 221.751 15.528C222.063 15.612 222.339 15.708 222.555 15.828C222.771 15.948 222.891 16.104 222.891 16.296C222.891 16.752 222.543 16.968 221.871 16.968C221.187 16.968 220.743 16.68 220.539 16.104L219.423 16.752C219.615 17.196 219.915 17.544 220.347 17.784C220.767 18.036 221.271 18.156 221.871 18.156C222.543 18.156 223.095 18 223.539 17.664C223.983 17.34 224.211 16.884 224.211 16.308C224.211 15.9 224.091 15.564 223.875 15.3C223.659 15.036 223.383 14.844 223.071 14.724C222.747 14.616 222.423 14.52 222.111 14.436C221.799 14.352 221.523 14.256 221.307 14.136C221.091 14.016 220.983 13.86 220.983 13.656Z" fill="#122737"/>
<path d="M190 28L312.976 97.75V237.25L190 307L67.0244 237.25V97.75L190 28Z" fill="#122737" fill-opacity="0.06"/>
<path d="M191 91.5L81.5 105L122 206.5L191 244.5L245 198L259 129.5L191 107V91.5Z" fill="#1EE3CF"/>
<path d="M80.5148 105.542L190 43.5745L299.485 105.542V229.458L190 291.425L80.5148 229.458V105.542Z" stroke="#122737" stroke-opacity="0.11"/>
<path d="M94.4382 113.792L190.5 59.5741L286.562 113.792V222.208L190.5 276.426L94.4382 222.208V113.792Z" stroke="#122737" stroke-opacity="0.11"/>
<path d="M108.228 121.543L190 75.5736L271.772 121.543V213.457L190 259.426L108.228 213.457V121.543Z" stroke="#122737" stroke-opacity="0.11"/>
<path d="M122.151 129.793L190.5 91.5729L258.849 129.793V206.207L190.5 244.427L122.151 206.207V129.793Z" stroke="#122737" stroke-opacity="0.11"/>
<path d="M136.007 137.043L190.5 106.573L244.993 137.043V197.957L190.5 228.427L136.007 197.957V137.043Z" stroke="#122737" stroke-opacity="0.11"/>
<path d="M148.998 144.545L190.5 121.571L232.002 144.545V190.455L190.5 213.429L148.998 190.455V144.545Z" stroke="#122737" stroke-opacity="0.11"/>
<path d="M161.122 151.795L190.5 135.571L219.878 151.795V184.205L190.5 200.429L161.122 184.205V151.795Z" stroke="#122737" stroke-opacity="0.11"/>
<path d="M170.581 157.295L190 146.571L209.419 157.295V178.705L190 189.429L170.581 178.705V157.295Z" stroke="#122737" stroke-opacity="0.11"/>
<path d="M179.309 161.55L190.5 155.567L201.691 161.55V173.45L190.5 179.433L179.309 173.45V161.55Z" stroke="#122737" stroke-opacity="0.11"/>
<path opacity="0.55" d="M0.84 89.6V98H2.22V89.6H0.84ZM7.50393 91.844C6.65193 91.844 6.02793 92.156 5.64393 92.768V92H4.34793V98H5.64393V94.784C5.64393 94.208 5.77593 93.776 6.06393 93.488C6.33993 93.2 6.71193 93.056 7.16793 93.056C7.57593 93.056 7.91193 93.176 8.15193 93.416C8.39193 93.656 8.51193 94.004 8.51193 94.448V98H9.80793V94.316C9.80793 93.548 9.59193 92.948 9.17193 92.504C8.73993 92.072 8.18793 91.844 7.50393 91.844ZM14.8807 89.444C13.0687 89.444 12.1687 90.26 12.1687 91.88V92H11.2567V93.248H12.1687V98H13.4647V93.248H14.5807V92H13.4647V91.88C13.4647 91.016 13.9327 90.584 14.8807 90.584C15.1327 90.584 15.3247 90.596 15.4567 90.596V98H16.7527V89.66C16.0687 89.516 15.4447 89.444 14.8807 89.444ZM22.8297 92V95.216C22.8297 95.804 22.6857 96.236 22.4097 96.524C22.1217 96.812 21.7617 96.944 21.3057 96.944C20.8857 96.944 20.5617 96.824 20.3217 96.584C20.0817 96.344 19.9617 96.008 19.9617 95.552V92H18.6657V95.684C18.6657 96.452 18.8697 97.064 19.3017 97.496C19.7217 97.94 20.2737 98.156 20.9697 98.156C21.8097 98.156 22.4337 97.856 22.8297 97.232V98H24.1257V92H22.8297ZM27.1945 95.552H31.9705C31.9945 95.336 32.0185 95.156 32.0185 95.012C32.0185 94.136 31.7305 93.392 31.1665 92.768C30.6025 92.156 29.8825 91.844 29.0065 91.844C28.0705 91.844 27.3145 92.156 26.7265 92.756C26.1265 93.356 25.8385 94.112 25.8385 95C25.8385 95.912 26.1385 96.668 26.7385 97.268C27.3385 97.868 28.1185 98.156 29.1025 98.156C30.2545 98.156 31.1305 97.724 31.7305 96.848L30.6625 96.224C30.3145 96.728 29.7985 96.968 29.1145 96.968C28.6105 96.968 28.1905 96.848 27.8545 96.608C27.5065 96.368 27.2905 96.008 27.1945 95.552ZM27.1825 94.496C27.2665 94.04 27.4705 93.68 27.7945 93.416C28.1065 93.152 28.5145 93.02 28.9945 93.02C29.4145 93.02 29.7865 93.152 30.0985 93.392C30.4105 93.644 30.6145 94.016 30.7105 94.496H27.1825ZM36.8482 91.844C35.9962 91.844 35.3722 92.156 34.9882 92.768V92H33.6922V98H34.9882V94.784C34.9882 94.208 35.1202 93.776 35.4082 93.488C35.6842 93.2 36.0562 93.056 36.5122 93.056C36.9202 93.056 37.2562 93.176 37.4962 93.416C37.7362 93.656 37.8562 94.004 37.8562 94.448V98H39.1522V94.316C39.1522 93.548 38.9362 92.948 38.5162 92.504C38.0842 92.072 37.5322 91.844 36.8482 91.844ZM43.913 98.156C44.489 98.156 45.029 98.024 45.509 97.736C45.989 97.46 46.349 97.076 46.613 96.596L45.497 95.96C45.353 96.248 45.137 96.464 44.849 96.632C44.561 96.8 44.249 96.884 43.901 96.884C43.373 96.884 42.929 96.704 42.569 96.344C42.209 95.984 42.041 95.54 42.041 95C42.041 94.472 42.209 94.016 42.569 93.656C42.929 93.296 43.373 93.116 43.901 93.116C44.261 93.116 44.573 93.2 44.849 93.368C45.125 93.536 45.329 93.752 45.473 94.04L46.589 93.392C46.349 92.924 45.989 92.552 45.509 92.264C45.029 91.988 44.489 91.844 43.913 91.844C43.001 91.844 42.245 92.156 41.645 92.756C41.045 93.356 40.745 94.112 40.745 95C40.745 95.888 41.045 96.644 41.645 97.244C42.245 97.856 43.001 98.156 43.913 98.156ZM49.0093 95.552H53.7853C53.8093 95.336 53.8333 95.156 53.8333 95.012C53.8333 94.136 53.5453 93.392 52.9813 92.768C52.4173 92.156 51.6973 91.844 50.8213 91.844C49.8853 91.844 49.1293 92.156 48.5413 92.756C47.9413 93.356 47.6533 94.112 47.6533 95C47.6533 95.912 47.9533 96.668 48.5533 97.268C49.1533 97.868 49.9333 98.156 50.9173 98.156C52.0693 98.156 52.9453 97.724 53.5453 96.848L52.4773 96.224C52.1293 96.728 51.6133 96.968 50.9293 96.968C50.4253 96.968 50.0053 96.848 49.6693 96.608C49.3213 96.368 49.1053 96.008 49.0093 95.552ZM48.9973 94.496C49.0813 94.04 49.2853 93.68 49.6093 93.416C49.9213 93.152 50.3293 93.02 50.8093 93.02C51.2293 93.02 51.6013 93.152 51.9133 93.392C52.2253 93.644 52.4293 94.016 52.5253 94.496H48.9973Z" fill="#122737"/>
<path opacity="0.55" d="M28.012 237.656H23.812V238.892H26.62C26.488 239.48 26.188 239.948 25.72 240.296C25.252 240.644 24.652 240.812 23.908 240.812C22.972 240.812 22.228 240.536 21.652 239.96C21.076 239.396 20.8 238.676 20.8 237.812C20.8 236.948 21.076 236.228 21.652 235.652C22.216 235.076 22.936 234.788 23.824 234.788C24.364 234.788 24.856 234.92 25.3 235.16C25.732 235.4 26.068 235.724 26.296 236.12L27.484 235.436C27.124 234.836 26.62 234.344 25.972 233.984C25.324 233.624 24.604 233.444 23.824 233.444C22.576 233.444 21.52 233.876 20.68 234.716C19.84 235.556 19.42 236.588 19.42 237.8C19.42 239.024 19.84 240.056 20.68 240.896C21.52 241.736 22.6 242.156 23.896 242.156C25.12 242.156 26.104 241.796 26.872 241.064C27.628 240.332 28.012 239.384 28.012 238.232V237.656ZM31.5796 242H33.2356L36.1516 233.6H34.6516L32.4076 240.332L30.1756 233.6H28.6636L31.5796 242ZM44.2838 237.032L45.9878 234.776V233.6H40.8278V234.896H44.3438L42.5318 237.284L43.0838 238.112H43.3958C43.8758 238.112 44.2478 238.232 44.5358 238.472C44.8118 238.712 44.9558 239.048 44.9558 239.456C44.9558 239.876 44.8118 240.212 44.5358 240.452C44.2478 240.692 43.8758 240.812 43.3958 240.812C42.5438 240.812 41.9918 240.452 41.7518 239.732L40.5758 240.416C40.7918 240.992 41.1638 241.424 41.6678 241.712C42.1718 242.012 42.7478 242.156 43.3958 242.156C44.2118 242.156 44.9078 241.916 45.4838 241.436C46.0478 240.956 46.3358 240.296 46.3358 239.456C46.3358 238.832 46.1438 238.304 45.7598 237.884C45.3758 237.464 44.8838 237.176 44.2838 237.032ZM52.3656 237.632C53.0016 237.224 53.3256 236.624 53.3256 235.856C53.3256 235.088 53.0616 234.5 52.5456 234.08C52.0296 233.66 51.4056 233.444 50.6616 233.444C49.9056 233.444 49.2696 233.66 48.7656 234.08C48.2496 234.5 47.9976 235.088 47.9976 235.856C47.9976 236.624 48.3096 237.224 48.9456 237.632C48.5496 237.848 48.2496 238.136 48.0336 238.496C47.8176 238.856 47.7096 239.24 47.7096 239.672C47.7096 240.44 47.9736 241.052 48.5136 241.496C49.0536 241.94 49.7736 242.156 50.6616 242.156C51.5496 242.156 52.2576 241.94 52.7976 241.496C53.3256 241.052 53.6016 240.44 53.6016 239.672C53.6016 238.772 53.1816 238.088 52.3656 237.632ZM50.6616 234.752C51.0216 234.752 51.3336 234.86 51.5736 235.052C51.8136 235.256 51.9456 235.544 51.9456 235.916C51.9456 236.276 51.8136 236.564 51.5736 236.768C51.3216 236.984 51.0216 237.08 50.6616 237.08C50.2896 237.08 49.9776 236.984 49.7376 236.768C49.4976 236.564 49.3776 236.276 49.3776 235.916C49.3776 235.544 49.4976 235.256 49.7376 235.052C49.9776 234.86 50.2776 234.752 50.6616 234.752ZM50.6616 240.848C50.1816 240.848 49.8096 240.74 49.5216 240.512C49.2336 240.284 49.0896 239.96 49.0896 239.54C49.0896 239.132 49.2336 238.808 49.5216 238.58C49.8096 238.352 50.1816 238.232 50.6616 238.232C51.1176 238.232 51.5016 238.352 51.7896 238.58C52.0776 238.808 52.2216 239.132 52.2216 239.54C52.2216 239.96 52.0776 240.284 51.7896 240.512C51.5016 240.74 51.1176 240.848 50.6616 240.848Z" fill="#122737"/>
<path opacity="0.55" d="M196.012 331.656H191.812V332.892H194.62C194.488 333.48 194.188 333.948 193.72 334.296C193.252 334.644 192.652 334.812 191.908 334.812C190.972 334.812 190.228 334.536 189.652 333.96C189.076 333.396 188.8 332.676 188.8 331.812C188.8 330.948 189.076 330.228 189.652 329.652C190.216 329.076 190.936 328.788 191.824 328.788C192.364 328.788 192.856 328.92 193.3 329.16C193.732 329.4 194.068 329.724 194.296 330.12L195.484 329.436C195.124 328.836 194.62 328.344 193.972 327.984C193.324 327.624 192.604 327.444 191.824 327.444C190.576 327.444 189.52 327.876 188.68 328.716C187.84 329.556 187.42 330.588 187.42 331.8C187.42 333.024 187.84 334.056 188.68 334.896C189.52 335.736 190.6 336.156 191.896 336.156C193.12 336.156 194.104 335.796 194.872 335.064C195.628 334.332 196.012 333.384 196.012 332.232V331.656ZM199.58 336H201.236L204.152 327.6H202.652L200.408 334.332L198.176 327.6H196.664L199.58 336ZM212.284 331.032L213.988 328.776V327.6H208.828V328.896H212.344L210.532 331.284L211.084 332.112H211.396C211.876 332.112 212.248 332.232 212.536 332.472C212.812 332.712 212.956 333.048 212.956 333.456C212.956 333.876 212.812 334.212 212.536 334.452C212.248 334.692 211.876 334.812 211.396 334.812C210.544 334.812 209.992 334.452 209.752 333.732L208.576 334.416C208.792 334.992 209.164 335.424 209.668 335.712C210.172 336.012 210.748 336.156 211.396 336.156C212.212 336.156 212.908 335.916 213.484 335.436C214.048 334.956 214.336 334.296 214.336 333.456C214.336 332.832 214.144 332.304 213.76 331.884C213.376 331.464 212.884 331.176 212.284 331.032ZM220.366 331.632C221.002 331.224 221.326 330.624 221.326 329.856C221.326 329.088 221.062 328.5 220.546 328.08C220.03 327.66 219.406 327.444 218.662 327.444C217.906 327.444 217.27 327.66 216.766 328.08C216.25 328.5 215.998 329.088 215.998 329.856C215.998 330.624 216.31 331.224 216.946 331.632C216.55 331.848 216.25 332.136 216.034 332.496C215.818 332.856 215.71 333.24 215.71 333.672C215.71 334.44 215.974 335.052 216.514 335.496C217.054 335.94 217.774 336.156 218.662 336.156C219.55 336.156 220.258 335.94 220.798 335.496C221.326 335.052 221.602 334.44 221.602 333.672C221.602 332.772 221.182 332.088 220.366 331.632ZM218.662 328.752C219.022 328.752 219.334 328.86 219.574 329.052C219.814 329.256 219.946 329.544 219.946 329.916C219.946 330.276 219.814 330.564 219.574 330.768C219.322 330.984 219.022 331.08 218.662 331.08C218.29 331.08 217.978 330.984 217.738 330.768C217.498 330.564 217.378 330.276 217.378 329.916C217.378 329.544 217.498 329.256 217.738 329.052C217.978 328.86 218.278 328.752 218.662 328.752ZM218.662 334.848C218.182 334.848 217.81 334.74 217.522 334.512C217.234 334.284 217.09 333.96 217.09 333.54C217.09 333.132 217.234 332.808 217.522 332.58C217.81 332.352 218.182 332.232 218.662 332.232C219.118 332.232 219.502 332.352 219.79 332.58C220.078 332.808 220.222 333.132 220.222 333.54C220.222 333.96 220.078 334.284 219.79 334.512C219.502 334.74 219.118 334.848 218.662 334.848Z" fill="#122737"/>
<path opacity="0.55" d="M337.012 238.656H332.812V239.892H335.62C335.488 240.48 335.188 240.948 334.72 241.296C334.252 241.644 333.652 241.812 332.908 241.812C331.972 241.812 331.228 241.536 330.652 240.96C330.076 240.396 329.8 239.676 329.8 238.812C329.8 237.948 330.076 237.228 330.652 236.652C331.216 236.076 331.936 235.788 332.824 235.788C333.364 235.788 333.856 235.92 334.3 236.16C334.732 236.4 335.068 236.724 335.296 237.12L336.484 236.436C336.124 235.836 335.62 235.344 334.972 234.984C334.324 234.624 333.604 234.444 332.824 234.444C331.576 234.444 330.52 234.876 329.68 235.716C328.84 236.556 328.42 237.588 328.42 238.8C328.42 240.024 328.84 241.056 329.68 241.896C330.52 242.736 331.6 243.156 332.896 243.156C334.12 243.156 335.104 242.796 335.872 242.064C336.628 241.332 337.012 240.384 337.012 239.232V238.656ZM340.58 243H342.236L345.152 234.6H343.652L341.408 241.332L339.176 234.6H337.664L340.58 243ZM353.284 238.032L354.988 235.776V234.6H349.828V235.896H353.344L351.532 238.284L352.084 239.112H352.396C352.876 239.112 353.248 239.232 353.536 239.472C353.812 239.712 353.956 240.048 353.956 240.456C353.956 240.876 353.812 241.212 353.536 241.452C353.248 241.692 352.876 241.812 352.396 241.812C351.544 241.812 350.992 241.452 350.752 240.732L349.576 241.416C349.792 241.992 350.164 242.424 350.668 242.712C351.172 243.012 351.748 243.156 352.396 243.156C353.212 243.156 353.908 242.916 354.484 242.436C355.048 241.956 355.336 241.296 355.336 240.456C355.336 239.832 355.144 239.304 354.76 238.884C354.376 238.464 353.884 238.176 353.284 238.032ZM361.366 238.632C362.002 238.224 362.326 237.624 362.326 236.856C362.326 236.088 362.062 235.5 361.546 235.08C361.03 234.66 360.406 234.444 359.662 234.444C358.906 234.444 358.27 234.66 357.766 235.08C357.25 235.5 356.998 236.088 356.998 236.856C356.998 237.624 357.31 238.224 357.946 238.632C357.55 238.848 357.25 239.136 357.034 239.496C356.818 239.856 356.71 240.24 356.71 240.672C356.71 241.44 356.974 242.052 357.514 242.496C358.054 242.94 358.774 243.156 359.662 243.156C360.55 243.156 361.258 242.94 361.798 242.496C362.326 242.052 362.602 241.44 362.602 240.672C362.602 239.772 362.182 239.088 361.366 238.632ZM359.662 235.752C360.022 235.752 360.334 235.86 360.574 236.052C360.814 236.256 360.946 236.544 360.946 236.916C360.946 237.276 360.814 237.564 360.574 237.768C360.322 237.984 360.022 238.08 359.662 238.08C359.29 238.08 358.978 237.984 358.738 237.768C358.498 237.564 358.378 237.276 358.378 236.916C358.378 236.544 358.498 236.256 358.738 236.052C358.978 235.86 359.278 235.752 359.662 235.752ZM359.662 241.848C359.182 241.848 358.81 241.74 358.522 241.512C358.234 241.284 358.09 240.96 358.09 240.54C358.09 240.132 358.234 239.808 358.522 239.58C358.81 239.352 359.182 239.232 359.662 239.232C360.118 239.232 360.502 239.352 360.79 239.58C361.078 239.808 361.222 240.132 361.222 240.54C361.222 240.96 361.078 241.284 360.79 241.512C360.502 241.74 360.118 241.848 359.662 241.848Z" fill="#122737"/>
<path opacity="0.55" d="M338.012 95.656H333.812V96.892H336.62C336.488 97.48 336.188 97.948 335.72 98.296C335.252 98.644 334.652 98.812 333.908 98.812C332.972 98.812 332.228 98.536 331.652 97.96C331.076 97.396 330.8 96.676 330.8 95.812C330.8 94.948 331.076 94.228 331.652 93.652C332.216 93.076 332.936 92.788 333.824 92.788C334.364 92.788 334.856 92.92 335.3 93.16C335.732 93.4 336.068 93.724 336.296 94.12L337.484 93.436C337.124 92.836 336.62 92.344 335.972 91.984C335.324 91.624 334.604 91.444 333.824 91.444C332.576 91.444 331.52 91.876 330.68 92.716C329.84 93.556 329.42 94.588 329.42 95.8C329.42 97.024 329.84 98.056 330.68 98.896C331.52 99.736 332.6 100.156 333.896 100.156C335.12 100.156 336.104 99.796 336.872 99.064C337.628 98.332 338.012 97.384 338.012 96.232V95.656ZM341.58 100H343.236L346.152 91.6H344.652L342.408 98.332L340.176 91.6H338.664L341.58 100ZM354.284 95.032L355.988 92.776V91.6H350.828V92.896H354.344L352.532 95.284L353.084 96.112H353.396C353.876 96.112 354.248 96.232 354.536 96.472C354.812 96.712 354.956 97.048 354.956 97.456C354.956 97.876 354.812 98.212 354.536 98.452C354.248 98.692 353.876 98.812 353.396 98.812C352.544 98.812 351.992 98.452 351.752 97.732L350.576 98.416C350.792 98.992 351.164 99.424 351.668 99.712C352.172 100.012 352.748 100.156 353.396 100.156C354.212 100.156 354.908 99.916 355.484 99.436C356.048 98.956 356.336 98.296 356.336 97.456C356.336 96.832 356.144 96.304 355.76 95.884C355.376 95.464 354.884 95.176 354.284 95.032ZM362.366 95.632C363.002 95.224 363.326 94.624 363.326 93.856C363.326 93.088 363.062 92.5 362.546 92.08C362.03 91.66 361.406 91.444 360.662 91.444C359.906 91.444 359.27 91.66 358.766 92.08C358.25 92.5 357.998 93.088 357.998 93.856C357.998 94.624 358.31 95.224 358.946 95.632C358.55 95.848 358.25 96.136 358.034 96.496C357.818 96.856 357.71 97.24 357.71 97.672C357.71 98.44 357.974 99.052 358.514 99.496C359.054 99.94 359.774 100.156 360.662 100.156C361.55 100.156 362.258 99.94 362.798 99.496C363.326 99.052 363.602 98.44 363.602 97.672C363.602 96.772 363.182 96.088 362.366 95.632ZM360.662 92.752C361.022 92.752 361.334 92.86 361.574 93.052C361.814 93.256 361.946 93.544 361.946 93.916C361.946 94.276 361.814 94.564 361.574 94.768C361.322 94.984 361.022 95.08 360.662 95.08C360.29 95.08 359.978 94.984 359.738 94.768C359.498 94.564 359.378 94.276 359.378 93.916C359.378 93.544 359.498 93.256 359.738 93.052C359.978 92.86 360.278 92.752 360.662 92.752ZM360.662 98.848C360.182 98.848 359.81 98.74 359.522 98.512C359.234 98.284 359.09 97.96 359.09 97.54C359.09 97.132 359.234 96.808 359.522 96.58C359.81 96.352 360.182 96.232 360.662 96.232C361.118 96.232 361.502 96.352 361.79 96.58C362.078 96.808 362.222 97.132 362.222 97.54C362.222 97.96 362.078 98.284 361.79 98.512C361.502 98.74 361.118 98.848 360.662 98.848Z" fill="#122737"/>
<circle cx="81" cy="105" r="4" fill="white"/>
<circle cx="81" cy="105" r="3.5" stroke="#122737" stroke-opacity="0.11"/>
<circle cx="191" cy="92" r="4" fill="white"/>
<circle cx="191" cy="92" r="3.5" stroke="#122737" stroke-opacity="0.11"/>
<circle cx="190.5" cy="27.5" r="2.5" fill="#1FE2CE"/>
<circle cx="66.5" cy="97.5" r="2.5" fill="#1FE2CE"/>
<circle cx="66.5" cy="237.5" r="2.5" fill="#1FE2CE"/>
<circle cx="189.5" cy="306.5" r="2.5" fill="#1FE2CE"/>
<circle cx="313.5" cy="237.5" r="2.5" fill="#1FE2CE"/>
<circle cx="313.5" cy="97.5" r="2.5" fill="#1FE2CE"/>
<circle cx="259" cy="129" r="4" fill="white"/>
<circle cx="259" cy="129" r="3.5" stroke="#122737" stroke-opacity="0.11"/>
<circle cx="245" cy="197" r="4" fill="white"/>
<circle cx="245" cy="197" r="3.5" stroke="#122737" stroke-opacity="0.11"/>
<circle cx="190" cy="242" r="4" fill="white"/>
<circle cx="190" cy="242" r="3.5" stroke="#122737" stroke-opacity="0.11"/>
<circle cx="122" cy="206" r="4" fill="white"/>
<circle cx="122" cy="206" r="3.5" stroke="#122737" stroke-opacity="0.11"/>
<circle cx="191" cy="106" r="4" fill="white"/>
<circle cx="191" cy="106" r="3.5" stroke="#122737" stroke-opacity="0.11"/>
</svg>
