<svg xmlns="http://www.w3.org/2000/svg" width="24" height="24" fill="#E9FF03" color="#E50012"><g fill-rule="evenodd"><path fill-rule="nonzero" d="M19.5 24h-15A4.51 4.51 0 0 1 0 19.5v-15C0 2.02 2.02 0 4.5 0h15C21.98 0 24 2.02 24 4.5v15c0 2.48-2.02 4.5-4.5 4.5z"/><path d="M13.8 12l3.75-3.75c.52-.53.6-1.42.15-1.88-.45-.45-1.35-.45-1.88.16l-3.75 3.75-3.75-3.75C7.8 6 6.9 5.93 6.45 6.37c-.6.46-.53 1.28 0 1.88L10.2 12l-3.75 3.75c-.53.52-.6 1.43-.15 1.88.45.45 1.35.45 1.88-.15l3.75-3.76 3.75 3.76c.52.52 1.42.6 1.87.14.45-.45.45-1.35-.15-1.87L13.8 12z" fill="currentColor"/></g></svg>