<svg xmlns="http://www.w3.org/2000/svg" width="24" height="24" color="#2F2F2F" fill="#EBEBE6"><g fill-rule="evenodd"><path fill-rule="nonzero" d="M19.5 24h-15A4.51 4.51 0 0 1 0 19.5v-15C0 2.02 2.02 0 4.5 0h15C21.98 0 24 2.02 24 4.5v15c0 2.48-2.02 4.5-4.5 4.5z"/><path d="M14.9 18.75l-.23.97c-.67.3-1.27.45-1.64.6-.38.15-.9.23-1.43.23-.82 0-1.5-.23-1.95-.6-.45-.38-.67-.9-.67-1.58 0-.22 0-.52.07-.75 0-.22.08-.52.15-.9l.9-3.07c.08-.3.15-.6.23-.83.07-.22.07-.52.07-.75 0-.37-.07-.67-.22-.82-.15-.15-.45-.23-.9-.23-.23 0-.45 0-.68.08-.22.07-.45.15-.6.22l.23-.97c.6-.23 1.12-.45 1.65-.6a5.2 5.2 0 0 1 1.5-.23c.82 0 1.5.23 1.95.6.45.38.67.9.67 1.58 0 .15-.15 1.35-.22 1.57l-.83 3.08c-.07.22-.15.52-.22.82-.08.3-.08.53-.08.68 0 .37.08.67.3.82.15.15.53.23.97.23.23 0 .83-.08.98-.15M15.04 6a2 2 0 1 1-4 0 2 2 0 0 1 4 0" fill="currentColor"/></g></svg>