<svg xmlns="http://www.w3.org/2000/svg" width="24" height="24" class="TeamPitchElement__StyledSub-sc-202u14-0 Mlowm"><g fill="none"><path fill="#E9FF03" d="M19.5 24h-15A4.5 4.5 0 0 1 0 19.5v-15A4.5 4.5 0 0 1 4.5 0h15A4.5 4.5 0 0 1 24 4.5v15a4.5 4.5 0 0 1-4.5 4.5z"/><path fill="#C0020D" d="M9 11.55a.75.75 0 0 1-.525-.225l-4.8-4.8a.75.75 0 0 1 1.05-1.05L9 9.75l4.275-4.275a.75.75 0 0 1 1.05 1.05l-4.8 4.8A.75.75 0 0 1 9 11.55z"/><path fill="#009A4C" d="M20.4 18.75a.75.75 0 0 1-.525-.225L15.6 14.25l-4.275 4.275a.75.75 0 0 1-1.05-1.05l4.8-4.8a.75.75 0 0 1 1.05 0l4.8 4.8a.75.75 0 0 1-.525 1.275z"/></g></svg>