<svg id="Шар_1" data-name="Шар 1" xmlns="http://www.w3.org/2000/svg" xmlns:xlink="http://www.w3.org/1999/xlink" viewBox="0 0 150.66 221.24"><defs><style>.cls-1{filter:url(#dropshadow);}.cls-2{fill:#e7d32a;}.cls-3{fill:#e9d73f;}</style><filter id="dropshadow" name="dropshadow"><feGaussianBlur stdDeviation="3" in="SourceAlpha"/><feOffset result="offsetblur" dx="-2" dy="2"/><feComponentTransfer><feFuncA type="linear" slope="0.5"/></feComponentTransfer><feMerge><feMergeNode/><feMergeNode in="SourceGraphic"/></feMerge></filter></defs><title>yellow-card</title><g class="cls-1"><rect class="cls-2" width="150.66" height="221.24" rx="9.3"/><path class="cls-3" d="M123.64,136.26a336.28,336.28,0,0,0-84.5-29.45c-2.89-.61-3.94-1.65-3.89-4.59q.22-14.13.13-28.23c-.05-6.64,3.45-9.36,9.73-9.31q52,.58,104,1.06c6.66.05,13.38,0,20.06.19,5,.21,8.32,2.65,8.32,8q-.33,45.66-.86,91.32a11.5,11.5,0,0,1-.44,2.08,10.93,10.93,0,0,1-1.91-.94C157.9,154.6,140.83,144,123.64,136.26Z" transform="translate(-31.02 -60.66)"/></g></svg>