<svg xmlns="http://www.w3.org/2000/svg" xmlns:xlink="http://www.w3.org/1999/xlink" viewBox="0 0 70.72 90.48"><defs><style>.cls-1{isolation:isolate;}.cls-2{fill:#ff2626;}.cls-3,.cls-6,.cls-7{opacity:0.24;mix-blend-mode:multiply;}.cls-4{fill:url(#linear-gradient);}.cls-5{fill:url(#linear-gradient-2);}.cls-6{fill:url(#linear-gradient-3);}.cls-7{fill:url(#linear-gradient-4);}.cls-8{fill:#cfaa14;}.cls-9{fill:#ffd119;}.cls-10{fill:#757575;}.cls-11{fill:#a18410;}.cls-12{fill:#69560b;}</style><linearGradient id="linear-gradient" x1="47.9" y1="66.62" x2="46.54" y2="54.86" gradientUnits="userSpaceOnUse"><stop offset="0" stop-color="#fff"/><stop offset="0.05" stop-color="#e7e7e7"/><stop offset="0.2" stop-color="#ababab"/><stop offset="0.35" stop-color="#777"/><stop offset="0.5" stop-color="#4c4c4c"/><stop offset="0.64" stop-color="#2b2b2b"/><stop offset="0.77" stop-color="#131313"/><stop offset="0.89" stop-color="#050505"/><stop offset="1"/></linearGradient><linearGradient id="linear-gradient-2" x1="56.21" y1="65.66" x2="54.84" y2="53.89" xlink:href="#linear-gradient"/><linearGradient id="linear-gradient-3" x1="51.19" y1="75.1" x2="57.07" y2="76.64" xlink:href="#linear-gradient"/><linearGradient id="linear-gradient-4" x1="59.5" y1="77.17" x2="55.96" y2="76.71" gradientUnits="userSpaceOnUse"><stop offset="0" stop-color="#fff"/><stop offset="0.09" stop-color="#f5f5f5"/><stop offset="0.23" stop-color="#dadada"/><stop offset="0.42" stop-color="#aeaeae"/><stop offset="0.64" stop-color="#707070"/><stop offset="0.89" stop-color="#232323"/><stop offset="1"/></linearGradient></defs><title>foul</title><g class="cls-1"><g id="Шар_2" data-name="Шар 2"><g id="Objects"><path class="cls-2" d="M65.14,90.48c-2.76,0-6.31-1.82-9.1-7.13a15.86,15.86,0,0,1-1.78-5.82A15.7,15.7,0,0,1,49,75.11c-6.9-5.24-4.2-14.58-1.8-18.79l2.48,1.41c-.23.4-5.59,10.07,1,15.11a11.86,11.86,0,0,0,3.46,1.68c0-1.59.26-3.15.46-4.69.6-4.48,1.21-9.12-1.68-14.83l2.54-1.29c3.29,6.5,2.59,11.81,2,16.5A43.49,43.49,0,0,0,57,75.27c.74.17,1.49.32,2.23.48,5.06,1,10.79,2.21,11.44,7.83.37,3.21-1.12,5.82-3.81,6.65A5.79,5.79,0,0,1,65.14,90.48Zm-7.9-12.23A13.35,13.35,0,0,0,58.56,82C61,86.65,64.05,88.1,66,87.5c1.33-.41,2-1.79,1.82-3.59-.39-3.33-3.73-4.25-9.18-5.37Z"/><g class="cls-3"><path class="cls-4" d="M47.65,63.38a19.8,19.8,0,0,1,2-5.65l-2.48-1.41a21,21,0,0,0-2.44,7.24A23.11,23.11,0,0,0,47.65,63.38Z"/><path class="cls-5" d="M55.49,53.71,53,55a19.47,19.47,0,0,1,1.95,6,19.69,19.69,0,0,0,2.59-1.72A23.09,23.09,0,0,0,55.49,53.71Z"/></g><path class="cls-6" d="M54.17,74.52a15.22,15.22,0,0,1-1.93-.77l-1.55,2.4a19.58,19.58,0,0,0,3.57,1.38A15,15,0,0,1,54.17,74.52Z"/><path class="cls-7" d="M58.65,78.54l1.22.26-.74-3.07L57,75.27a16.45,16.45,0,0,0,.25,3Z"/><path class="cls-8" d="M51,39.1a17.8,17.8,0,0,0,1.47-10.86l4.19.39-8.43-9h0a17.67,17.67,0,0,0-6.16-4.35L6,0,.38,11.93A1.54,1.54,0,0,0,1.17,14l4.2,1.78c7.38,3.14,10.47,10,10.41,14.5-.07,5.68,1.76,11.49,5.94,15.34l-.07,0,8.45,8.89-1.23-5.07A19.28,19.28,0,0,0,51,39.1Z"/><path class="cls-9" d="M51.47,25.26,15.43,10,9.11,23.32l5.66,2.41c7.39,3.14,10.48,10,10.42,14.5-.1,7.45,3.07,15.14,10.55,18.32a19.24,19.24,0,0,0,24.67-9.5A17.48,17.48,0,0,0,51.47,25.26Z"/><ellipse class="cls-8" cx="43.6" cy="41.9" rx="10.28" ry="9.87" transform="translate(-14.14 23.92) rotate(-26.56)"/><path class="cls-10" d="M6,0l9.41,10L9.11,23.32.42,14.14a1.54,1.54,0,0,1-.27-1.71Z"/><path class="cls-11" d="M6,0l9.41,10L9.11,23.32.42,14.14a1.54,1.54,0,0,1-.27-1.71Z"/><path class="cls-12" d="M6.12,2.23,14,10.39l-5.17,11L1.4,13.69a.94.94,0,0,1-.17-1.08Z"/><polygon class="cls-12" points="35.73 18.59 26.32 8.64 31.79 10.95 41.2 20.89 35.73 18.59"/></g></g></g></svg>