<svg xmlns="http://www.w3.org/2000/svg" xmlns:xlink="http://www.w3.org/1999/xlink" viewBox="0 0 62.37 68.78"><defs><style>.cls-1{fill:url(#radial-gradient);}.cls-2{fill:#9e9e9f;}.cls-3{fill:#717071;}.cls-4{fill:#231815;}.cls-5{fill:#888;}.cls-6{fill:#b4b4b5;}.cls-7{fill:#fff;}.cls-8{fill:#f1eff2;}.cls-9{fill:#c6c6c5;}</style><radialGradient id="radial-gradient" cx="49.09" cy="19.63" r="25.04" gradientTransform="translate(12.54 -14.42) rotate(22.23)" gradientUnits="userSpaceOnUse"><stop offset="0.08" stop-color="#fff"/><stop offset="0.5" stop-color="#e4e3e3"/><stop offset="1" stop-color="#bdbbbb"/></radialGradient></defs><title>goal-home</title><g id="Шар_2" data-name="Шар 2"><g id="Objects"><circle class="cls-1" cx="42.97" cy="24.7" r="16.71" transform="translate(-6.15 18.09) rotate(-22.23)"/><polygon class="cls-2" points="39.65 25.98 47.56 23.3 47.61 23.44 39.7 26.13 39.65 25.98 39.65 25.98"/><path class="cls-3" d="M37.83,32.15h0l.11-.1s.73.89,1.84,2h0a18.62,18.62,0,0,0,4.18,3v.19l-.07,0a20.79,20.79,0,0,1-6.06-5.09Z"/><path class="cls-2" d="M49.83,35.35a20.23,20.23,0,0,0,2-5.62h0a15.64,15.64,0,0,0,.32-2.48h.15A20.18,20.18,0,0,1,50,35.42h0l-.13-.07Z"/><path class="cls-4" d="M34.65,21.29a18.22,18.22,0,0,1,1.82-7.06h0l.14.07a19.94,19.94,0,0,0-.91,2.21h0a15.4,15.4,0,0,0-.9,4.78h0c0,.24,0,.49,0,.73h-.14c0-.24,0-.49,0-.74Z"/><path class="cls-5" d="M45.26,13.73a20.24,20.24,0,0,0-2.34-1.49h0l.07-.13s4.27,2.24,6.08,5.25h0l-.13.08a13.68,13.68,0,0,0-3.68-3.71Z"/><path class="cls-4" d="M31.14,35.56a8.42,8.42,0,0,1,1.2-4.17h0l.12.08a7.24,7.24,0,0,0-.58,1.2h0a8,8,0,0,0-.59,2.89h0a5.25,5.25,0,0,0,0,.56h-.15a5.44,5.44,0,0,1,0-.57Z"/><path class="cls-6" d="M57,24.64a4.84,4.84,0,0,0-1-.6h0l0-.14a7,7,0,0,1,3.17,2.94h0l-.12.07A7.79,7.79,0,0,0,57,24.64Z"/><path class="cls-2" d="M54.34,18a12.5,12.5,0,0,0,.54-3.72h0c0-.24,0-.49,0-.74h.07c0,.25,0,.5,0,.74h0A12.55,12.55,0,0,1,54.41,18h0l-.07,0Z"/><path class="cls-4" d="M26.93,22.36l.12-.07A9.24,9.24,0,0,0,28.86,24h0c.75.59,1.43,1.06,1.43,1.06h0l-.08.13a17.53,17.53,0,0,1-3.28-2.84Z"/><path class="cls-4" d="M27.78,17.75a12.65,12.65,0,0,1,6.14-5.65h0l0,.07a9.37,9.37,0,0,0-2.07,1.14h0a14.17,14.17,0,0,0-4,4.48h0l-.06,0Z"/><path class="cls-7" d="M43.78,9.22a19.67,19.67,0,0,1,7.76,1.19S47.34,8.54,43.78,9Z"/><path class="cls-2" d="M52.38,37a5.64,5.64,0,0,0,2.94-1.37,6.68,6.68,0,0,1-3,1.67Z"/><path class="cls-2" d="M43.13,39.82a15,15,0,0,1-4.46.78,14.77,14.77,0,0,0,4.55-.52Z"/><path d="M33.33,12.3a14.25,14.25,0,0,1,5.31-3.74A12.67,12.67,0,0,1,44.13,9l-.9,3.43a27.53,27.53,0,0,0-6.91,2.19Z"/><path d="M34.68,21.2A54.61,54.61,0,0,0,40,25.88s-1.54,4.93-1.74,6.52A13.45,13.45,0,0,1,32,31.9a15.7,15.7,0,0,1-2.14-7S32.69,22,34.68,21.2Z"/><path d="M43.48,36.87s4.38-.39,6.82-2.33A13,13,0,0,0,52.78,37s-2.55,3-4.61,3.57a11.74,11.74,0,0,1-5.78-.43A11.17,11.17,0,0,0,43.48,36.87Z"/><path class="cls-4" d="M48.6,16.93s-1,4.67-1.59,6.56c0,0,3.53,2.94,5.13,4.53,0,0,3.78-2.29,4.27-3.83a12.84,12.84,0,0,0-1.89-6.77A8.18,8.18,0,0,0,48.6,16.93Z"/><path d="M48.87,17.2s-.94,4.44-1.51,6.23c0,0,3.35,2.79,4.87,4.3,0,0,3.59-2.17,4.06-3.63a12.24,12.24,0,0,0-1.79-6.43A7.8,7.8,0,0,0,48.87,17.2Z"/><path d="M28.11,17a16.77,16.77,0,0,0-1.86,7.67v.09a7.22,7.22,0,0,1,1-2.24A18.72,18.72,0,0,1,28.11,17Z"/><path d="M31.29,35.43a9.66,9.66,0,0,1-2-1.16,16.82,16.82,0,0,0,8.06,6.17C35.62,39.61,32.67,37.9,31.29,35.43Z"/><path d="M58.45,31a16.49,16.49,0,0,0,1.23-6,4.15,4.15,0,0,1-.73,1.6A27.79,27.79,0,0,1,58.45,31Z"/><path d="M54.92,13.89c1.14.44,2.26,2.06,3,3.32A16.73,16.73,0,0,0,51,10.05,23,23,0,0,1,54.92,13.89Z"/><path class="cls-7" d="M40.85,25.89,46.36,24a1.45,1.45,0,0,1,1.27.25l3.74,3.25c.31.27.3.29,0,0l-3.73-2.83a1.76,1.76,0,0,0-1.32-.26l-5.42,1.46C40.47,26,40.46,26,40.85,25.89Z"/><path class="cls-7" d="M34.49,21.09s.34-4.4,1.75-6.49l-2.83-2.09,2.46,2.13A16.13,16.13,0,0,0,34.49,21.09Z"/><path class="cls-8" d="M33.3,12.23a10.15,10.15,0,0,1,4.39-3.32A8.33,8.33,0,0,0,33.3,12.23Z"/><path class="cls-8" d="M38,32.57a19.18,19.18,0,0,0,5.3,4.52A9.24,9.24,0,0,1,42.39,40a14,14,0,0,0,.71-2.78A14,14,0,0,1,38,32.57Z"/><path class="cls-8" d="M50.2,34.49A22,22,0,0,0,52,28.11a38.88,38.88,0,0,1-1.72,5.8,2,2,0,0,1-.61.69,17.61,17.61,0,0,1-6,2.12A13.46,13.46,0,0,0,50.2,34.49Z"/><path class="cls-7" d="M52.32,28s3.36-1.94,4.11-3.61C56.43,24.38,55.79,26.47,52.32,28Z"/><path class="cls-9" d="M61.87,22.41a1.62,1.62,0,0,1,.4.72,1.68,1.68,0,0,1-.13,1.4.54.54,0,0,1-.37.31c0-.44,0-.7,0-.7a2.28,2.28,0,0,0-.07-.67A20.92,20.92,0,0,1,58,30.83c-.08.66-.58,4.71-1.23,7.36l0,.14a11.89,11.89,0,0,1,.88,1.21c.43-2,.79-3.51,1.2-5a6.79,6.79,0,0,0,.45-.58l.45-.67c-1,3.78-2.39,10.64-3.09,15.13s-1,11.1-1,11.17a.31.31,0,0,1-.16.27.33.33,0,0,1-.17,0,.32.32,0,0,1-.31-.34s0-.57.07-1.46c-.22-.18-.92-.74-1.42-1.12a1.6,1.6,0,0,1-.26-.26,37.6,37.6,0,0,1-.62,3.85.31.31,0,0,1-.16.21.3.3,0,0,1-.23,0,.32.32,0,0,1-.24-.39A50.63,50.63,0,0,0,53,48.16a60.45,60.45,0,0,0-7.6.4c-.8,3-2.34,8.95-2.52,9.63.33,2.3,1.3,7.84,1.31,7.89a.33.33,0,0,1-.17.34l-.1,0a.32.32,0,0,1-.37-.26c0-.06-.93-5.32-1.28-7.73a47.7,47.7,0,0,0-9.63.3c-.64,2.09-1.56,4.57-2.23,6.31-.44,1.16-.8,2.06-1,2.49l-.3.73c-.11.25-.16.37-.26.42l-.12,0-.22,0-.1-.19a.31.31,0,0,1,0-.32c.18-.4,2.46-6,3.61-9.78-.21-.65-1.47-4.45-2.49-7.36-5.55,1.26-9.77,1.79-9.82,1.8a.33.33,0,0,1-.36-.28.33.33,0,0,1,.28-.36c.05,0,4.32-.55,9.89-1.82.54-1,4-7.1,4.45-8a1,1,0,0,0,.15-.6l0-.07a.3.3,0,0,1,0-.13,3.89,3.89,0,0,0-.4-.69c-.15-.23-.32-.5-.51-.83A30.61,30.61,0,0,0,30,35.39,60.07,60.07,0,0,0,20.81,37a.14.14,0,0,1,0,.07,37.63,37.63,0,0,1-5.3,8.83.39.39,0,0,1-.1.08.34.34,0,0,1-.36,0,.32.32,0,0,1,0-.46,38.17,38.17,0,0,0,5.16-8.55c-.7-.63-4.79-4.34-5.9-5.41a74.42,74.42,0,0,1-9.81.79A.32.32,0,0,1,4.11,32a.32.32,0,0,1,.32-.33,76.88,76.88,0,0,0,9.71-.79c1.62-2.8,4.12-7.38,4.14-8.12a.35.35,0,0,0,0-.1l0-.05a14.19,14.19,0,0,0-3.4-2.66c-1.53-1-3.07-1.91-3.42-2.11A58.55,58.55,0,0,1,.25,16.72.32.32,0,0,1,0,16.33a.32.32,0,0,1,.39-.24,56.76,56.76,0,0,0,10.79,1.07,22.44,22.44,0,0,1,1.47-4.46c1.22-2.83,1.09-3.51,0-4.29l-.5-.15a.34.34,0,0,1-.2-.41.33.33,0,0,1,.42-.2c2.35.81,8.58,1.62,10.72,1.89l-4-5.6a.31.31,0,0,1,.07-.45.32.32,0,0,1,.45.07S22.31,7.4,24,9.68c1.63.64,7.13,2.64,7.19,2.67h.05l0,0a.54.54,0,0,1,.08.08A80.76,80.76,0,0,0,40.8,13a26.73,26.73,0,0,1-5.09-5.06,22.76,22.76,0,0,1-3.59-1c-3.68-1-9-2.48-10.71-3a.32.32,0,0,1-.22-.4.32.32,0,0,1,.4-.22c1.09.32,3.71,1,6.41,1.79A41.42,41.42,0,0,1,22.78,2a.33.33,0,0,1-.07-.45.32.32,0,0,1,.46-.07A40.78,40.78,0,0,0,32.3,6.32l3.64,1a48.38,48.38,0,0,1,6.21.22A156.16,156.16,0,0,1,22.42.62a.33.33,0,0,1-.17-.43A.33.33,0,0,1,22.68,0a159.73,159.73,0,0,0,25.13,8.3c2.47.46,4.06.91,4.09.92H52l0,0h0c2.41,1.61,5.48,6.35,5.75,6.78C61.06,19.66,61.74,21.81,61.87,22.41ZM47.66,9A55.53,55.53,0,0,0,36.52,8a29.13,29.13,0,0,0,5.37,5A59.52,59.52,0,0,1,49,15.82a21.25,21.25,0,0,1,7.85,0c-.93-1.37-3.31-4.55-5.17-5.82C50.29,9.72,49,9.27,47.66,9ZM44.84,25.12a48.44,48.44,0,0,0-9.52,1.64,31.54,31.54,0,0,1-2.79,5c-1.06,1.61-1.71,2.77-2,3.23a35.32,35.32,0,0,1,3.22,4.8c.17.31.34.56.48.79a5.12,5.12,0,0,1,.41.68,45.56,45.56,0,0,1,9.39-1.38c.49-.81,2.91-4.82,4.62-8.16C48.29,31.05,46.58,28.1,44.84,25.12Zm3.76-8.76a62.84,62.84,0,0,0-6.92-2.75,74.64,74.64,0,0,1-10-.44,3.14,3.14,0,0,1-.34,2.44,54.54,54.54,0,0,0-2.25,6c1.12.87,5.2,4,6,4.55a48.47,48.47,0,0,1,9.7-1.68C45.92,22.55,48.42,17.89,48.6,16.36ZM15.22,19.43a16,16,0,0,1,3.4,2.64,62.77,62.77,0,0,1,9.9-.68,56.29,56.29,0,0,1,2.28-6.08c.75-1.48.21-2.22.06-2.38-.63-.23-5.7-2.08-7.19-2.67-.61-.07-6.31-.74-9.81-1.53.6.93.3,2.13-.61,4.23a22.17,22.17,0,0,0-1.43,4.36C12.34,17.62,13.79,18.48,15.22,19.43Zm10.24,15.9A29.79,29.79,0,0,1,30,34.74c.25-.45.9-1.63,2-3.32a34.51,34.51,0,0,0,2.7-4.78c-.92-.7-5.08-3.84-6-4.6a62,62,0,0,0-9.72.64.17.17,0,0,1,0,.07c0,1.08-3.24,6.72-4.17,8.33,1.14,1.1,5,4.58,5.78,5.29C21.36,36.11,23.59,35.66,25.46,35.33Zm4.68,15.45c1,2.75,2.17,6.36,2.49,7.34a48.45,48.45,0,0,1,9.7-.3c.33-1.27,1.77-6.84,2.51-9.58,0-.48-.34-4-.87-7.69a45,45,0,0,0-9.14,1.36,1.8,1.8,0,0,1-.23.82C34.12,43.68,30.7,49.79,30.14,50.78ZM56.48,39.1c-.84,3-2.62,8.18-2.83,8.79a55.86,55.86,0,0,1-.13,7h0c0,.3.08,1.21.48,1.5l1.08.85c.14-2.36.42-6.11.86-9,.37-2.39.88-5.14,1.43-7.76l0,0A7.49,7.49,0,0,0,56.48,39.1Zm.79-8a21.59,21.59,0,0,0-7.92.77c-1.76,3.46-4.33,7.69-4.76,8.39.48,3.38.78,6.6.87,7.63a60.86,60.86,0,0,1,7.64-.4c.41-1.19,2.37-6.92,3-9.48C56.66,35.73,57.11,32.33,57.27,31.12Zm4-8.52c-.12-.77-1.08-2.94-3.92-6a22.72,22.72,0,0,0-8.09-.15c-.24,1.94-3.19,7.2-3.85,8.36,1.64,2.8,3.25,5.58,3.78,6.49a22.16,22.16,0,0,1,8.23-.79A22.12,22.12,0,0,0,61.25,22.6Z"/></g></g></svg>