<svg xmlns="http://www.w3.org/2000/svg" xmlns:xlink="http://www.w3.org/1999/xlink" viewBox="0 0 43.43 37.64"><defs><style>.cls-1{fill:url(#radial-gradient);}.cls-2{fill:#9e9e9f;}.cls-3{fill:#717071;}.cls-4{fill:#231815;}.cls-5{fill:#888;}.cls-6{fill:#b4b4b5;}.cls-7{fill:#fff;}.cls-8{fill:#f1eff2;}.cls-9{fill:#c41414;stroke:#000;stroke-miterlimit:10;stroke-width:0.1px;}</style><radialGradient id="radial-gradient" cx="696.5" cy="11.64" r="25.04" gradientTransform="matrix(-0.38, -0.93, -0.93, 0.38, 303.38, 649.46)" gradientUnits="userSpaceOnUse"><stop offset="0.08" stop-color="#fff"/><stop offset="0.5" stop-color="#e4e3e3"/><stop offset="1" stop-color="#bdbbbb"/></radialGradient></defs><title>save-home</title><g id="Шар_2" data-name="Шар 2"><g id="Objects"><circle class="cls-1" cx="26.72" cy="16.71" r="16.71" transform="translate(1.14 35.12) rotate(-67.77)"/><polygon class="cls-2" points="30.04 18 22.13 15.31 22.08 15.45 29.99 18.14 30.04 18 30.04 18"/><path class="cls-3" d="M31.86,24.16h0l-.12-.1a26.32,26.32,0,0,1-1.84,2h0a17.89,17.89,0,0,1-4.18,3v.19l.07,0a20.58,20.58,0,0,0,6.07-5.09Z"/><path class="cls-2" d="M19.85,27.36a20.23,20.23,0,0,1-2-5.61h0a15.81,15.81,0,0,1-.32-2.49H17.4a20.06,20.06,0,0,0,2.32,8.17h0l.13-.07Z"/><path class="cls-4" d="M35,13.3a18.21,18.21,0,0,0-1.83-7.06h0l-.13.07A19,19,0,0,1,34,8.52h0a15.11,15.11,0,0,1,.91,4.78h0c0,.25,0,.49,0,.73H35c0-.24,0-.49,0-.74Z"/><path class="cls-5" d="M24.42,5.74a24.7,24.7,0,0,1,2.34-1.49h0l-.07-.13s-4.26,2.24-6.07,5.25h0l.13.08a13.65,13.65,0,0,1,3.67-3.71Z"/><path class="cls-4" d="M38.54,27.58a8.6,8.6,0,0,0-1.19-4.18h0l-.13.08a7.71,7.71,0,0,1,.59,1.2h0a8.09,8.09,0,0,1,.58,2.9h0a5.15,5.15,0,0,1,0,.55h0l.15,0c0-.2,0-.39,0-.57Z"/><path class="cls-6" d="M12.65,16.65a4.84,4.84,0,0,1,1-.6h0l-.06-.14a7.07,7.07,0,0,0-3.17,2.94h0l.13.08a7.84,7.84,0,0,1,2.05-2.28Z"/><path class="cls-2" d="M15.35,10a12.7,12.7,0,0,1-.54-3.73h0c0-.24,0-.48,0-.74h-.08c0,.25,0,.5,0,.74h0A12.55,12.55,0,0,0,15.28,10h0l.07,0Z"/><path class="cls-4" d="M42.76,14.37l-.13-.07A9,9,0,0,1,40.82,16h0c-.74.59-1.42,1.06-1.42,1.06h0l.08.13a18.19,18.19,0,0,0,3.28-2.84Z"/><path class="cls-4" d="M41.91,9.77a12.69,12.69,0,0,0-6.14-5.66h0l0,.07a8.15,8.15,0,0,1,2.07,1.13h0a14.05,14.05,0,0,1,4,4.48h0l.07,0Z"/><path class="cls-7" d="M25.91,1.23a19.65,19.65,0,0,0-7.76,1.19S22.35.56,25.91,1Z"/><path class="cls-2" d="M17.3,29a5.63,5.63,0,0,1-2.93-1.37,6.59,6.59,0,0,0,3,1.67Z"/><path class="cls-2" d="M26.55,31.83a15.29,15.29,0,0,0,4.47.79,14.92,14.92,0,0,1-4.55-.53Z"/><path d="M36.35,4.31A14.16,14.16,0,0,0,31.05.57,12.64,12.64,0,0,0,25.56,1l.89,3.43A27.51,27.51,0,0,1,33.37,6.6Z"/><path d="M35,13.22a54.63,54.63,0,0,1-5.32,4.67s1.54,4.93,1.74,6.52a13.3,13.3,0,0,0,6.22-.5,15.64,15.64,0,0,0,2.14-7S37,14,35,13.22Z"/><path d="M26.21,28.89s-4.38-.4-6.82-2.34A12.85,12.85,0,0,1,16.9,29s2.56,3,4.62,3.57a11.74,11.74,0,0,0,5.78-.43A10.69,10.69,0,0,1,26.21,28.89Z"/><path class="cls-4" d="M21.08,8.94s1,4.67,1.59,6.56c0,0-3.53,2.94-5.12,4.53,0,0-3.78-2.29-4.28-3.83a12.8,12.8,0,0,1,1.89-6.76A8.16,8.16,0,0,1,21.08,8.94Z"/><path d="M20.81,9.21s1,4.44,1.52,6.24c0,0-3.36,2.78-4.87,4.3,0,0-3.59-2.18-4.06-3.64a12.13,12.13,0,0,1,1.79-6.43A7.77,7.77,0,0,1,20.81,9.21Z"/><path d="M41.57,9.05a16.58,16.58,0,0,1,1.86,7.66v.09a7,7,0,0,0-1-2.24A18.63,18.63,0,0,0,41.57,9.05Z"/><path d="M38.39,27.44a9.4,9.4,0,0,0,2-1.16,16.73,16.73,0,0,1-8.06,6.17C34.07,31.62,37,29.91,38.39,27.44Z"/><path d="M11.23,23a16.68,16.68,0,0,1-1.22-6,4,4,0,0,0,.72,1.59A27.79,27.79,0,0,0,11.23,23Z"/><path d="M14.76,5.9c-1.13.44-2.25,2.06-3,3.32a16.76,16.76,0,0,1,6.89-7.16A23,23,0,0,0,14.76,5.9Z"/><path class="cls-7" d="M28.83,17.9,23.33,16a1.45,1.45,0,0,0-1.27.25l-3.75,3.25c-.31.27-.29.29,0,0l3.74-2.83a1.74,1.74,0,0,1,1.31-.26L28.82,18C29.22,18.05,29.22,18,28.83,17.9Z"/><path class="cls-7" d="M35.2,13.1s-.34-4.4-1.76-6.49l2.84-2.09L33.82,6.65A16.19,16.19,0,0,1,35.2,13.1Z"/><path class="cls-8" d="M36.39,4.24A10.32,10.32,0,0,0,32,.92,8.4,8.4,0,0,1,36.39,4.24Z"/><path class="cls-8" d="M31.65,24.58a19,19,0,0,1-5.3,4.52A9.13,9.13,0,0,0,27.3,32a14,14,0,0,1-.71-2.77A14,14,0,0,0,31.65,24.58Z"/><path class="cls-8" d="M19.49,26.5a22,22,0,0,1-1.75-6.38,38.46,38.46,0,0,0,1.71,5.8,2.16,2.16,0,0,0,.62.69,17.7,17.7,0,0,0,6,2.13A13.49,13.49,0,0,1,19.49,26.5Z"/><path class="cls-7" d="M17.36,20s-3.35-1.94-4.1-3.62C13.26,16.39,13.89,18.48,17.36,20Z"/><path class="cls-9" d="M9.91,18c.26.12.35.06.34-.22a20.7,20.7,0,0,1,.29-4.31c.12-.7-.15-1.47.31-2.09.1-.14,0-.64.48-.36.07,0,.36-.53.29-.64-.28-.43.08-.67.23-.93.46-.77,1-1.51,1.47-2.26a24.27,24.27,0,0,1,3.42-4.4.53.53,0,0,0,.2-.51A2.62,2.62,0,0,0,16,.63c-.24-.18-.34.07-.46.17a16.91,16.91,0,0,0-2.76,3.27,77.34,77.34,0,0,0-4.64,7.77.79.79,0,0,1-.28.33,6.9,6.9,0,0,1,.33-.9A55.11,55.11,0,0,1,14.08,2c.39-.46.83-.87,1.26-1.3.22-.21.2-.32-.1-.4a1.69,1.69,0,0,0-1.67.46,6.14,6.14,0,0,0-.72.88c-1.09,1.68-2.34,3.24-3.5,4.87a47.29,47.29,0,0,0-2.54,4.14,1.62,1.62,0,0,0-.1.18c-.37.86-.36,1,.25,1.61l-.15,0c-.14,0-.29-.2-.42,0s0,.32.11.47.32.32.27.58l-.1,0c-.17-.12-.3-.45-.5-.36s-.13.43-.13.67,0,.51.07.86c-.32-.37-.24-.78-.4-1.14a1.82,1.82,0,0,0-.62,1A20.73,20.73,0,0,0,4,18.68c0,.52-.28,1-.36,1.55a9.69,9.69,0,0,0-.1,2.52,4.36,4.36,0,0,1,.05,1.19,2.42,2.42,0,0,0,1.28,2.55,23.12,23.12,0,0,0,3.05,1.94,5.48,5.48,0,0,0,2.54.59.39.39,0,0,0,.34-.18,16.37,16.37,0,0,0,1.53-2.08.54.54,0,0,0,0-.66,3.07,3.07,0,0,1-.44-.76c-.27-.84-.81-1-1.64-.89a8.84,8.84,0,0,0-2.39.25.88.88,0,0,1,.92-.48,14.13,14.13,0,0,0,3.55-.3,8.26,8.26,0,0,0,3.77-1.71A12.44,12.44,0,0,0,19.3,19l.14-.22c.12-.27.36-.54.35-.79s-.47-.22-.7-.36a6.65,6.65,0,0,1-1.1-.78,5.23,5.23,0,0,1,1.16.53c.22.1.5.39.72.07a.66.66,0,0,0-.16-1,3.12,3.12,0,0,0-1.68-.6c-.23,0-.3.14-.39.28a5.29,5.29,0,0,1-2.3,2,13.37,13.37,0,0,1-5.26,1.57,9.39,9.39,0,0,1-1.91-.12A2,2,0,0,1,7,19c3.1,1.24,5.86.13,8.61-1.14a4.74,4.74,0,0,0,1.84-1.8c-.4.23-.71.39-1,.59a13.37,13.37,0,0,1-3.59,1.68,4,4,0,0,1-3.73-.61,1,1,0,0,1-.45-.55l0,0A6.86,6.86,0,0,0,9.91,18Z"/><path class="cls-9" d="M8.8,34.36A3.69,3.69,0,0,0,11,31.66a3.84,3.84,0,0,0-.12-1.43c-.2-.87-.34-1-1.23-1a7.27,7.27,0,0,1-2.5-.93c-.36-.17-.63-.63-1.13-.38,0,0-.11-.05-.12-.08-.15-.65-.81-.77-1.21-1.16a5.36,5.36,0,0,1-1.38-1.58C3.22,24.91,3.11,25,3,25a.5.5,0,0,0-.46.35,2.25,2.25,0,0,0,0,1.18,2.2,2.2,0,0,1,0,1,12.86,12.86,0,0,1-2.19,4.8.85.85,0,0,0,0,1.19,3,3,0,0,0,1.5,1.06,10.25,10.25,0,0,0,3.38.53A8.69,8.69,0,0,0,8.8,34.36Z"/><path class="cls-9" d="M2.19,34.9a7.47,7.47,0,0,0,3.72,2.68A1.27,1.27,0,0,0,7,37.19a6.15,6.15,0,0,0,1.35-2.32A12.07,12.07,0,0,1,2.19,34.9Z"/><path class="cls-9" d="M13.38,7.69a15.37,15.37,0,0,1,3-3.34c.16-.13.31-.24.23-.51s.12-.4.32-.3c.37.16.55-.09.75-.27a5.48,5.48,0,0,1,1.19-.9c.25-.11.3-.29,0-.45-.49-.32-1-.69-1.61-.42-.18.07-.34.15-.24.42a1,1,0,0,1-.38,1.23,24.92,24.92,0,0,0-3.61,4.64s-.05.1,0,.15Z"/><path class="cls-9" d="M8.61,15.29a1.71,1.71,0,0,0,0,1.91,1,1,0,0,0,.45.55,4,4,0,0,0,3.73.61,13.37,13.37,0,0,0,3.59-1.68c.29-.2.6-.36,1-.59a4.74,4.74,0,0,1-1.84,1.8C12.81,19.16,10.05,20.27,7,19a2,2,0,0,0,1.22.63,9.39,9.39,0,0,0,1.91.12,13.37,13.37,0,0,0,5.26-1.57,5.29,5.29,0,0,0,2.3-2c.09-.14.16-.3.39-.28a3.12,3.12,0,0,1,1.68.6.66.66,0,0,1,.16,1c-.22.32-.5,0-.72-.07A5.23,5.23,0,0,0,18,16.87a6.65,6.65,0,0,0,1.1.78c.23.14.68,0,.7.36s-.23.52-.35.79L19.3,19a12.44,12.44,0,0,1-3.2,3.19,8.26,8.26,0,0,1-3.77,1.71,14.13,14.13,0,0,1-3.55.3.88.88,0,0,0-.92.48,8.84,8.84,0,0,1,2.39-.25c.83-.14,1.37.05,1.64.89a3.07,3.07,0,0,0,.44.76.54.54,0,0,1,0,.66,16.37,16.37,0,0,1-1.53,2.08.39.39,0,0,1-.34.18,5.48,5.48,0,0,1-2.54-.59,23.12,23.12,0,0,1-3-1.94A2.42,2.42,0,0,1,3.6,23.94a4.36,4.36,0,0,0-.05-1.19,9.69,9.69,0,0,1,.1-2.52c.08-.53.31-1,.36-1.55a20.73,20.73,0,0,1,1.08-4.2,1.82,1.82,0,0,1,.62-1c.16.36.08.77.4,1.14,0-.35-.06-.6-.07-.86s-.08-.57.13-.67.33.24.5.36l.1,0c.05-.26-.16-.4-.27-.58s-.21-.31-.11-.47.28,0,.42,0l.15,0c-.61-.63-.62-.75-.25-1.61a1.62,1.62,0,0,1,.1-.18A47.29,47.29,0,0,1,9.35,6.52c1.16-1.63,2.41-3.19,3.5-4.87a6.14,6.14,0,0,1,.72-.88A1.69,1.69,0,0,1,15.24.31c.3.08.32.19.1.4-.43.43-.87.84-1.26,1.3a55.11,55.11,0,0,0-5.92,9.26,6.9,6.9,0,0,0-.33.9.79.79,0,0,0,.28-.33,77.34,77.34,0,0,1,4.64-7.77A16.91,16.91,0,0,1,15.51.8c.12-.1.22-.35.46-.17a2.62,2.62,0,0,1,1,1.65.53.53,0,0,1-.2.51,24.27,24.27,0,0,0-3.42,4.4c-.5.75-1,1.49-1.47,2.26-.15.26-.51.5-.23.93.07.11-.22.68-.29.64-.49-.28-.38.22-.48.36-.46.62-.19,1.39-.31,2.09a20.7,20.7,0,0,0-.29,4.31c0,.28-.08.34-.34.22a6.86,6.86,0,0,1-1.23-.84A3.2,3.2,0,0,1,8.61,15.29ZM7.72,24a3.27,3.27,0,0,1-1.5-3A2.37,2.37,0,0,0,7.72,24ZM5.34,14.84l.33,2.71.13,0A6.05,6.05,0,0,0,5.34,14.84Zm2.48,8.53c-.74-.49-.89-1.31-1.29-2C6.44,22.13,7.17,23.3,7.82,23.37ZM5.18,16.64a1.59,1.59,0,0,0,.18,1.47ZM10.77,25a1.87,1.87,0,0,0-1.26.09A2.7,2.7,0,0,0,10.77,25Z"/><path class="cls-9" d="M1.78,34.56A3,3,0,0,1,.28,33.5a.85.85,0,0,1,0-1.19,12.86,12.86,0,0,0,2.19-4.8,2.2,2.2,0,0,0,0-1,2.25,2.25,0,0,1,0-1.18A.5.5,0,0,1,3,25c.12,0,.23-.05.3.11a5.36,5.36,0,0,0,1.38,1.58c.4.39,1.06.51,1.21,1.16,0,0,.1.09.12.08.5-.25.77.21,1.13.38a7.27,7.27,0,0,0,2.5.93c.89.07,1,.16,1.23,1A3.84,3.84,0,0,1,11,31.66a3.69,3.69,0,0,1-2.18,2.7,8.69,8.69,0,0,1-3.64.73A10.25,10.25,0,0,1,1.78,34.56Zm5.9-2.2a2.4,2.4,0,0,0,1-.6.9.9,0,0,0-.27-1.58,11.79,11.79,0,0,1-3.18-1.67,2.76,2.76,0,0,0-1-.49c-.55-.15-.9,0-1.07.52-.29.88-.54,1.77-.89,2.64a1,1,0,0,0,.47,1.26,2.77,2.77,0,0,0,2,.48A10.41,10.41,0,0,0,7.68,32.36Z"/><path class="cls-9" d="M8.39,34.87a12.07,12.07,0,0,1-6.2,0,7.47,7.47,0,0,0,3.72,2.68A1.27,1.27,0,0,0,7,37.19,6.15,6.15,0,0,0,8.39,34.87Z"/><path class="cls-9" d="M13.17,7.94l.21-.25a15.37,15.37,0,0,1,3-3.34c.16-.13.31-.24.23-.51s.12-.4.32-.3c.37.16.55-.09.75-.27a5.48,5.48,0,0,1,1.19-.9c.25-.11.3-.29,0-.45-.49-.32-1-.69-1.61-.42-.18.07-.34.15-.24.42a1,1,0,0,1-.38,1.23,24.92,24.92,0,0,0-3.61,4.64S13.08,7.89,13.17,7.94Z"/><path class="cls-9" d="M6.22,21a2.37,2.37,0,0,0,1.5,3A3.27,3.27,0,0,1,6.22,21Z"/><path class="cls-9" d="M5.8,17.52a6.05,6.05,0,0,0-.46-2.68l.33,2.71Z"/><path class="cls-9" d="M6.53,21.36c-.09.77.64,1.94,1.29,2C7.08,22.88,6.93,22.06,6.53,21.36Z"/><path class="cls-9" d="M5.36,18.11l-.18-1.47A1.59,1.59,0,0,0,5.36,18.11Z"/><path class="cls-9" d="M8.68,17.16a3.2,3.2,0,0,1-.07-1.87,1.71,1.71,0,0,0,0,1.91Z"/><path class="cls-9" d="M9.51,25.1A2.7,2.7,0,0,0,10.77,25,1.87,1.87,0,0,0,9.51,25.1Z"/><path class="cls-9" d="M2.74,32.44a1,1,0,0,1-.47-1.26c.35-.87.6-1.76.89-2.64.17-.52.52-.67,1.07-.52a2.76,2.76,0,0,1,1,.49,11.79,11.79,0,0,0,3.18,1.67.9.9,0,0,1,.27,1.58,2.4,2.4,0,0,1-1,.6,10.41,10.41,0,0,1-3,.56A2.77,2.77,0,0,1,2.74,32.44Zm4.79-.25a2.54,2.54,0,0,0,1.22-.92c.22-.22.07-.52-.14-.72a1.23,1.23,0,0,0-.4-.23,14.26,14.26,0,0,1-3.14-1.65l-.13-.08c-1.14-.63-1.44-.5-1.76.73a9.52,9.52,0,0,1-.52,1.56,1.05,1.05,0,0,0,.53,1.61,3.24,3.24,0,0,0,1.59.23A9.58,9.58,0,0,0,7.53,32.19Z"/><path class="cls-9" d="M3.19,32.49a1.05,1.05,0,0,1-.53-1.61,9.52,9.52,0,0,0,.52-1.56c.32-1.23.62-1.36,1.76-.73l.13.08a14.26,14.26,0,0,0,3.14,1.65,1.23,1.23,0,0,1,.4.23c.21.2.36.5.14.72a2.54,2.54,0,0,1-1.22.92,9.58,9.58,0,0,1-2.75.53A3.24,3.24,0,0,1,3.19,32.49Zm1-3.4A6.15,6.15,0,0,0,7,30.26Zm1.42,2.09-1.23-.36A1.63,1.63,0,0,0,5.65,31.18Z"/><path class="cls-9" d="M7,30.26,4.23,29.09A6.15,6.15,0,0,0,7,30.26Z"/><path class="cls-9" d="M4.42,30.82a1.63,1.63,0,0,0,1.23.36Z"/></g></g></svg>