<svg xmlns="http://www.w3.org/2000/svg" xmlns:xlink="http://www.w3.org/1999/xlink" viewBox="0 0 83 55.34"><defs><style>.cls-1{opacity:0.6;fill:url(#linear-gradient);}.cls-2{fill:url(#linear-gradient-2);}.cls-3{fill:url(#linear-gradient-3);}.cls-4{fill:url(#linear-gradient-4);}.cls-5{fill:#fff;}.cls-6{fill:url(#linear-gradient-5);}.cls-7{fill:url(#linear-gradient-6);}.cls-8{fill:url(#radial-gradient);}.cls-9{fill:#9e9e9f;}.cls-10{fill:#717071;}.cls-11{fill:#231815;}.cls-12{fill:#888;}.cls-13{fill:#b4b4b5;}.cls-14{fill:#f1eff2;}</style><linearGradient id="linear-gradient" x1="27" y1="39.62" x2="74.26" y2="11.56" gradientUnits="userSpaceOnUse"><stop offset="0" stop-color="#fff"/><stop offset="0.28" stop-color="#d6d6d6"/><stop offset="1" stop-color="#6f6f6f"/></linearGradient><linearGradient id="linear-gradient-2" x1="5.57" y1="30.05" x2="63.02" y2="30.05" gradientUnits="userSpaceOnUse"><stop offset="0" stop-color="#fff"/><stop offset="0.58" stop-color="#696969"/><stop offset="1"/></linearGradient><linearGradient id="linear-gradient-3" y1="38.1" x2="66.3" y2="38.1" gradientUnits="userSpaceOnUse"><stop offset="0" stop-color="#fff"/><stop offset="0.51" stop-color="#8e8f90"/><stop offset="1" stop-color="#252729"/></linearGradient><linearGradient id="linear-gradient-4" x1="19.25" y1="35.11" x2="60.84" y2="35.11" xlink:href="#linear-gradient"/><linearGradient id="linear-gradient-5" x1="17.46" y1="21.53" x2="48.52" y2="21.53" gradientTransform="translate(4.35 -1.01) rotate(-1)" xlink:href="#linear-gradient-3"/><linearGradient id="linear-gradient-6" x1="31.44" y1="25.33" x2="52.24" y2="25.33" xlink:href="#linear-gradient"/><radialGradient id="radial-gradient" cx="72.41" cy="11.64" r="25.04" gradientTransform="translate(11.25 -23.84) rotate(22.23)" gradientUnits="userSpaceOnUse"><stop offset="0.08" stop-color="#fff"/><stop offset="0.5" stop-color="#e4e3e3"/><stop offset="1" stop-color="#bdbbbb"/></radialGradient></defs><title>shoot-home</title><g id="Шар_2" data-name="Шар 2"><g id="Objects"><path class="cls-1" d="M60.8,3.09s-35.91,7-59.6,51.33c0,0,29.89-25.2,71.07-21.81"/><path class="cls-2" d="M63,14.25l-.19,0-.54.09c-.47.09-1.17.23-2.06.43s-1.95.48-3.17.82S54.47,16.4,53,16.9s-3.06,1.1-4.72,1.77-3.4,1.41-5.17,2.24-3.58,1.73-5.41,2.68c-.9.49-1.82,1-2.72,1.48l-1.36.77-.68.39-.67.4c-.9.54-1.8,1.06-2.68,1.62S27.82,29.34,27,29.92,25.25,31,24.42,31.61l-1.24.85-.61.42-.6.43c-.79.58-1.58,1.13-2.33,1.7s-1.49,1.12-2.21,1.66S16,37.76,15.37,38.28l-1,.77-.92.77c-.61.49-1.19,1-1.74,1.43s-1.06.9-1.54,1.32c-1,.83-1.81,1.55-2.48,2.17L5.57,46.67l2.11-2c.67-.62,1.5-1.36,2.46-2.2.48-.42,1-.88,1.53-1.34l1.71-1.45.92-.78,1-.78c.66-.53,1.33-1.09,2-1.64l2.19-1.69c.75-.58,1.53-1.14,2.32-1.73l.59-.44.61-.43,1.23-.86c.82-.6,1.68-1.16,2.53-1.73s1.73-1.14,2.6-1.71,1.77-1.11,2.66-1.66l.67-.41.68-.39,1.35-.79c.91-.53,1.82-1,2.72-1.53,1.82-1,3.62-1.91,5.4-2.75s3.51-1.62,5.17-2.32,3.25-1.31,4.73-1.84,2.86-1,4.09-1.34,2.3-.66,3.2-.87,1.61-.37,2.09-.46l.57-.1.19,0Z"/><path class="cls-3" d="M66.3,22.51l-.2,0-.61,0c-.53,0-1.33.12-2.33.26s-2.23.34-3.63.61-3,.63-4.67,1.06-3.52,1-5.44,1.58-3.93,1.32-6,2.12-4.14,1.69-6.25,2.63c-1,.49-2.11,1-3.16,1.49l-1.58.78-.78.4c-.27.13-.52.27-.78.41-1,.55-2.09,1.08-3.11,1.67s-2,1.13-3,1.73-2,1.17-2.95,1.78l-1.43.9-.71.45-.69.45c-.92.62-1.83,1.2-2.71,1.8L13.7,44.48c-.83.58-1.61,1.17-2.38,1.73L10.19,47l-1.07.83-2,1.55c-.64.49-1.22,1-1.78,1.44-1.11.9-2.09,1.69-2.87,2.37L0,55.34l2.42-2.17c.76-.69,1.72-1.5,2.81-2.43.55-.46,1.13-1,1.75-1.48l2-1.59c.34-.28.69-.57,1-.85L11.13,46c.76-.58,1.53-1.19,2.35-1.79L16,42.32c.87-.62,1.77-1.23,2.68-1.86l.68-.48.7-.46,1.42-.93c.95-.64,1.94-1.23,2.92-1.85s2-1.21,3-1.81,2.06-1.17,3.09-1.75l.77-.43.79-.41,1.56-.83c1.05-.54,2.11-1.05,3.15-1.57,2.11-1,4.2-2,6.26-2.78s4.06-1.61,6-2.28,3.77-1.24,5.48-1.72,3.31-.88,4.73-1.19,2.66-.54,3.69-.7,1.86-.27,2.42-.33l.65-.06h.23Z"/><path class="cls-4" d="M60.84,28.54h-.49L59,28.62l-1,.09-1.17.12-.64.07-.68.1c-.47.07-1,.13-1.47.22-1,.18-2.12.35-3.28.61-.58.13-1.18.24-1.78.38l-1.85.46c-.63.14-1.26.32-1.9.5l-1.94.55-2,.62-1,.31c-.33.11-.66.21-1,.33l-2,.7c-.64.24-1.29.45-1.92.72l-1.87.75-.92.37-.46.18-.44.2-3.41,1.51c-1.08.5-2.08,1-3,1.46L24,39.53c-.42.2-.81.43-1.18.62l-1.92,1-1.67.9,1.66-.91,1.91-1.05c.37-.2.76-.43,1.18-.64l1.33-.66c.93-.46,1.92-1,3-1.49l3.4-1.55.45-.2.45-.19.92-.38,1.87-.77c.63-.27,1.27-.49,1.92-.73l1.94-.72c.32-.13.65-.24,1-.34l1-.32,2-.65,2-.56c.64-.19,1.27-.38,1.9-.53l1.85-.47c.6-.15,1.2-.27,1.78-.4,1.16-.27,2.27-.45,3.29-.65l1.48-.23.68-.1.65-.08,1.17-.14,1-.09c.61,0,1.08-.08,1.41-.09h.5Z"/><path class="cls-5" d="M53,27.37l-.4.06c-.25,0-.63.1-1.11.19l-.79.17-.92.21-.51.13-.54.14-1.16.32c-.79.25-1.67.5-2.57.82l-1.39.48-1.44.55c-.49.18-1,.39-1.48.6l-1.5.63-1.51.69-.76.35-.75.36-1.5.76c-.49.25-1,.49-1.47.76l-1.43.79-.7.39-.35.19-.34.21-2.59,1.55c-.81.51-1.56,1-2.27,1.47l-1,.66c-.32.21-.61.43-.89.62l-1.44,1L21,42.38l1.24-.9,1.43-1c.28-.2.56-.42.88-.63l1-.67c.7-.46,1.45-1,2.26-1.49s1.68-1,2.58-1.58l.33-.21.35-.2.7-.39,1.43-.8c.47-.28,1-.53,1.46-.79l1.49-.77.75-.37.76-.35,1.51-.71,1.5-.65c.49-.21,1-.43,1.47-.61l1.44-.56c.48-.19,1-.34,1.4-.5.9-.34,1.77-.59,2.57-.85L48.68,28l.54-.15.52-.13.92-.23.8-.17,1.12-.21L53,27Z"/><path class="cls-5" d="M52.5,14.39l-.39.08c-.26,0-.63.12-1.1.23l-.79.2-.91.25-.51.14-.53.17-1.14.36c-.79.28-1.65.56-2.54.92l-1.38.53-1.41.61c-.49.19-1,.42-1.46.65l-1.48.69L37.38,20l-.74.37-.74.39-1.47.82c-.48.27-1,.53-1.44.82l-1.4.84-.69.41-.34.21-.33.21L27.71,25.7c-.8.54-1.53,1.07-2.21,1.55l-1,.7c-.31.22-.59.45-.86.65l-1.4,1.08L21,30.61l1.21-.94,1.39-1.09c.27-.21.55-.44.86-.66l1-.71c.69-.49,1.41-1,2.2-1.58L30.18,24l.33-.22.33-.21.69-.42,1.39-.86c.47-.3,1-.56,1.44-.84l1.46-.82.73-.4.75-.39L38.77,19l1.48-.71c.49-.23,1-.46,1.45-.66l1.42-.62c.46-.2.93-.37,1.37-.55.89-.37,1.76-.66,2.55-.95l1.14-.37.54-.17.5-.15.92-.26.79-.21c.48-.11.85-.2,1.12-.25l.39-.08Z"/><path class="cls-6" d="M53.12,12.7l-.38.1c-.23,0-.59.15-1.05.28s-1,.29-1.65.5l-1,.33-1.12.39-.6.21-.61.24-1.29.49-1.35.56-.69.29-.71.32-1.43.65c-.49.22-1,.48-1.46.71s-1,.48-1.47.74l-1.46.79-.73.4c-.24.13-.48.28-.72.42L34,21c-.23.15-.47.28-.7.42l-.68.44-1.33.86c-.22.15-.44.28-.65.43l-.62.44-1.2.85-.58.41c-.19.13-.38.27-.55.41l-1,.8-.94.74c-.3.23-.59.45-.84.68l-1.34,1.15-1.16,1,1.09-1.09,1.25-1.24c.24-.25.52-.48.8-.74l.9-.81,1-.87a5.72,5.72,0,0,1,.53-.45l.55-.46L29.58,23l.6-.48L30.8,22l1.29-1,.65-.49.68-.47,1.38-.95.69-.47.72-.45,1.42-.9c.48-.31,1-.58,1.44-.86s1-.57,1.43-.82l1.42-.77c.23-.13.46-.26.69-.37l.7-.35,1.33-.67,1.29-.6.61-.28.6-.26,1.12-.49,1-.41c.64-.26,1.22-.46,1.68-.64s.85-.3,1.12-.38l.4-.13Z"/><path class="cls-7" d="M52.24,22.22l-.25,0-.68.11c-.3.05-.66.11-1.08.2l-.67.14-.73.17c-.52.12-1.07.28-1.66.43l-.89.26-.94.29-1,.32-1,.35c-.32.13-.66.24-1,.37l-1,.41-.5.2-.49.22-1,.43c-.32.14-.64.3-.94.46l-.91.45-.45.23-.43.24-.82.46c-.27.15-.54.29-.78.45l-.71.44c-.46.29-.89.54-1.25.79l-.93.64-.82.57.75-.65.87-.75c.33-.29.73-.58,1.15-.92l.67-.52c.23-.18.49-.35.74-.53L36.4,27l.4-.29.43-.27.87-.56q.43-.3.9-.57l.94-.55.47-.27.48-.26,1-.52,1-.49c.33-.15.64-.32,1-.47l1-.43.93-.4.89-.37c.59-.22,1.15-.45,1.67-.63l.75-.26.68-.22c.43-.15.82-.25,1.13-.34s.56-.16.75-.2l.27-.07Z"/><circle class="cls-8" cx="66.29" cy="16.71" r="16.71" transform="translate(-1.4 26.32) rotate(-22.23)"/><polygon class="cls-9" points="62.97 18 70.88 15.31 70.93 15.45 63.02 18.14 62.97 18 62.97 18"/><path class="cls-10" d="M61.15,24.16h0l.11-.1s.73.89,1.84,2h0a18.32,18.32,0,0,0,4.18,3v.19l-.07,0a20.63,20.63,0,0,1-6.06-5.09Z"/><path class="cls-9" d="M73.15,27.36a20.29,20.29,0,0,0,2-5.61h0a15.81,15.81,0,0,0,.32-2.49h.15a20,20,0,0,1-2.33,8.17h0l-.13-.07Z"/><path class="cls-11" d="M58,13.3A18,18,0,0,1,59.8,6.24h0l.13.07A19.94,19.94,0,0,0,59,8.52h0a15.4,15.4,0,0,0-.9,4.78h0c0,.25,0,.49,0,.73H58c0-.24,0-.49,0-.74Z"/><path class="cls-12" d="M68.59,5.74a22.72,22.72,0,0,0-2.35-1.49h0l.07-.13s4.27,2.24,6.08,5.25h0l-.13.08a13.79,13.79,0,0,0-3.67-3.71Z"/><path class="cls-11" d="M54.46,27.58a8.55,8.55,0,0,1,1.2-4.18h0l.12.08a7.24,7.24,0,0,0-.58,1.2h0a8.08,8.08,0,0,0-.59,2.9h0a5.21,5.21,0,0,0,0,.55h0l-.15,0q0-.3,0-.57Z"/><path class="cls-13" d="M80.36,16.65a4.84,4.84,0,0,0-1-.6h0l0-.14a7,7,0,0,1,3.18,2.94h0l-.13.08a8,8,0,0,0-2-2.28Z"/><path class="cls-9" d="M77.66,10a12.7,12.7,0,0,0,.54-3.73h0c0-.24,0-.48,0-.74h.08c0,.25,0,.5,0,.74h0A12.55,12.55,0,0,1,77.73,10h0l-.07,0Z"/><path class="cls-11" d="M50.25,14.37l.13-.07A9.14,9.14,0,0,0,52.18,16h0c.75.59,1.43,1.06,1.43,1.06h0l-.08.13a17.53,17.53,0,0,1-3.28-2.84Z"/><path class="cls-11" d="M51.1,9.77a12.65,12.65,0,0,1,6.14-5.66h0l0,.07a8.55,8.55,0,0,0-2.07,1.13h0a14.17,14.17,0,0,0-4,4.48h0l-.06,0Z"/><path class="cls-5" d="M67.1,1.23a19.67,19.67,0,0,1,7.76,1.19S70.66.56,67.1,1Z"/><path class="cls-9" d="M75.71,29a5.63,5.63,0,0,0,2.93-1.37,6.68,6.68,0,0,1-3,1.67Z"/><path class="cls-9" d="M66.45,31.83a15.16,15.16,0,0,1-4.46.79,14.92,14.92,0,0,0,4.55-.53Z"/><path d="M56.65,4.31A14.25,14.25,0,0,1,62,.57,12.64,12.64,0,0,1,67.45,1l-.9,3.43A27.53,27.53,0,0,0,59.64,6.6Z"/><path d="M58,13.22a54.63,54.63,0,0,0,5.32,4.67s-1.54,4.93-1.74,6.52a13.3,13.3,0,0,1-6.22-.5,15.64,15.64,0,0,1-2.14-7S56,14,58,13.22Z"/><path d="M66.8,28.89s4.38-.4,6.82-2.34A13,13,0,0,0,76.1,29s-2.55,3-4.61,3.57a11.74,11.74,0,0,1-5.78-.43A11,11,0,0,0,66.8,28.89Z"/><path class="cls-11" d="M71.92,8.94s-1,4.67-1.59,6.56c0,0,3.53,2.94,5.13,4.53,0,0,3.78-2.29,4.27-3.83a12.8,12.8,0,0,0-1.89-6.76A8.15,8.15,0,0,0,71.92,8.94Z"/><path d="M72.19,9.21s-.94,4.44-1.51,6.24c0,0,3.36,2.78,4.87,4.3,0,0,3.59-2.18,4.06-3.64a12.24,12.24,0,0,0-1.79-6.43A7.8,7.8,0,0,0,72.19,9.21Z"/><path d="M51.43,9.05a16.7,16.7,0,0,0-1.86,7.66s0,.06,0,.09a7,7,0,0,1,1-2.24A19,19,0,0,1,51.43,9.05Z"/><path d="M54.61,27.44a9.66,9.66,0,0,1-2-1.16,16.82,16.82,0,0,0,8.06,6.17C58.94,31.62,56,29.91,54.61,27.44Z"/><path d="M81.77,23a16.48,16.48,0,0,0,1.23-6,4.1,4.1,0,0,1-.73,1.59A27.79,27.79,0,0,1,81.77,23Z"/><path d="M78.24,5.9c1.14.44,2.26,2.06,3,3.32a16.73,16.73,0,0,0-6.9-7.16A22.54,22.54,0,0,1,78.24,5.9Z"/><path class="cls-5" d="M64.18,17.9,69.68,16a1.45,1.45,0,0,1,1.27.25l3.74,3.25c.32.27.3.29,0,0l-3.73-2.83a1.76,1.76,0,0,0-1.32-.26L64.19,18C63.79,18.05,63.79,18,64.18,17.9Z"/><path class="cls-5" d="M57.81,13.1s.34-4.4,1.75-6.49L56.73,4.52l2.46,2.13A16.19,16.19,0,0,0,57.81,13.1Z"/><path class="cls-14" d="M56.62,4.24A10.23,10.23,0,0,1,61,.92,8.4,8.4,0,0,0,56.62,4.24Z"/><path class="cls-14" d="M61.35,24.58a19.18,19.18,0,0,0,5.3,4.52A9.24,9.24,0,0,1,65.71,32a14,14,0,0,0,.71-2.77A14.06,14.06,0,0,1,61.35,24.58Z"/><path class="cls-14" d="M73.52,26.5a22,22,0,0,0,1.75-6.38,38.88,38.88,0,0,1-1.72,5.8,2,2,0,0,1-.61.69,17.78,17.78,0,0,1-6,2.13A13.53,13.53,0,0,0,73.52,26.5Z"/><path class="cls-5" d="M75.64,20s3.36-1.94,4.11-3.62C79.75,16.39,79.11,18.48,75.64,20Z"/></g></g></svg>