<svg xmlns="http://www.w3.org/2000/svg" viewBox="0 0 222.05 349.24"><defs><style>.cls-1{fill:#e7d32a;}.cls-2{fill:#f3d4c5;}.cls-3{fill:#e9c1b1;}.cls-4{fill:#cea191;}.cls-5{fill:#e9d73f;}.cls-6{fill:#d3c91b;}</style></defs><title>yellow-card</title><g id="Шар_2" data-name="Шар 2"><g id="Шар_1-2" data-name="Шар 1"><path class="cls-1" d="M36.92,146l-35-73.78C-1.95,64.08,0,58.54,8.1,54.68L118.3,2.12c8.8-4.19,13.94-2.27,18.19,6.67q41.67,87.47,83.36,174.92c4.29,9,2.44,14.16-6.65,18.49Q187.58,214.43,162,226.65c-1.21.58-2.3,1.39-3.45,2.09-2.7,2.25-5.47,4.31-9.32,3.48-1.73-1.26-2.21-3.24-2.89-5.08a110.07,110.07,0,0,1-6-28.66c-1.08-12.34-2.72-24.63-4-36.95a18.45,18.45,0,0,0-.47-2.55c-2-8.51-6.23-11.44-15-10.46-3.75.29-7.69-1.34-11.24,1.07a12.86,12.86,0,0,0-5.66,9.57,59.59,59.59,0,0,0-.59,8.12c0,13.6,0,27.19,0,40.79a20.3,20.3,0,0,1-3.55,11.86c-4.68,6.89-11.16,9.29-19.34,7.13-5.34-2.41-8.73-6.65-11.3-11.77-10.64-21.19-20.25-42.88-30.9-64.08A11,11,0,0,1,36.92,146Z"/><path class="cls-2" d="M79.8,225.83c12,3.36,22.28-4.48,22.46-17.44.21-15.24,0-30.49.09-45.74,0-5.87,1-11.46,7.14-14.34,3.45,1.14,4.9,4,6,7.11,1.94,5.69,1.9,11.7,2.73,17.58,1.95,13.84,2.29,27.89,5.2,41.61a74.38,74.38,0,0,0,7.68,21.22,93.75,93.75,0,0,1,7.71,17.67c6.14,19.32,1.43,36.12-11.94,50.79a11.65,11.65,0,0,0-3.47,8.58c.14,9.66.06,19.32,0,29,0,1.84.22,3.75-1.2,5.29-17.31,3.26-34.51,2.54-51.76-.87-5.26-1-7.15-3.07-6.3-8.22,4.26-25.65-6.92-47.42-17.2-69.55-9.38-20.19-18.24-40.62-26.84-61.15-2.73-6.51-2.16-13.73.41-20.37,5.31-13.73,10.93-27.33,16.42-41,.74,1.54,1.48,3.09,2.23,4.63,1.17,14.88,1.92,29.8,7.26,44,3.44,9.17,8.05,17.44,15.88,23.69C67.48,222.47,73.49,224.43,79.8,225.83Z"/><path class="cls-3" d="M122.19,347.14q0-18.39,0-36.78c0-1.63,0-3.11,1.36-4.43,22.73-22.84,19.73-45.67,6-70.61-6-10.81-8.19-22.61-9.56-34.68-1.67-14.66-3.49-29.3-5.29-43.94-.43-3.55-3.25-5.71-5.16-8.39,3.58-2.39,7.24-1.62,10.91-.27,3.95.5,5.42,3.58,6.65,6.67,2.33,5.84,2.14,12.14,3,18.25,2,13.95,2.31,28.11,5.27,41.94a72.92,72.92,0,0,0,7.4,20.51c2.53,5.14,5.21,10.22,7,15.69a8.89,8.89,0,0,1,.83,3.9c3.46,14.47,1.8,28.13-6.42,40.77-2.43,3.73-4.78,7.53-8.52,10.13-1.6,1.12-1.52,2.68-1.52,4.3,0,8.29,0,16.58,0,24.88C134.12,346.84,134.12,346.84,122.19,347.14Z"/><path class="cls-4" d="M150.56,255q-4.14-9.37-8.29-18.74c1.81-2.83,4.74-3.62,7.74-4.31l8.5-3.21C164.81,240.7,161.81,250.59,150.56,255Z"/><path class="cls-5" d="M111.25,87.51A336.15,336.15,0,0,0,22.4,98.15c-2.86.72-4.26.25-5.51-2.42-4-8.53-8.11-17-12.28-25.42-2.95-5.94-1-9.92,4.66-12.63q47-22.33,93.87-44.7c6-2.88,12-5.9,18.1-8.64,4.57-2,8.64-1.27,11,3.55Q152,49.07,171.56,90.32a10.72,10.72,0,0,1,.52,2.06,11.67,11.67,0,0,1-2.13,0C150.09,88.94,130.11,86.94,111.25,87.51Z"/><path class="cls-6" d="M150,232l-7.74,4.31c-6.89-10.71-8.92-22.86-10.34-35.17-1.58-13.75-3-27.53-4.59-41.28A16,16,0,0,0,120.4,148c8.53-4.29,16.15,3.25,17.59,15.32,2.5,21.08,2.21,42.62,9.35,63A55.82,55.82,0,0,0,150,232Z"/><path class="cls-3" d="M79.8,225.83c-5.84.95-10.77-1.56-15.32-4.57-14.76-9.76-20.06-25.11-23.2-41.34-1.71-8.88-2.14-18-3.05-27.06-.07-.7.59-1.48.92-2.23q14.88,31,29.75,61.93C71.46,217.92,74.68,222.63,79.8,225.83Z"/></g></g></svg>