<?xml version="1.0" encoding="utf-8"?>
<!-- Generator: Adobe Illustrator 23.0.2, SVG Export Plug-In . SVG Version: 6.00 Build 0)  -->
<svg version="1.1" id="Layer_1" xmlns="http://www.w3.org/2000/svg" xmlns:xlink="http://www.w3.org/1999/xlink" x="0px" y="0px"
	 viewBox="0 0 2160 1380" style="enable-background:new 0 0 2160 1380;" xml:space="preserve">
<style type="text/css">
	.st0{enable-background:new    ;}
	.st1{clip-path:url(#SVGID_2_);}
	.st2{fill:#01BA5C;}
	.st3{clip-path:url(#SVGID_4_);}
	.st4{clip-path:url(#SVGID_6_);fill:#00AE55;}
	.st5{clip-path:url(#SVGID_8_);fill:#00AE55;}
	.st6{clip-path:url(#SVGID_10_);fill:#00AE55;}
	.st7{clip-path:url(#SVGID_12_);fill:#00AE55;}
	.st8{clip-path:url(#SVGID_14_);fill:#00AE55;}
	.st9{clip-path:url(#SVGID_16_);fill:#00AE55;}
	.st10{clip-path:url(#SVGID_18_);}
	.st11{clip-path:url(#SVGID_20_);fill:#FFFFFF;}
	.st12{opacity:0.102;}
	.st13{fill-rule:evenodd;clip-rule:evenodd;}
	.st14{clip-path:url(#SVGID_22_);}
	.st15{fill:#CECECE;}
	.st16{clip-path:url(#SVGID_24_);}
	.st17{clip-path:url(#SVGID_26_);}
	.st18{clip-path:url(#SVGID_28_);}
	.st19{clip-path:url(#SVGID_30_);}
	.st20{clip-path:url(#SVGID_32_);}
	.st21{clip-path:url(#SVGID_34_);}
	.st22{clip-path:url(#SVGID_36_);}
	.st23{fill:none;stroke:#FFFFFF;stroke-width:7.89;stroke-miterlimit:10;}
	.st24{fill:#FFFFFF;}
	.st25{fill:#37003C;}
</style>
<g id="Pitch_Layers_1_">
	<g id="Outer_pitch_green">
		<g class="st0">
			<g>
				<defs>
					<polygon id="SVGID_1_" points="1.7,1380.3 392.7,73.1 1767.3,73.1 2158.3,1380.3 					"/>
				</defs>
				<clipPath id="SVGID_2_">
					<use xlink:href="#SVGID_1_"  style="overflow:visible;"/>
				</clipPath>
				<g class="st1">
					<polyline class="st2" points="1767.3,73.1 392.7,73.1 1.7,1380.3 2158.3,1380.3 1767.3,73.1 					"/>
				</g>
			</g>
		</g>
	</g>
	<g id="Mow_lines_clipped">
		<g class="st0">
			<g>
				<defs>
					<polygon id="SVGID_3_" points="36.7,1379.6 402,129.5 1754.5,129.5 2119.7,1379.6 					"/>
				</defs>
				<clipPath id="SVGID_4_">
					<use xlink:href="#SVGID_3_"  style="overflow:visible;"/>
				</clipPath>
				<g class="st3">
					<g>
						<g>
							<defs>
								<polyline id="SVGID_5_" points="402,129.5 36.7,1379.6 2119.7,1379.6 1754.5,129.5 402,129.5 								"/>
							</defs>
							<clipPath id="SVGID_6_">
								<use xlink:href="#SVGID_5_"  style="overflow:visible;"/>
							</clipPath>
							<path class="st4" d="M1079.3,866.5c-48.9,0-95.8,7.8-138.9,22c-43.5,14.3-83.7,35.3-118.5,61.6
								c-35.4,26.8-65.6,59.2-88.3,96.1c-23.2,37.7-38.8,80.2-44.1,126c-2.1,18.3-2.5,36.5-1.3,54.4c1.2,18.1,4.1,35.9,8.6,53.3
								c4.5,17.6,10.6,34.8,18.2,51.4c7.7,16.8,16.9,32.9,27.5,48.4h277.6c-10.5-2.4-20.7-5.5-30.6-9.2c-9.9-3.7-19.5-8-28.7-12.8
								c-9.2-4.9-18-10.3-26.4-16.3s-16.3-12.5-23.8-19.5c-11-10.4-20.6-21.5-28.8-33.3c-8.1-11.7-14.8-24-19.9-36.8
								c-5.1-12.7-8.8-25.8-10.9-39.1c-2.1-13.3-2.7-26.8-1.8-40.4c0.9-13.5,3.3-26.7,7.1-39.5c3.8-12.6,8.9-24.9,15.3-36.5
								c6.4-11.6,14-22.6,22.9-32.9c8.8-10.3,18.7-19.8,29.8-28.6c10.8-8.6,22.3-16.2,34.4-22.7c12.1-6.5,24.7-12,37.8-16.4
								s26.6-7.8,40.4-10c13.8-2.2,28-3.4,42.4-3.4s28.5,1.1,42.4,3.4c13.9,2.2,27.4,5.6,40.5,10s25.8,9.9,37.8,16.4
								c12.1,6.5,23.6,14.1,34.4,22.7c11.1,8.8,21,18.4,29.8,28.6c8.8,10.3,16.5,21.3,22.9,32.9s11.6,23.8,15.4,36.5
								s6.2,25.9,7.2,39.5c0.9,13.6,0.3,27.1-1.8,40.4c-2.1,13.4-5.8,26.5-10.9,39.1c-5.2,12.8-11.8,25.1-19.9,36.8
								c-8.1,11.8-17.8,23-28.8,33.3c-7.4,7-15.4,13.5-23.8,19.5s-17.2,11.4-26.4,16.3c-9.2,4.9-18.8,9.1-28.7,12.8
								c-9.9,3.7-20.1,6.7-30.6,9.2h277.6c10.6-15.5,19.8-31.6,27.4-48.4c7.6-16.6,13.7-33.8,18.2-51.4c4.4-17.4,7.3-35.2,8.5-53.3
								c1.2-17.9,0.8-36.1-1.3-54.4c-5.3-45.8-20.9-88.3-44.2-126c-22.7-36.9-52.9-69.3-88.3-96.1c-34.8-26.3-75-47.3-118.5-61.6
								C1175.1,874.2,1128.3,866.5,1079.3,866.5"/>
						</g>
						<g>
							<defs>
								<polyline id="SVGID_7_" points="402,129.5 36.7,1379.6 2119.7,1379.6 1754.5,129.5 402,129.5 								"/>
							</defs>
							<clipPath id="SVGID_8_">
								<use xlink:href="#SVGID_7_"  style="overflow:visible;"/>
							</clipPath>
							<path class="st5" d="M1079.3,658c-82.3,0-161.4,12.2-234.8,34.6c-74.6,22.8-144.4,56.3-206.4,98.9
								c-63.8,43.8-119.9,97.7-164.5,159.9c-46.4,64.7-80.8,139-97.9,220.8c-3.6,17.2-6.4,34.4-8.3,51.5c-2,17.3-3.1,34.6-3.5,51.9
								c-0.3,17.4,0.2,34.8,1.5,52.1c1.3,17.4,3.5,34.8,6.4,52h181.5c-0.3-1-0.7-2-1-3s-0.7-2-1-3s-0.7-2-1-3s-0.6-2-1-3
								c-5.1-16.3-9.2-32.6-12.3-49.1c-3.1-16.3-5.2-32.7-6.3-49.1c-1.1-16.3-1.3-32.5-0.5-48.8c0.8-16.1,2.5-32.3,5.1-48.4
								c2.6-16,6-31.6,10.3-47c4.2-15.2,9.3-30.2,15.1-44.9c5.8-14.5,12.4-28.8,19.7-42.7c7.3-13.8,15.3-27.3,24.1-40.5
								c8.4-12.6,17.4-24.8,26.9-36.5s19.5-22.9,30.1-33.7c10.5-10.7,21.5-21.1,33.1-31c11.5-9.8,23.5-19.3,35.9-28.3
								c12.4-8.9,25.1-17.3,38.1-25.1c12.9-7.8,26.2-15.1,39.8-21.8c13.5-6.7,27.3-12.9,41.4-18.6c14.1-5.7,28.4-10.8,43-15.4
								c15-4.8,30.2-8.9,45.5-12.5s30.7-6.5,46.3-8.9c15.5-2.4,31.2-4.1,47-5.3s31.7-1.8,47.7-1.8s31.9,0.6,47.7,1.8
								c15.8,1.2,31.5,3,47,5.3c15.6,2.4,31,5.3,46.3,8.9c15.3,3.6,30.5,7.7,45.5,12.5c14.6,4.6,29,9.8,43,15.4
								c14.1,5.7,27.9,11.9,41.4,18.6c13.6,6.8,26.8,14,39.8,21.8s25.7,16.2,38.1,25.1c12.5,9,24.5,18.4,36,28.3
								c11.6,9.9,22.6,20.2,33.1,31c10.6,10.8,20.6,22.1,30.1,33.7c9.5,11.7,18.5,23.9,26.9,36.5c8.8,13.2,16.8,26.7,24.1,40.5
								c7.4,13.9,13.9,28.1,19.7,42.7c5.9,14.7,10.9,29.6,15.1,44.9c4.3,15.4,7.7,31.1,10.3,47c2.6,16.1,4.3,32.2,5.1,48.4
								c0.8,16.3,0.6,32.6-0.5,48.8c-1.1,16.4-3.2,32.8-6.3,49.1c-3.1,16.5-7.2,32.8-12.3,49.1c-0.3,1-0.6,2-1,3c-0.3,1-0.7,2-1,3
								s-0.7,2-1,3s-0.7,2-1,3h181.5c3-17.2,5.1-34.5,6.4-52c1.3-17.3,1.8-34.6,1.4-52.1c-0.3-17.3-1.5-34.6-3.5-51.9
								c-2-17.2-4.8-34.3-8.4-51.5c-17.2-81.8-51.6-156.1-98-220.8c-44.6-62.1-100.9-116-164.6-159.9
								c-62-42.6-131.8-76.1-206.4-98.9C1240.6,670.2,1161.5,658,1079.3,658"/>
						</g>
						<g>
							<defs>
								<polyline id="SVGID_9_" points="402,129.5 36.7,1379.6 2119.7,1379.6 1754.5,129.5 402,129.5 								"/>
							</defs>
							<clipPath id="SVGID_10_">
								<use xlink:href="#SVGID_9_"  style="overflow:visible;"/>
							</clipPath>
							<path class="st6" d="M1079.2,476.2c-93,0-183.1,10.8-268.6,30.9c-86.8,20.4-170.1,50.8-247.6,89.8
								c-79.8,40.1-154.5,89.9-221.3,148.3C272.1,806,210.4,876.7,160.4,956.3L36.7,1379.6h163.5c-0.9-17.7-1.1-35.4-0.6-53.1
								c0.5-17.5,1.6-34.9,3.5-52.3c1.8-17.2,4.2-34.4,7.3-51.5c3-16.9,6.7-33.8,11-50.5c6.4-25,14-49.4,22.9-73.3
								c8.7-23.5,18.6-46.5,29.7-68.8c10.9-22.1,22.9-43.6,36-64.5c12.9-20.7,26.9-40.8,41.9-60.4c7.1-9.3,14.5-18.5,22.1-27.5
								c7.5-9,15.3-17.8,23.3-26.4c7.9-8.6,16-17.1,24.3-25.3s16.7-16.3,25.3-24.2c8.5-7.8,17.1-15.4,26-22.8
								c8.8-7.4,17.7-14.7,26.8-21.7c9.1-7,18.3-13.9,27.6-20.6c9.3-6.7,18.8-13.1,28.3-19.4c9.5-6.3,19.2-12.3,29-18.3
								c9.7-5.9,19.6-11.6,29.6-17.1c9.9-5.5,20-10.8,30.2-16c10.1-5.1,20.3-10,30.6-14.8s20.8-9.3,31.3-13.7s21.1-8.6,31.8-12.6
								c10.6-4,21.4-7.8,32.1-11.4c10.8-3.6,21.6-7,32.4-10.2c22.5-6.6,45.1-12.4,67.9-17.3c22.7-4.9,45.6-9,68.6-12.3
								s46.1-5.7,69.5-7.3c23.3-1.6,46.8-2.4,70.4-2.4s47.1,0.8,70.4,2.4c23.3,1.6,46.5,4.1,69.5,7.3c23,3.3,45.9,7.4,68.6,12.3
								c22.8,4.9,45.5,10.7,67.9,17.3c10.9,3.2,21.7,6.6,32.4,10.2c10.8,3.6,21.5,7.4,32.1,11.4c10.7,4,21.3,8.2,31.8,12.6
								c10.5,4.4,21,9,31.3,13.7s20.5,9.7,30.6,14.8c10.2,5.1,20.2,10.5,30.2,16s19.9,11.2,29.6,17.1c9.8,5.9,19.5,12,29,18.3
								c9.6,6.3,19,12.8,28.3,19.4c9.4,6.7,18.6,13.6,27.6,20.6c9.1,7.1,18.1,14.3,26.9,21.7s17.5,15.1,26,22.8
								c8.6,7.9,17.1,16,25.3,24.2c8.3,8.3,16.4,16.7,24.3,25.3c8,8.7,15.7,17.5,23.3,26.4c7.6,9,15,18.2,22.1,27.5
								c15,19.6,29,39.7,42,60.4c13.1,20.9,25.2,42.5,36.1,64.5c11.1,22.4,21,45.3,29.8,68.8c8.9,23.8,16.5,48.3,22.9,73.3
								c4.3,16.8,8,33.6,11,50.5c3.1,17.1,5.5,34.3,7.4,51.5c1.8,17.4,3,34.8,3.5,52.3c0.5,17.7,0.3,35.4-0.5,53.1h160.9l-125.6-430
								c-50.3-78.4-112-148.2-181.3-208.1c-66.6-57.6-141-106.7-220.4-146.3c-77.2-38.5-160-68.4-246.2-88.6
								C1261.1,486.9,1171.6,476.2,1079.2,476.2"/>
						</g>
						<g>
							<defs>
								<polyline id="SVGID_11_" points="402,129.5 36.7,1379.6 2119.7,1379.6 1754.5,129.5 402,129.5 								"/>
							</defs>
							<clipPath id="SVGID_12_">
								<use xlink:href="#SVGID_11_"  style="overflow:visible;"/>
							</clipPath>
							<path class="st7" d="M1079.1,316.2c-72.4,0-143.3,5-212.2,14.5c-69.5,9.6-137.5,23.9-203.5,42.6
								c-67,18.9-132.3,42.4-195.4,70.1c-64.4,28.3-126.9,61.3-186.5,98.6l-45.3,155.1c1-0.9,2.1-1.8,3.1-2.7s2.1-1.8,3.1-2.7
								s2.1-1.8,3.1-2.6c1-0.9,2.1-1.8,3.2-2.6c11.8-9.8,23.8-19.4,36-28.7c12.1-9.3,24.4-18.4,36.9-27.2
								c12.4-8.8,24.9-17.4,37.6-25.7c12.6-8.3,25.4-16.3,38.3-24.1c12.8-7.8,25.8-15.3,38.9-22.6c13-7.3,26.2-14.3,39.5-21.1
								c13.2-6.8,26.6-13.3,40-19.6c13.4-6.3,26.9-12.3,40.4-18.1c13.6-5.8,27.4-11.4,41.2-16.8c13.8-5.3,27.6-10.4,41.6-15.3
								c13.9-4.8,27.9-9.5,41.9-13.8c14-4.4,28.1-8.5,42.2-12.4c14.3-3.9,28.7-7.6,43.1-11.1c14.4-3.4,28.9-6.6,43.4-9.6
								s29.1-5.7,43.7-8.1c14.6-2.5,29.2-4.7,43.8-6.7c15-2,30-3.8,45.2-5.3c15.1-1.5,30.2-2.8,45.4-3.8s30.4-1.8,45.6-2.3
								s30.5-0.8,45.7-0.8s30.5,0.3,45.7,0.8s30.4,1.3,45.6,2.3s30.3,2.3,45.4,3.8s30.2,3.3,45.2,5.3c14.6,2,29.2,4.2,43.8,6.7
								c14.6,2.5,29.2,5.2,43.7,8.1c14.5,3,29,6.2,43.5,9.6s28.9,7.1,43.2,11.1c14.1,3.9,28.2,8,42.2,12.4s28,9,41.9,13.8
								c14,4.9,27.8,10,41.6,15.3c13.8,5.4,27.6,10.9,41.2,16.8c13.6,5.8,27.1,11.8,40.5,18.1c13.5,6.3,26.8,12.8,40,19.6
								c13.3,6.8,26.5,13.8,39.5,21.1c13.1,7.3,26.1,14.8,38.9,22.6c12.9,7.8,25.7,15.9,38.3,24.1c12.7,8.3,25.3,16.9,37.7,25.7
								c12.5,8.8,24.8,17.9,36.9,27.2c12.2,9.4,24.2,18.9,36,28.7c0.8,0.7,1.6,1.4,2.5,2c0.8,0.7,1.6,1.4,2.5,2.1
								c0.8,0.7,1.6,1.4,2.5,2.1c0.8,0.7,1.6,1.4,2.4,2.1l-45.1-154.2c-59.5-37.1-121.8-69.8-186.1-97.9
								c-62.9-27.5-128.1-50.9-194.9-69.6c-65.8-18.5-133.6-32.7-202.9-42.3C1222,321.2,1151.3,316.2,1079.1,316.2"/>
						</g>
						<g>
							<defs>
								<polyline id="SVGID_13_" points="402,129.5 36.7,1379.6 2119.7,1379.6 1754.5,129.5 402,129.5 								"/>
							</defs>
							<clipPath id="SVGID_14_">
								<use xlink:href="#SVGID_13_"  style="overflow:visible;"/>
							</clipPath>
							<path class="st8" d="M1079.1,174.4c-64.7,0-128.3,3.2-190.7,9.4c-62.7,6.3-124.5,15.6-185.1,27.8
								c-61.2,12.3-121.5,27.6-180.7,45.8c-60,18.4-119.1,39.9-176.9,64.2L316,423.2c11-5.5,22-11,33.1-16.3s22.2-10.4,33.3-15.5
								c11.1-5,22.3-9.9,33.5-14.6s22.3-9.3,33.6-13.8c16.7-6.6,33.4-13,50.3-19.1c16.8-6.1,33.7-11.9,50.6-17.4
								s33.8-10.7,50.8-15.7c16.9-4.9,33.9-9.6,51-14c17.3-4.5,34.6-8.6,52-12.5s34.8-7.5,52.3-10.9c17.4-3.3,34.9-6.4,52.4-9.2
								c17.5-2.8,35-5.3,52.5-7.5c17.9-2.3,36-4.3,54.1-6s36.2-3.1,54.3-4.3c18.1-1.1,36.3-2,54.5-2.6s36.4-0.9,54.6-0.9
								s36.4,0.3,54.6,0.9c18.2,0.6,36.4,1.4,54.5,2.6c18.1,1.1,36.3,2.6,54.3,4.3c18.1,1.7,36.1,3.7,54.1,6
								c17.5,2.2,35,4.7,52.5,7.5s35,5.8,52.4,9.2c17.5,3.3,34.9,7,52.3,10.9s34.8,8.1,52.1,12.5c17,4.4,34,9.1,51,14
								c17,5,34,10.2,50.9,15.7c17,5.5,33.8,11.3,50.6,17.4c16.9,6.1,33.7,12.5,50.3,19.1c11,4.4,22.1,8.9,33,13.6
								c11,4.7,22,9.5,32.9,14.4c11,4.9,21.9,10,32.8,15.2s21.8,10.5,32.6,16l-29.6-101.4c-57.6-24.2-116.6-45.5-176.4-63.8
								c-59-18-119.1-33.3-180.2-45.5c-60.4-12.1-122-21.4-184.5-27.6C1207,177.6,1143.6,174.4,1079.1,174.4"/>
						</g>
						<g>
							<defs>
								<polyline id="SVGID_15_" points="402,129.5 36.7,1379.6 2119.7,1379.6 1754.5,129.5 402,129.5 								"/>
							</defs>
							<clipPath id="SVGID_16_">
								<use xlink:href="#SVGID_15_"  style="overflow:visible;"/>
							</clipPath>
							<path class="st9" d="M787.5,129.5H474.8c-6.7,1.8-13.3,3.7-20,5.6c-6.7,1.9-13.3,3.8-19.9,5.8s-13.3,4-19.9,6
								s-13.3,4.1-19.9,6.2l-23.4,80c18-6.5,36.1-12.8,54.2-18.8c18-6,36.2-11.7,54.3-17.2c18.1-5.5,36.2-10.7,54.4-15.6
								c18.1-4.9,36.2-9.6,54.4-14c16.5-4,33-7.8,49.5-11.4c16.5-3.6,33.1-6.9,49.6-10.1c16.5-3.2,33.1-6.1,49.7-8.9
								C754.4,134.4,770.9,131.9,787.5,129.5 M1683.3,129.5h-312.7c16.6,2.3,33.2,4.9,49.7,7.6c16.6,2.8,33.2,5.7,49.7,8.9
								c16.6,3.2,33.1,6.5,49.6,10.1c16.6,3.6,33.1,7.4,49.5,11.4c18,4.4,36,9,53.9,13.9c18,4.9,36,10,53.9,15.4
								c18,5.4,36,11.1,53.9,17c18,6,35.9,12.2,53.7,18.6l-23.3-79.9c-6.5-2-13-4.1-19.4-6c-6.5-2-13-3.9-19.5-5.9
								c-6.5-1.9-13-3.8-19.5-5.7C1696.4,133.1,1689.9,131.3,1683.3,129.5"/>
						</g>
					</g>
				</g>
			</g>
		</g>
	</g>
	<g id="Pitch_Markings">
		<g class="st0">
			<g>
				<defs>
					<polygon id="SVGID_17_" points="37.6,1380.2 402.9,130.1 1755.4,130.1 2120.6,1380.2 					"/>
				</defs>
				<clipPath id="SVGID_18_">
					<use xlink:href="#SVGID_17_"  style="overflow:visible;"/>
				</clipPath>
				<g class="st10">
					<g>
						<g>
							<defs>
								<polyline id="SVGID_19_" points="402.9,130.1 37.6,1380.2 2120.6,1380.2 1755.4,130.1 402.9,130.1 								"/>
							</defs>
							<clipPath id="SVGID_20_">
								<use xlink:href="#SVGID_19_"  style="overflow:visible;"/>
							</clipPath>
							<path class="st11" d="M1755.4,130.1H402.9L37.6,1380.2h7.9l59.3-204.7h735.4c-1.2,22.7,2,44.8,8.9,65.7
								c7,21.2,17.8,41.1,31.9,59.1c14.2,18.2,31.8,34.4,51.9,47.9c20.3,13.6,43.3,24.5,68.2,32h36.9c-28.4-4.5-54.9-13.4-78.7-26
								c-23.6-12.5-44.2-28.4-61.2-46.9c-16.8-18.3-29.8-39.2-38.3-61.6c-8.4-22.1-12.4-45.8-11.2-70.2h204.8c0.5,2.7,1.5,5.3,3,7.6
								c1.5,2.3,3.5,4.4,5.8,6.1s5,3.1,7.9,4.1s6.1,1.5,9.4,1.5s6.5-0.5,9.4-1.5s5.6-2.3,7.9-4.1c2.3-1.7,4.3-3.8,5.8-6.1
								c1.5-2.3,2.5-4.9,3-7.6h204.8c1.2,24.4-2.8,48.1-11.2,70.2c-8.5,22.4-21.5,43.3-38.3,61.6c-16.9,18.5-37.6,34.5-61.1,46.9
								c-23.7,12.5-50.3,21.5-78.6,26h36.9c24.9-7.5,47.8-18.4,68.2-32c20.2-13.5,37.7-29.7,51.9-47.9c14.1-18,24.9-37.9,31.9-59.1
								c6.9-20.9,10-43,8.9-65.7h735.4l59.4,204.7h6.8L1755.4,130.1z M1751.7,132.7l8.5,29.5c-6.7-0.3-13.2-1.4-19.3-3
								c-6.1-1.6-11.9-3.8-17-6.4c-5.1-2.6-9.6-5.7-13.2-9.1c-3.6-3.4-6.3-7-7.9-10.9h48.9V132.7z M911.6,132.7h335.7l3.6,49.3
								H908.1L911.6,132.7z M905.8,132.7l-4,52.9h355.4l-4-52.9h130l12.9,98.2H762.9l12.9-98.2L905.8,132.7L905.8,132.7z
								 M1195.7,234.8c-4.4,7.4-10.5,14.2-18.1,20.2c-7.6,6.1-16.7,11.4-26.8,15.8c-10.2,4.4-21.5,7.9-33.5,10.3s-24.7,3.7-37.8,3.7
								s-25.8-1.3-37.8-3.7c-12-2.4-23.3-5.9-33.5-10.3s-19.2-9.7-26.8-15.8c-7.6-6.1-13.7-12.9-18.1-20.2L1195.7,234.8
								L1195.7,234.8z M407.3,132.7h49c-1.6,3.9-4.3,7.6-7.9,10.9c-3.6,3.4-8.1,6.5-13.2,9.1s-10.9,4.8-17,6.4
								c-6.2,1.6-12.7,2.7-19.4,3L407.3,132.7z M1105.6,1168.3c-0.5-2.7-1.6-5.2-3.1-7.5s-3.5-4.3-5.8-6s-4.9-3-7.8-4
								c-2.9-0.9-6-1.4-9.2-1.4s-6.4,0.5-9.2,1.4c-2.9,0.9-5.5,2.3-7.8,4s-4.3,3.7-5.8,6s-2.6,4.8-3.1,7.5H849.3
								c2.4-26.7,10.8-51.8,23.9-74.3c12.9-22.2,30.5-41.8,51.3-58.2c20.7-16.2,44.7-29.2,70.9-38.1c26.1-8.9,54.5-13.7,84.2-13.7
								s58.1,4.9,84.2,13.7c26.2,8.9,50.2,21.9,70.9,38.1c20.9,16.3,38.4,36,51.3,58.2c13.1,22.5,21.6,47.5,24,74.3H1105.6z
								 M1318.5,1168.3c-2.5-27.7-11.3-53.7-25-76.9c-13.5-22.9-31.6-43.3-53.3-60.2c-21.4-16.7-46.3-30.1-73.5-39.3
								c-27-9.1-56.4-14.2-87.1-14.2s-60.1,5-87.1,14.2c-27.2,9.2-52,22.6-73.5,39.3c-21.6,16.9-39.8,37.3-53.3,60.2
								c-13.6,23.3-22.4,49.2-25,76.9H107L397.7,165.7c7.5-0.3,14.9-1.5,21.8-3.3s13.4-4.3,19.2-7.2c5.7-3,10.8-6.4,14.8-10.2
								s7-7.9,8.8-12.3H770l-13.6,101.9h200.4c4.4,8,10.7,15.3,18.6,21.9c8,6.6,17.5,12.4,28.3,17.1c10.8,4.8,22.8,8.6,35.6,11.2
								s26.4,4,40.4,4s27.6-1.4,40.4-4s24.8-6.4,35.6-11.2c10.8-4.8,20.3-10.6,28.3-17.1c7.9-6.6,14.2-13.9,18.6-21.9H1403
								l-13.6-101.9H1697c1.7,4.3,4.7,8.5,8.7,12.3s9,7.2,14.7,10.2s12.2,5.4,19.1,7.2s14.3,3,21.7,3.3l291,1002.6H1318.5z"/>
						</g>
					</g>
				</g>
			</g>
		</g>
	</g>
</g>
<g id="Goal_1_">
	<g id="Goal_shad_1_" class="st12">
		<g>
			<polygon class="st13" points="892,73 922,130 1237,130 1267,73 			"/>
		</g>
	</g>
	<g id="NET_2_">
		<g>
			<defs>
				<rect id="SVGID_21_" x="927.5" y="17.7" width="304.5" height="114.9"/>
			</defs>
			<clipPath id="SVGID_22_">
				<use xlink:href="#SVGID_21_"  style="overflow:visible;"/>
			</clipPath>
			<g class="st14">
				<g>
					<path class="st15" d="M928-2.7l9,4.9V12l-9,4.9l-9-4.9V2.2L928-2.7 M928-3.9l-10,5.5v11l10,5.5l10-5.5v-11L928-3.9L928-3.9z"/>
				</g>
				<g>
					<path class="st15" d="M947-2.7l9,4.9V12l-9,4.9l-9-4.9V2.2L947-2.7 M947-3.9l-10,5.5v11l10,5.5l10-5.5v-11L947-3.9L947-3.9z"/>
				</g>
				<g>
					<path class="st15" d="M966-2.7l9,4.9V12l-9,4.9l-9-4.9V2.2L966-2.7 M966-3.9l-10,5.5v11l10,5.5l10-5.5v-11L966-3.9L966-3.9z"/>
				</g>
				<g>
					<path class="st15" d="M985-2.7l9,4.9V12l-9,4.9l-9-4.9V2.2L985-2.7 M985-3.9l-10,5.5v11l10,5.5l10-5.5v-11L985-3.9L985-3.9z"/>
				</g>
				<g>
					<path class="st15" d="M1004-2.7l9,4.9V12l-9,4.9l-9-4.9V2.2L1004-2.7 M1004-3.9l-10,5.5v11l10,5.5l10-5.5v-11L1004-3.9
						L1004-3.9z"/>
				</g>
				<g>
					<path class="st15" d="M1023-2.7l9,4.9V12l-9,4.9l-9-4.9V2.2L1023-2.7 M1023-3.9l-10,5.5v11l10,5.5l10-5.5v-11L1023-3.9
						L1023-3.9z"/>
				</g>
				<g>
					<path class="st15" d="M1042-2.7l9,4.9V12l-9,4.9l-9-4.9V2.2L1042-2.7 M1042-3.9l-10,5.5v11l10,5.5l10-5.5v-11L1042-3.9
						L1042-3.9z"/>
				</g>
				<g>
					<path class="st15" d="M1061-2.7l9,4.9V12l-9,4.9l-9-4.9V2.2L1061-2.7 M1061-3.9l-10,5.5v11l10,5.5l10-5.5v-11L1061-3.9
						L1061-3.9z"/>
				</g>
				<g>
					<path class="st15" d="M1080-2.7l9,4.9V12l-9,4.9l-9-4.9V2.2L1080-2.7 M1080-3.9l-10,5.5v11l10,5.5l10-5.5v-11L1080-3.9
						L1080-3.9z"/>
				</g>
				<g>
					<path class="st15" d="M1099-2.7l9,4.9V12l-9,4.9l-9-4.9V2.2L1099-2.7 M1099-3.9l-10,5.5v11l10,5.5l10-5.5v-11L1099-3.9
						L1099-3.9z"/>
				</g>
				<g>
					<path class="st15" d="M1118-2.7l9,4.9V12l-9,4.9l-9-4.9V2.2L1118-2.7 M1118-3.9l-10,5.5v11l10,5.5l10-5.5v-11L1118-3.9
						L1118-3.9z"/>
				</g>
				<g>
					<path class="st15" d="M1137-2.7l9,4.9V12l-9,4.9l-9-4.9V2.2L1137-2.7 M1137-3.9l-10,5.5v11l10,5.5l10-5.5v-11L1137-3.9
						L1137-3.9z"/>
				</g>
				<g>
					<path class="st15" d="M1156-2.7l9,4.9V12l-9,4.9l-9-4.9V2.2L1156-2.7 M1156-3.9l-10,5.5v11l10,5.5l10-5.5v-11L1156-3.9
						L1156-3.9z"/>
				</g>
				<g>
					<path class="st15" d="M1175-2.7l9,4.9V12l-9,4.9l-9-4.9V2.2L1175-2.7 M1175-3.9l-10,5.5v11l10,5.5l10-5.5v-11L1175-3.9
						L1175-3.9z"/>
				</g>
				<g>
					<path class="st15" d="M1194-2.7l9,4.9V12l-9,4.9l-9-4.9V2.2L1194-2.7 M1194-3.9l-10,5.5v11l10,5.5l10-5.5v-11L1194-3.9
						L1194-3.9z"/>
				</g>
				<g>
					<path class="st15" d="M1213-2.7l9,4.9V12l-9,4.9l-9-4.9V2.2L1213-2.7 M1213-3.9l-10,5.5v11l10,5.5l10-5.5v-11L1213-3.9
						L1213-3.9z"/>
				</g>
				<g>
					<path class="st15" d="M1232-2.7l9,4.9V12l-9,4.9l-9-4.9V2.2L1232-2.7 M1232-3.9l-10,5.5v11l10,5.5l10-5.5v-11L1232-3.9
						L1232-3.9z"/>
				</g>
				<g>
					<path class="st15" d="M1251-2.7l9,4.9V12l-9,4.9l-9-4.9V2.2L1251-2.7 M1251-3.9l-10,5.5v11l10,5.5l10-5.5v-11L1251-3.9
						L1251-3.9z"/>
				</g>
				<g>
					<path class="st15" d="M1270-2.7l9,4.9V12l-9,4.9l-9-4.9V2.2L1270-2.7 M1270-3.9l-10,5.5v11l10,5.5l10-5.5v-11L1270-3.9
						L1270-3.9z"/>
				</g>
				<g>
					<path class="st15" d="M1289-2.7l9,4.9V12l-9,4.9l-9-4.9V2.2L1289-2.7 M1289-3.9l-10,5.5v11l10,5.5l10-5.5v-11L1289-3.9
						L1289-3.9z"/>
				</g>
			</g>
		</g>
		<g>
			<defs>
				<rect id="SVGID_23_" x="927.5" y="17.7" width="304.5" height="114.9"/>
			</defs>
			<clipPath id="SVGID_24_">
				<use xlink:href="#SVGID_23_"  style="overflow:visible;"/>
			</clipPath>
			<g class="st16">
				<g>
					<path class="st15" d="M937.5,13.3l9,4.9V28l-9,4.9l-9-4.9v-9.8L937.5,13.3 M937.5,12.2l-10,5.5v11l10,5.5l10-5.5v-11
						L937.5,12.2L937.5,12.2z"/>
				</g>
				<g>
					<path class="st15" d="M956.5,13.3l9,4.9V28l-9,4.9l-9-4.9v-9.8L956.5,13.3 M956.5,12.2l-10,5.5v11l10,5.5l10-5.5v-11
						L956.5,12.2L956.5,12.2z"/>
				</g>
				<g>
					<path class="st15" d="M975.5,13.3l9,4.9V28l-9,4.9l-9-4.9v-9.8L975.5,13.3 M975.5,12.2l-10,5.5v11l10,5.5l10-5.5v-11
						L975.5,12.2L975.5,12.2z"/>
				</g>
				<g>
					<path class="st15" d="M994.5,13.3l9,4.9V28l-9,4.9l-9-4.9v-9.8L994.5,13.3 M994.5,12.2l-10,5.5v11l10,5.5l10-5.5v-11
						L994.5,12.2L994.5,12.2z"/>
				</g>
				<g>
					<path class="st15" d="M1013.5,13.3l9,4.9V28l-9,4.9l-9-4.9v-9.8L1013.5,13.3 M1013.5,12.2l-10,5.5v11l10,5.5l10-5.5v-11
						L1013.5,12.2L1013.5,12.2z"/>
				</g>
				<g>
					<path class="st15" d="M1032.5,13.3l9,4.9V28l-9,4.9l-9-4.9v-9.8L1032.5,13.3 M1032.5,12.2l-10,5.5v11l10,5.5l10-5.5v-11
						L1032.5,12.2L1032.5,12.2z"/>
				</g>
				<g>
					<path class="st15" d="M1051.5,13.3l9,4.9V28l-9,4.9l-9-4.9v-9.8L1051.5,13.3 M1051.5,12.2l-10,5.5v11l10,5.5l10-5.5v-11
						L1051.5,12.2L1051.5,12.2z"/>
				</g>
				<g>
					<path class="st15" d="M1070.5,13.3l9,4.9V28l-9,4.9l-9-4.9v-9.8L1070.5,13.3 M1070.5,12.2l-10,5.5v11l10,5.5l10-5.5v-11
						L1070.5,12.2L1070.5,12.2z"/>
				</g>
				<g>
					<path class="st15" d="M1089.5,13.3l9,4.9V28l-9,4.9l-9-4.9v-9.8L1089.5,13.3 M1089.5,12.2l-10,5.5v11l10,5.5l10-5.5v-11
						L1089.5,12.2L1089.5,12.2z"/>
				</g>
				<g>
					<path class="st15" d="M1108.5,13.3l9,4.9V28l-9,4.9l-9-4.9v-9.8L1108.5,13.3 M1108.5,12.2l-10,5.5v11l10,5.5l10-5.5v-11
						L1108.5,12.2L1108.5,12.2z"/>
				</g>
				<g>
					<path class="st15" d="M1127.5,13.3l9,4.9V28l-9,4.9l-9-4.9v-9.8L1127.5,13.3 M1127.5,12.2l-10,5.5v11l10,5.5l10-5.5v-11
						L1127.5,12.2L1127.5,12.2z"/>
				</g>
				<g>
					<path class="st15" d="M1146.5,13.3l9,4.9V28l-9,4.9l-9-4.9v-9.8L1146.5,13.3 M1146.5,12.2l-10,5.5v11l10,5.5l10-5.5v-11
						L1146.5,12.2L1146.5,12.2z"/>
				</g>
				<g>
					<path class="st15" d="M1165.5,13.3l9,4.9V28l-9,4.9l-9-4.9v-9.8L1165.5,13.3 M1165.5,12.2l-10,5.5v11l10,5.5l10-5.5v-11
						L1165.5,12.2L1165.5,12.2z"/>
				</g>
				<g>
					<path class="st15" d="M1184.5,13.3l9,4.9V28l-9,4.9l-9-4.9v-9.8L1184.5,13.3 M1184.5,12.2l-10,5.5v11l10,5.5l10-5.5v-11
						L1184.5,12.2L1184.5,12.2z"/>
				</g>
				<g>
					<path class="st15" d="M1203.5,13.3l9,4.9V28l-9,4.9l-9-4.9v-9.8L1203.5,13.3 M1203.5,12.2l-10,5.5v11l10,5.5l10-5.5v-11
						L1203.5,12.2L1203.5,12.2z"/>
				</g>
				<g>
					<path class="st15" d="M1222.5,13.3l9,4.9V28l-9,4.9l-9-4.9v-9.8L1222.5,13.3 M1222.5,12.2l-10,5.5v11l10,5.5l10-5.5v-11
						L1222.5,12.2L1222.5,12.2z"/>
				</g>
				<g>
					<path class="st15" d="M1241.5,13.3l9,4.9V28l-9,4.9l-9-4.9v-9.8L1241.5,13.3 M1241.5,12.2l-10,5.5v11l10,5.5l10-5.5v-11
						L1241.5,12.2L1241.5,12.2z"/>
				</g>
				<g>
					<path class="st15" d="M1260.5,13.3l9,4.9V28l-9,4.9l-9-4.9v-9.8L1260.5,13.3 M1260.5,12.2l-10,5.5v11l10,5.5l10-5.5v-11
						L1260.5,12.2L1260.5,12.2z"/>
				</g>
				<g>
					<path class="st15" d="M1279.5,13.3l9,4.9V28l-9,4.9l-9-4.9v-9.8L1279.5,13.3 M1279.5,12.2l-10,5.5v11l10,5.5l10-5.5v-11
						L1279.5,12.2L1279.5,12.2z"/>
				</g>
				<g>
					<path class="st15" d="M1298.5,13.3l9,4.9V28l-9,4.9l-9-4.9v-9.8L1298.5,13.3 M1298.5,12.2l-10,5.5v11l10,5.5l10-5.5v-11
						L1298.5,12.2L1298.5,12.2z"/>
				</g>
			</g>
		</g>
		<g>
			<defs>
				<rect id="SVGID_25_" x="927.5" y="17.7" width="304.5" height="114.9"/>
			</defs>
			<clipPath id="SVGID_26_">
				<use xlink:href="#SVGID_25_"  style="overflow:visible;"/>
			</clipPath>
			<g class="st17">
				<g>
					<path class="st15" d="M928,29.5l9,4.9v9.8l-9,4.9l-9-4.9v-9.8L928,29.5 M928,28.4l-10,5.5v11l10,5.5l10-5.5v-11L928,28.4
						L928,28.4z"/>
				</g>
				<g>
					<path class="st15" d="M947,29.5l9,4.9v9.8l-9,4.9l-9-4.9v-9.8L947,29.5 M947,28.4l-10,5.5v11l10,5.5l10-5.5v-11L947,28.4
						L947,28.4z"/>
				</g>
				<g>
					<path class="st15" d="M966,29.5l9,4.9v9.8l-9,4.9l-9-4.9v-9.8L966,29.5 M966,28.4l-10,5.5v11l10,5.5l10-5.5v-11L966,28.4
						L966,28.4z"/>
				</g>
				<g>
					<path class="st15" d="M985,29.5l9,4.9v9.8l-9,4.9l-9-4.9v-9.8L985,29.5 M985,28.4l-10,5.5v11l10,5.5l10-5.5v-11L985,28.4
						L985,28.4z"/>
				</g>
				<g>
					<path class="st15" d="M1004,29.5l9,4.9v9.8l-9,4.9l-9-4.9v-9.8L1004,29.5 M1004,28.4l-10,5.5v11l10,5.5l10-5.5v-11L1004,28.4
						L1004,28.4z"/>
				</g>
				<g>
					<path class="st15" d="M1023,29.5l9,4.9v9.8l-9,4.9l-9-4.9v-9.8L1023,29.5 M1023,28.4l-10,5.5v11l10,5.5l10-5.5v-11L1023,28.4
						L1023,28.4z"/>
				</g>
				<g>
					<path class="st15" d="M1042,29.5l9,4.9v9.8l-9,4.9l-9-4.9v-9.8L1042,29.5 M1042,28.4l-10,5.5v11l10,5.5l10-5.5v-11L1042,28.4
						L1042,28.4z"/>
				</g>
				<g>
					<path class="st15" d="M1061,29.5l9,4.9v9.8l-9,4.9l-9-4.9v-9.8L1061,29.5 M1061,28.4l-10,5.5v11l10,5.5l10-5.5v-11L1061,28.4
						L1061,28.4z"/>
				</g>
				<g>
					<path class="st15" d="M1080,29.5l9,4.9v9.8l-9,4.9l-9-4.9v-9.8L1080,29.5 M1080,28.4l-10,5.5v11l10,5.5l10-5.5v-11L1080,28.4
						L1080,28.4z"/>
				</g>
				<g>
					<path class="st15" d="M1099,29.5l9,4.9v9.8l-9,4.9l-9-4.9v-9.8L1099,29.5 M1099,28.4l-10,5.5v11l10,5.5l10-5.5v-11L1099,28.4
						L1099,28.4z"/>
				</g>
				<g>
					<path class="st15" d="M1118,29.5l9,4.9v9.8l-9,4.9l-9-4.9v-9.8L1118,29.5 M1118,28.4l-10,5.5v11l10,5.5l10-5.5v-11L1118,28.4
						L1118,28.4z"/>
				</g>
				<g>
					<path class="st15" d="M1137,29.5l9,4.9v9.8l-9,4.9l-9-4.9v-9.8L1137,29.5 M1137,28.4l-10,5.5v11l10,5.5l10-5.5v-11L1137,28.4
						L1137,28.4z"/>
				</g>
				<g>
					<path class="st15" d="M1156,29.5l9,4.9v9.8l-9,4.9l-9-4.9v-9.8L1156,29.5 M1156,28.4l-10,5.5v11l10,5.5l10-5.5v-11L1156,28.4
						L1156,28.4z"/>
				</g>
				<g>
					<path class="st15" d="M1175,29.5l9,4.9v9.8l-9,4.9l-9-4.9v-9.8L1175,29.5 M1175,28.4l-10,5.5v11l10,5.5l10-5.5v-11L1175,28.4
						L1175,28.4z"/>
				</g>
				<g>
					<path class="st15" d="M1194,29.5l9,4.9v9.8l-9,4.9l-9-4.9v-9.8L1194,29.5 M1194,28.4l-10,5.5v11l10,5.5l10-5.5v-11L1194,28.4
						L1194,28.4z"/>
				</g>
				<g>
					<path class="st15" d="M1213,29.5l9,4.9v9.8l-9,4.9l-9-4.9v-9.8L1213,29.5 M1213,28.4l-10,5.5v11l10,5.5l10-5.5v-11L1213,28.4
						L1213,28.4z"/>
				</g>
				<g>
					<path class="st15" d="M1232,29.5l9,4.9v9.8l-9,4.9l-9-4.9v-9.8L1232,29.5 M1232,28.4l-10,5.5v11l10,5.5l10-5.5v-11L1232,28.4
						L1232,28.4z"/>
				</g>
				<g>
					<path class="st15" d="M1251,29.5l9,4.9v9.8l-9,4.9l-9-4.9v-9.8L1251,29.5 M1251,28.4l-10,5.5v11l10,5.5l10-5.5v-11L1251,28.4
						L1251,28.4z"/>
				</g>
				<g>
					<path class="st15" d="M1270,29.5l9,4.9v9.8l-9,4.9l-9-4.9v-9.8L1270,29.5 M1270,28.4l-10,5.5v11l10,5.5l10-5.5v-11L1270,28.4
						L1270,28.4z"/>
				</g>
				<g>
					<path class="st15" d="M1289,29.5l9,4.9v9.8l-9,4.9l-9-4.9v-9.8L1289,29.5 M1289,28.4l-10,5.5v11l10,5.5l10-5.5v-11L1289,28.4
						L1289,28.4z"/>
				</g>
			</g>
		</g>
		<g>
			<defs>
				<rect id="SVGID_27_" x="927.5" y="17.7" width="304.5" height="114.9"/>
			</defs>
			<clipPath id="SVGID_28_">
				<use xlink:href="#SVGID_27_"  style="overflow:visible;"/>
			</clipPath>
			<g class="st18">
				<g>
					<path class="st15" d="M937.5,45.6l9,4.9v9.8l-9,4.9l-9-4.9v-9.8L937.5,45.6 M937.5,44.4l-10,5.5v11l10,5.5l10-5.5v-11
						L937.5,44.4L937.5,44.4z"/>
				</g>
				<g>
					<path class="st15" d="M956.5,45.6l9,4.9v9.8l-9,4.9l-9-4.9v-9.8L956.5,45.6 M956.5,44.4l-10,5.5v11l10,5.5l10-5.5v-11
						L956.5,44.4L956.5,44.4z"/>
				</g>
				<g>
					<path class="st15" d="M975.5,45.6l9,4.9v9.8l-9,4.9l-9-4.9v-9.8L975.5,45.6 M975.5,44.4l-10,5.5v11l10,5.5l10-5.5v-11
						L975.5,44.4L975.5,44.4z"/>
				</g>
				<g>
					<path class="st15" d="M994.5,45.6l9,4.9v9.8l-9,4.9l-9-4.9v-9.8L994.5,45.6 M994.5,44.4l-10,5.5v11l10,5.5l10-5.5v-11
						L994.5,44.4L994.5,44.4z"/>
				</g>
				<g>
					<path class="st15" d="M1013.5,45.6l9,4.9v9.8l-9,4.9l-9-4.9v-9.8L1013.5,45.6 M1013.5,44.4l-10,5.5v11l10,5.5l10-5.5v-11
						L1013.5,44.4L1013.5,44.4z"/>
				</g>
				<g>
					<path class="st15" d="M1032.5,45.6l9,4.9v9.8l-9,4.9l-9-4.9v-9.8L1032.5,45.6 M1032.5,44.4l-10,5.5v11l10,5.5l10-5.5v-11
						L1032.5,44.4L1032.5,44.4z"/>
				</g>
				<g>
					<path class="st15" d="M1051.5,45.6l9,4.9v9.8l-9,4.9l-9-4.9v-9.8L1051.5,45.6 M1051.5,44.4l-10,5.5v11l10,5.5l10-5.5v-11
						L1051.5,44.4L1051.5,44.4z"/>
				</g>
				<g>
					<path class="st15" d="M1070.5,45.6l9,4.9v9.8l-9,4.9l-9-4.9v-9.8L1070.5,45.6 M1070.5,44.4l-10,5.5v11l10,5.5l10-5.5v-11
						L1070.5,44.4L1070.5,44.4z"/>
				</g>
				<g>
					<path class="st15" d="M1089.5,45.6l9,4.9v9.8l-9,4.9l-9-4.9v-9.8L1089.5,45.6 M1089.5,44.4l-10,5.5v11l10,5.5l10-5.5v-11
						L1089.5,44.4L1089.5,44.4z"/>
				</g>
				<g>
					<path class="st15" d="M1108.5,45.6l9,4.9v9.8l-9,4.9l-9-4.9v-9.8L1108.5,45.6 M1108.5,44.4l-10,5.5v11l10,5.5l10-5.5v-11
						L1108.5,44.4L1108.5,44.4z"/>
				</g>
				<g>
					<path class="st15" d="M1127.5,45.6l9,4.9v9.8l-9,4.9l-9-4.9v-9.8L1127.5,45.6 M1127.5,44.4l-10,5.5v11l10,5.5l10-5.5v-11
						L1127.5,44.4L1127.5,44.4z"/>
				</g>
				<g>
					<path class="st15" d="M1146.5,45.6l9,4.9v9.8l-9,4.9l-9-4.9v-9.8L1146.5,45.6 M1146.5,44.4l-10,5.5v11l10,5.5l10-5.5v-11
						L1146.5,44.4L1146.5,44.4z"/>
				</g>
				<g>
					<path class="st15" d="M1165.5,45.6l9,4.9v9.8l-9,4.9l-9-4.9v-9.8L1165.5,45.6 M1165.5,44.4l-10,5.5v11l10,5.5l10-5.5v-11
						L1165.5,44.4L1165.5,44.4z"/>
				</g>
				<g>
					<path class="st15" d="M1184.5,45.6l9,4.9v9.8l-9,4.9l-9-4.9v-9.8L1184.5,45.6 M1184.5,44.4l-10,5.5v11l10,5.5l10-5.5v-11
						L1184.5,44.4L1184.5,44.4z"/>
				</g>
				<g>
					<path class="st15" d="M1203.5,45.6l9,4.9v9.8l-9,4.9l-9-4.9v-9.8L1203.5,45.6 M1203.5,44.4l-10,5.5v11l10,5.5l10-5.5v-11
						L1203.5,44.4L1203.5,44.4z"/>
				</g>
				<g>
					<path class="st15" d="M1222.5,45.6l9,4.9v9.8l-9,4.9l-9-4.9v-9.8L1222.5,45.6 M1222.5,44.4l-10,5.5v11l10,5.5l10-5.5v-11
						L1222.5,44.4L1222.5,44.4z"/>
				</g>
				<g>
					<path class="st15" d="M1241.5,45.6l9,4.9v9.8l-9,4.9l-9-4.9v-9.8L1241.5,45.6 M1241.5,44.4l-10,5.5v11l10,5.5l10-5.5v-11
						L1241.5,44.4L1241.5,44.4z"/>
				</g>
				<g>
					<path class="st15" d="M1260.5,45.6l9,4.9v9.8l-9,4.9l-9-4.9v-9.8L1260.5,45.6 M1260.5,44.4l-10,5.5v11l10,5.5l10-5.5v-11
						L1260.5,44.4L1260.5,44.4z"/>
				</g>
				<g>
					<path class="st15" d="M1279.5,45.6l9,4.9v9.8l-9,4.9l-9-4.9v-9.8L1279.5,45.6 M1279.5,44.4l-10,5.5v11l10,5.5l10-5.5v-11
						L1279.5,44.4L1279.5,44.4z"/>
				</g>
				<g>
					<path class="st15" d="M1298.5,45.6l9,4.9v9.8l-9,4.9l-9-4.9v-9.8L1298.5,45.6 M1298.5,44.4l-10,5.5v11l10,5.5l10-5.5v-11
						L1298.5,44.4L1298.5,44.4z"/>
				</g>
			</g>
		</g>
		<g>
			<defs>
				<rect id="SVGID_29_" x="927.5" y="17.7" width="304.5" height="114.9"/>
			</defs>
			<clipPath id="SVGID_30_">
				<use xlink:href="#SVGID_29_"  style="overflow:visible;"/>
			</clipPath>
			<g class="st19">
				<g>
					<path class="st15" d="M928,61.8l9,4.9v9.8l-9,4.9l-9-4.9v-9.8L928,61.8 M928,60.6l-10,5.5v11l10,5.5l10-5.5v-11L928,60.6
						L928,60.6z"/>
				</g>
				<g>
					<path class="st15" d="M947,61.8l9,4.9v9.8l-9,4.9l-9-4.9v-9.8L947,61.8 M947,60.6l-10,5.5v11l10,5.5l10-5.5v-11L947,60.6
						L947,60.6z"/>
				</g>
				<g>
					<path class="st15" d="M966,61.8l9,4.9v9.8l-9,4.9l-9-4.9v-9.8L966,61.8 M966,60.6l-10,5.5v11l10,5.5l10-5.5v-11L966,60.6
						L966,60.6z"/>
				</g>
				<g>
					<path class="st15" d="M985,61.8l9,4.9v9.8l-9,4.9l-9-4.9v-9.8L985,61.8 M985,60.6l-10,5.5v11l10,5.5l10-5.5v-11L985,60.6
						L985,60.6z"/>
				</g>
				<g>
					<path class="st15" d="M1004,61.8l9,4.9v9.8l-9,4.9l-9-4.9v-9.8L1004,61.8 M1004,60.6l-10,5.5v11l10,5.5l10-5.5v-11L1004,60.6
						L1004,60.6z"/>
				</g>
				<g>
					<path class="st15" d="M1023,61.8l9,4.9v9.8l-9,4.9l-9-4.9v-9.8L1023,61.8 M1023,60.6l-10,5.5v11l10,5.5l10-5.5v-11L1023,60.6
						L1023,60.6z"/>
				</g>
				<g>
					<path class="st15" d="M1042,61.8l9,4.9v9.8l-9,4.9l-9-4.9v-9.8L1042,61.8 M1042,60.6l-10,5.5v11l10,5.5l10-5.5v-11L1042,60.6
						L1042,60.6z"/>
				</g>
				<g>
					<path class="st15" d="M1061,61.8l9,4.9v9.8l-9,4.9l-9-4.9v-9.8L1061,61.8 M1061,60.6l-10,5.5v11l10,5.5l10-5.5v-11L1061,60.6
						L1061,60.6z"/>
				</g>
				<g>
					<path class="st15" d="M1080,61.8l9,4.9v9.8l-9,4.9l-9-4.9v-9.8L1080,61.8 M1080,60.6l-10,5.5v11l10,5.5l10-5.5v-11L1080,60.6
						L1080,60.6z"/>
				</g>
				<g>
					<path class="st15" d="M1099,61.8l9,4.9v9.8l-9,4.9l-9-4.9v-9.8L1099,61.8 M1099,60.6l-10,5.5v11l10,5.5l10-5.5v-11L1099,60.6
						L1099,60.6z"/>
				</g>
				<g>
					<path class="st15" d="M1118,61.8l9,4.9v9.8l-9,4.9l-9-4.9v-9.8L1118,61.8 M1118,60.6l-10,5.5v11l10,5.5l10-5.5v-11L1118,60.6
						L1118,60.6z"/>
				</g>
				<g>
					<path class="st15" d="M1137,61.8l9,4.9v9.8l-9,4.9l-9-4.9v-9.8L1137,61.8 M1137,60.6l-10,5.5v11l10,5.5l10-5.5v-11L1137,60.6
						L1137,60.6z"/>
				</g>
				<g>
					<path class="st15" d="M1156,61.8l9,4.9v9.8l-9,4.9l-9-4.9v-9.8L1156,61.8 M1156,60.6l-10,5.5v11l10,5.5l10-5.5v-11L1156,60.6
						L1156,60.6z"/>
				</g>
				<g>
					<path class="st15" d="M1175,61.8l9,4.9v9.8l-9,4.9l-9-4.9v-9.8L1175,61.8 M1175,60.6l-10,5.5v11l10,5.5l10-5.5v-11L1175,60.6
						L1175,60.6z"/>
				</g>
				<g>
					<path class="st15" d="M1194,61.8l9,4.9v9.8l-9,4.9l-9-4.9v-9.8L1194,61.8 M1194,60.6l-10,5.5v11l10,5.5l10-5.5v-11L1194,60.6
						L1194,60.6z"/>
				</g>
				<g>
					<path class="st15" d="M1213,61.8l9,4.9v9.8l-9,4.9l-9-4.9v-9.8L1213,61.8 M1213,60.6l-10,5.5v11l10,5.5l10-5.5v-11L1213,60.6
						L1213,60.6z"/>
				</g>
				<g>
					<path class="st15" d="M1232,61.8l9,4.9v9.8l-9,4.9l-9-4.9v-9.8L1232,61.8 M1232,60.6l-10,5.5v11l10,5.5l10-5.5v-11L1232,60.6
						L1232,60.6z"/>
				</g>
				<g>
					<path class="st15" d="M1251,61.8l9,4.9v9.8l-9,4.9l-9-4.9v-9.8L1251,61.8 M1251,60.6l-10,5.5v11l10,5.5l10-5.5v-11L1251,60.6
						L1251,60.6z"/>
				</g>
				<g>
					<path class="st15" d="M1270,61.8l9,4.9v9.8l-9,4.9l-9-4.9v-9.8L1270,61.8 M1270,60.6l-10,5.5v11l10,5.5l10-5.5v-11L1270,60.6
						L1270,60.6z"/>
				</g>
				<g>
					<path class="st15" d="M1289,61.8l9,4.9v9.8l-9,4.9l-9-4.9v-9.8L1289,61.8 M1289,60.6l-10,5.5v11l10,5.5l10-5.5v-11L1289,60.6
						L1289,60.6z"/>
				</g>
			</g>
		</g>
		<g>
			<defs>
				<rect id="SVGID_31_" x="927.5" y="17.7" width="304.5" height="114.9"/>
			</defs>
			<clipPath id="SVGID_32_">
				<use xlink:href="#SVGID_31_"  style="overflow:visible;"/>
			</clipPath>
			<g class="st20">
				<g>
					<path class="st15" d="M937.5,77.8l9,4.9v9.8l-9,4.9l-9-4.9v-9.8L937.5,77.8 M937.5,76.7l-10,5.5v11l10,5.5l10-5.5v-11
						L937.5,76.7L937.5,76.7z"/>
				</g>
				<g>
					<path class="st15" d="M956.5,77.8l9,4.9v9.8l-9,4.9l-9-4.9v-9.8L956.5,77.8 M956.5,76.7l-10,5.5v11l10,5.5l10-5.5v-11
						L956.5,76.7L956.5,76.7z"/>
				</g>
				<g>
					<path class="st15" d="M975.5,77.8l9,4.9v9.8l-9,4.9l-9-4.9v-9.8L975.5,77.8 M975.5,76.7l-10,5.5v11l10,5.5l10-5.5v-11
						L975.5,76.7L975.5,76.7z"/>
				</g>
				<g>
					<path class="st15" d="M994.5,77.8l9,4.9v9.8l-9,4.9l-9-4.9v-9.8L994.5,77.8 M994.5,76.7l-10,5.5v11l10,5.5l10-5.5v-11
						L994.5,76.7L994.5,76.7z"/>
				</g>
				<g>
					<path class="st15" d="M1013.5,77.8l9,4.9v9.8l-9,4.9l-9-4.9v-9.8L1013.5,77.8 M1013.5,76.7l-10,5.5v11l10,5.5l10-5.5v-11
						L1013.5,76.7L1013.5,76.7z"/>
				</g>
				<g>
					<path class="st15" d="M1032.5,77.8l9,4.9v9.8l-9,4.9l-9-4.9v-9.8L1032.5,77.8 M1032.5,76.7l-10,5.5v11l10,5.5l10-5.5v-11
						L1032.5,76.7L1032.5,76.7z"/>
				</g>
				<g>
					<path class="st15" d="M1051.5,77.8l9,4.9v9.8l-9,4.9l-9-4.9v-9.8L1051.5,77.8 M1051.5,76.7l-10,5.5v11l10,5.5l10-5.5v-11
						L1051.5,76.7L1051.5,76.7z"/>
				</g>
				<g>
					<path class="st15" d="M1070.5,77.8l9,4.9v9.8l-9,4.9l-9-4.9v-9.8L1070.5,77.8 M1070.5,76.7l-10,5.5v11l10,5.5l10-5.5v-11
						L1070.5,76.7L1070.5,76.7z"/>
				</g>
				<g>
					<path class="st15" d="M1089.5,77.8l9,4.9v9.8l-9,4.9l-9-4.9v-9.8L1089.5,77.8 M1089.5,76.7l-10,5.5v11l10,5.5l10-5.5v-11
						L1089.5,76.7L1089.5,76.7z"/>
				</g>
				<g>
					<path class="st15" d="M1108.5,77.8l9,4.9v9.8l-9,4.9l-9-4.9v-9.8L1108.5,77.8 M1108.5,76.7l-10,5.5v11l10,5.5l10-5.5v-11
						L1108.5,76.7L1108.5,76.7z"/>
				</g>
				<g>
					<path class="st15" d="M1127.5,77.8l9,4.9v9.8l-9,4.9l-9-4.9v-9.8L1127.5,77.8 M1127.5,76.7l-10,5.5v11l10,5.5l10-5.5v-11
						L1127.5,76.7L1127.5,76.7z"/>
				</g>
				<g>
					<path class="st15" d="M1146.5,77.8l9,4.9v9.8l-9,4.9l-9-4.9v-9.8L1146.5,77.8 M1146.5,76.7l-10,5.5v11l10,5.5l10-5.5v-11
						L1146.5,76.7L1146.5,76.7z"/>
				</g>
				<g>
					<path class="st15" d="M1165.5,77.8l9,4.9v9.8l-9,4.9l-9-4.9v-9.8L1165.5,77.8 M1165.5,76.7l-10,5.5v11l10,5.5l10-5.5v-11
						L1165.5,76.7L1165.5,76.7z"/>
				</g>
				<g>
					<path class="st15" d="M1184.5,77.8l9,4.9v9.8l-9,4.9l-9-4.9v-9.8L1184.5,77.8 M1184.5,76.7l-10,5.5v11l10,5.5l10-5.5v-11
						L1184.5,76.7L1184.5,76.7z"/>
				</g>
				<g>
					<path class="st15" d="M1203.5,77.8l9,4.9v9.8l-9,4.9l-9-4.9v-9.8L1203.5,77.8 M1203.5,76.7l-10,5.5v11l10,5.5l10-5.5v-11
						L1203.5,76.7L1203.5,76.7z"/>
				</g>
				<g>
					<path class="st15" d="M1222.5,77.8l9,4.9v9.8l-9,4.9l-9-4.9v-9.8L1222.5,77.8 M1222.5,76.7l-10,5.5v11l10,5.5l10-5.5v-11
						L1222.5,76.7L1222.5,76.7z"/>
				</g>
				<g>
					<path class="st15" d="M1241.5,77.8l9,4.9v9.8l-9,4.9l-9-4.9v-9.8L1241.5,77.8 M1241.5,76.7l-10,5.5v11l10,5.5l10-5.5v-11
						L1241.5,76.7L1241.5,76.7z"/>
				</g>
				<g>
					<path class="st15" d="M1260.5,77.8l9,4.9v9.8l-9,4.9l-9-4.9v-9.8L1260.5,77.8 M1260.5,76.7l-10,5.5v11l10,5.5l10-5.5v-11
						L1260.5,76.7L1260.5,76.7z"/>
				</g>
				<g>
					<path class="st15" d="M1279.5,77.8l9,4.9v9.8l-9,4.9l-9-4.9v-9.8L1279.5,77.8 M1279.5,76.7l-10,5.5v11l10,5.5l10-5.5v-11
						L1279.5,76.7L1279.5,76.7z"/>
				</g>
				<g>
					<path class="st15" d="M1298.5,77.8l9,4.9v9.8l-9,4.9l-9-4.9v-9.8L1298.5,77.8 M1298.5,76.7l-10,5.5v11l10,5.5l10-5.5v-11
						L1298.5,76.7L1298.5,76.7z"/>
				</g>
			</g>
		</g>
		<g>
			<defs>
				<rect id="SVGID_33_" x="927.5" y="17.7" width="304.5" height="114.9"/>
			</defs>
			<clipPath id="SVGID_34_">
				<use xlink:href="#SVGID_33_"  style="overflow:visible;"/>
			</clipPath>
			<g class="st21">
				<g>
					<path class="st15" d="M928,94l9,4.9v9.8l-9,4.9l-9-4.9V99L928,94 M928,92.9l-10,5.5v11l10,5.5l10-5.5v-11L928,92.9L928,92.9z"
						/>
				</g>
				<g>
					<path class="st15" d="M947,94l9,4.9v9.8l-9,4.9l-9-4.9V99L947,94 M947,92.9l-10,5.5v11l10,5.5l10-5.5v-11L947,92.9L947,92.9z"
						/>
				</g>
				<g>
					<path class="st15" d="M966,94l9,4.9v9.8l-9,4.9l-9-4.9V99L966,94 M966,92.9l-10,5.5v11l10,5.5l10-5.5v-11L966,92.9L966,92.9z"
						/>
				</g>
				<g>
					<path class="st15" d="M985,94l9,4.9v9.8l-9,4.9l-9-4.9V99L985,94 M985,92.9l-10,5.5v11l10,5.5l10-5.5v-11L985,92.9L985,92.9z"
						/>
				</g>
				<g>
					<path class="st15" d="M1004,94l9,4.9v9.8l-9,4.9l-9-4.9V99L1004,94 M1004,92.9l-10,5.5v11l10,5.5l10-5.5v-11L1004,92.9
						L1004,92.9z"/>
				</g>
				<g>
					<path class="st15" d="M1023,94l9,4.9v9.8l-9,4.9l-9-4.9V99L1023,94 M1023,92.9l-10,5.5v11l10,5.5l10-5.5v-11L1023,92.9
						L1023,92.9z"/>
				</g>
				<g>
					<path class="st15" d="M1042,94l9,4.9v9.8l-9,4.9l-9-4.9V99L1042,94 M1042,92.9l-10,5.5v11l10,5.5l10-5.5v-11L1042,92.9
						L1042,92.9z"/>
				</g>
				<g>
					<path class="st15" d="M1061,94l9,4.9v9.8l-9,4.9l-9-4.9V99L1061,94 M1061,92.9l-10,5.5v11l10,5.5l10-5.5v-11L1061,92.9
						L1061,92.9z"/>
				</g>
				<g>
					<path class="st15" d="M1080,94l9,4.9v9.8l-9,4.9l-9-4.9V99L1080,94 M1080,92.9l-10,5.5v11l10,5.5l10-5.5v-11L1080,92.9
						L1080,92.9z"/>
				</g>
				<g>
					<path class="st15" d="M1099,94l9,4.9v9.8l-9,4.9l-9-4.9V99L1099,94 M1099,92.9l-10,5.5v11l10,5.5l10-5.5v-11L1099,92.9
						L1099,92.9z"/>
				</g>
				<g>
					<path class="st15" d="M1118,94l9,4.9v9.8l-9,4.9l-9-4.9V99L1118,94 M1118,92.9l-10,5.5v11l10,5.5l10-5.5v-11L1118,92.9
						L1118,92.9z"/>
				</g>
				<g>
					<path class="st15" d="M1137,94l9,4.9v9.8l-9,4.9l-9-4.9V99L1137,94 M1137,92.9l-10,5.5v11l10,5.5l10-5.5v-11L1137,92.9
						L1137,92.9z"/>
				</g>
				<g>
					<path class="st15" d="M1156,94l9,4.9v9.8l-9,4.9l-9-4.9V99L1156,94 M1156,92.9l-10,5.5v11l10,5.5l10-5.5v-11L1156,92.9
						L1156,92.9z"/>
				</g>
				<g>
					<path class="st15" d="M1175,94l9,4.9v9.8l-9,4.9l-9-4.9V99L1175,94 M1175,92.9l-10,5.5v11l10,5.5l10-5.5v-11L1175,92.9
						L1175,92.9z"/>
				</g>
				<g>
					<path class="st15" d="M1194,94l9,4.9v9.8l-9,4.9l-9-4.9V99L1194,94 M1194,92.9l-10,5.5v11l10,5.5l10-5.5v-11L1194,92.9
						L1194,92.9z"/>
				</g>
				<g>
					<path class="st15" d="M1213,94l9,4.9v9.8l-9,4.9l-9-4.9V99L1213,94 M1213,92.9l-10,5.5v11l10,5.5l10-5.5v-11L1213,92.9
						L1213,92.9z"/>
				</g>
				<g>
					<path class="st15" d="M1232,94l9,4.9v9.8l-9,4.9l-9-4.9V99L1232,94 M1232,92.9l-10,5.5v11l10,5.5l10-5.5v-11L1232,92.9
						L1232,92.9z"/>
				</g>
				<g>
					<path class="st15" d="M1251,94l9,4.9v9.8l-9,4.9l-9-4.9V99L1251,94 M1251,92.9l-10,5.5v11l10,5.5l10-5.5v-11L1251,92.9
						L1251,92.9z"/>
				</g>
				<g>
					<path class="st15" d="M1270,94l9,4.9v9.8l-9,4.9l-9-4.9V99L1270,94 M1270,92.9l-10,5.5v11l10,5.5l10-5.5v-11L1270,92.9
						L1270,92.9z"/>
				</g>
				<g>
					<path class="st15" d="M1289,94l9,4.9v9.8l-9,4.9l-9-4.9V99L1289,94 M1289,92.9l-10,5.5v11l10,5.5l10-5.5v-11L1289,92.9
						L1289,92.9z"/>
				</g>
			</g>
		</g>
		<g>
			<defs>
				<rect id="SVGID_35_" x="927.5" y="17.7" width="304.5" height="114.9"/>
			</defs>
			<clipPath id="SVGID_36_">
				<use xlink:href="#SVGID_35_"  style="overflow:visible;"/>
			</clipPath>
			<g class="st22">
				<g>
					<path class="st15" d="M937.5,110.1l9,4.9v9.8l-9,4.9l-9-4.9V115L937.5,110.1 M937.5,108.9l-10,5.5v11l10,5.5l10-5.5v-11
						L937.5,108.9L937.5,108.9z"/>
				</g>
				<g>
					<path class="st15" d="M956.5,110.1l9,4.9v9.8l-9,4.9l-9-4.9V115L956.5,110.1 M956.5,108.9l-10,5.5v11l10,5.5l10-5.5v-11
						L956.5,108.9L956.5,108.9z"/>
				</g>
				<g>
					<path class="st15" d="M975.5,110.1l9,4.9v9.8l-9,4.9l-9-4.9V115L975.5,110.1 M975.5,108.9l-10,5.5v11l10,5.5l10-5.5v-11
						L975.5,108.9L975.5,108.9z"/>
				</g>
				<g>
					<path class="st15" d="M994.5,110.1l9,4.9v9.8l-9,4.9l-9-4.9V115L994.5,110.1 M994.5,108.9l-10,5.5v11l10,5.5l10-5.5v-11
						L994.5,108.9L994.5,108.9z"/>
				</g>
				<g>
					<path class="st15" d="M1013.5,110.1l9,4.9v9.8l-9,4.9l-9-4.9V115L1013.5,110.1 M1013.5,108.9l-10,5.5v11l10,5.5l10-5.5v-11
						L1013.5,108.9L1013.5,108.9z"/>
				</g>
				<g>
					<path class="st15" d="M1032.5,110.1l9,4.9v9.8l-9,4.9l-9-4.9V115L1032.5,110.1 M1032.5,108.9l-10,5.5v11l10,5.5l10-5.5v-11
						L1032.5,108.9L1032.5,108.9z"/>
				</g>
				<g>
					<path class="st15" d="M1051.5,110.1l9,4.9v9.8l-9,4.9l-9-4.9V115L1051.5,110.1 M1051.5,108.9l-10,5.5v11l10,5.5l10-5.5v-11
						L1051.5,108.9L1051.5,108.9z"/>
				</g>
				<g>
					<path class="st15" d="M1070.5,110.1l9,4.9v9.8l-9,4.9l-9-4.9V115L1070.5,110.1 M1070.5,108.9l-10,5.5v11l10,5.5l10-5.5v-11
						L1070.5,108.9L1070.5,108.9z"/>
				</g>
				<g>
					<path class="st15" d="M1089.5,110.1l9,4.9v9.8l-9,4.9l-9-4.9V115L1089.5,110.1 M1089.5,108.9l-10,5.5v11l10,5.5l10-5.5v-11
						L1089.5,108.9L1089.5,108.9z"/>
				</g>
				<g>
					<path class="st15" d="M1108.5,110.1l9,4.9v9.8l-9,4.9l-9-4.9V115L1108.5,110.1 M1108.5,108.9l-10,5.5v11l10,5.5l10-5.5v-11
						L1108.5,108.9L1108.5,108.9z"/>
				</g>
				<g>
					<path class="st15" d="M1127.5,110.1l9,4.9v9.8l-9,4.9l-9-4.9V115L1127.5,110.1 M1127.5,108.9l-10,5.5v11l10,5.5l10-5.5v-11
						L1127.5,108.9L1127.5,108.9z"/>
				</g>
				<g>
					<path class="st15" d="M1146.5,110.1l9,4.9v9.8l-9,4.9l-9-4.9V115L1146.5,110.1 M1146.5,108.9l-10,5.5v11l10,5.5l10-5.5v-11
						L1146.5,108.9L1146.5,108.9z"/>
				</g>
				<g>
					<path class="st15" d="M1165.5,110.1l9,4.9v9.8l-9,4.9l-9-4.9V115L1165.5,110.1 M1165.5,108.9l-10,5.5v11l10,5.5l10-5.5v-11
						L1165.5,108.9L1165.5,108.9z"/>
				</g>
				<g>
					<path class="st15" d="M1184.5,110.1l9,4.9v9.8l-9,4.9l-9-4.9V115L1184.5,110.1 M1184.5,108.9l-10,5.5v11l10,5.5l10-5.5v-11
						L1184.5,108.9L1184.5,108.9z"/>
				</g>
				<g>
					<path class="st15" d="M1203.5,110.1l9,4.9v9.8l-9,4.9l-9-4.9V115L1203.5,110.1 M1203.5,108.9l-10,5.5v11l10,5.5l10-5.5v-11
						L1203.5,108.9L1203.5,108.9z"/>
				</g>
				<g>
					<path class="st15" d="M1222.5,110.1l9,4.9v9.8l-9,4.9l-9-4.9V115L1222.5,110.1 M1222.5,108.9l-10,5.5v11l10,5.5l10-5.5v-11
						L1222.5,108.9L1222.5,108.9z"/>
				</g>
				<g>
					<path class="st15" d="M1241.5,110.1l9,4.9v9.8l-9,4.9l-9-4.9V115L1241.5,110.1 M1241.5,108.9l-10,5.5v11l10,5.5l10-5.5v-11
						L1241.5,108.9L1241.5,108.9z"/>
				</g>
				<g>
					<path class="st15" d="M1260.5,110.1l9,4.9v9.8l-9,4.9l-9-4.9V115L1260.5,110.1 M1260.5,108.9l-10,5.5v11l10,5.5l10-5.5v-11
						L1260.5,108.9L1260.5,108.9z"/>
				</g>
				<g>
					<path class="st15" d="M1279.5,110.1l9,4.9v9.8l-9,4.9l-9-4.9V115L1279.5,110.1 M1279.5,108.9l-10,5.5v11l10,5.5l10-5.5v-11
						L1279.5,108.9L1279.5,108.9z"/>
				</g>
				<g>
					<path class="st15" d="M1298.5,110.1l9,4.9v9.8l-9,4.9l-9-4.9V115L1298.5,110.1 M1298.5,108.9l-10,5.5v11l10,5.5l10-5.5v-11
						L1298.5,108.9L1298.5,108.9z"/>
				</g>
			</g>
		</g>
	</g>
	<polyline class="st23" points="925,131.3 925,14.3 1235,14.3 1235,131.3 	"/>
</g>
<g id="Advertising_board_L">
	<g id="Shadow" class="st12">
		<g>
			<polygon class="st13" points="458.2,72.8 476.9,107.6 756.6,107.6 775.2,72.8 			"/>
		</g>
	</g>
	<rect x="476.6" y="26.3" class="st24" width="280" height="80"/>
	<path class="st25" d="M606.9,49.3c1.8,0.8,3,1.9,3.2,2c-0.1-0.5-0.5-2.7-0.7-4.1c1.1,0.7,3.5,2.4,4.3,3c0.3-1,1.5-4.3,1.5-4.3
		s2,3.3,2.4,3.9c0.4-0.4,2.9-3.2,3.5-3.9c0.1,1.6,0.3,3.8,0.3,4.2c0.1-0.2,1.1-1.5,2.6-2.7c-0.7,1.3-1,3.2-1.2,4.7
		c-1.5-0.4-3.2-0.7-4.9-0.7c-3.2,0-6.3,0.9-8.9,2.3C608.6,52.3,607.9,50.5,606.9,49.3z M631.6,77.6l-1.4-1.6
		c-0.4,4.3-2.5,7.9-6.3,10.4l-0.6-2.3c-3.3,2.4-8.8,3.9-13.6,1.2c0.6-3,1.1-6.1,0-9.8c-2.7,4.1-5,5.7-5,5.7c-1.8-3-1.6-9.1-1.1-10.8
		l-3,0.9c0-2,1.5-6.3,3.6-8.8l-1.9-0.3l0,0c1.3-2.6,3.2-4.8,5.5-6.5l0,0c-0.7,1.1-0.7,3.8,1.3,4.8c-0.9-1.5-1-3.4-0.1-4.4
		s2.4-0.6,3.4,0.1c-0.3-0.8-1.1-1.9-2.4-2l0,0c2.4-1.2,5.1-1.9,8-1.9c0.5,0,1.1,0,1.6,0.1l0,0c0.8,0.3,2.1,1.5,2.6,2.2
		c0,0,0-0.9-0.4-1.9c3.1,0.8,4.6,2,5.2,2.6c0.1,1.3,0.5,2.2,1.1,3.4c-1-1.1-3.5-3-4.8-3.4c0,0-0.1,1.2-0.5,1.7
		c-2.4-1.7-3.6-2.2-3.6-2.2c-2.6,0.4-4.3,1.4-5.3,2.2l0.8,0.7c-1.6,0.5-2.6,1.9-2.6,1.9l1.4,0.2c0,0-0.1,1.7,1.9,2.7
		c1.8,0.9,4.3-0.2,6.8,0.8c-1.6-1.8-2.7-2.6-2.7-2.6s-0.6-0.1-1.1-0.1c-0.6,0-1.4,0.1-2.3-0.2c-0.4-0.2-0.9-0.5-1.3-0.7
		c0,0,1.1-1.1,2.7-1.4c0,0,1.5,0.4,2.6,1.3c0.8-0.8,1.6-0.7,1.6-0.7s-0.8,0.7-0.6,1.6c1.2,1,2.4,2.5,2.4,2.5
		c1.3-0.7,4.1-0.5,4.6,0.1c-0.7-0.9-1.8-1.7-2.6-2.4c-0.1-0.4-1-1.6-1.1-1.7c0,0,0.8,0.3,1.6,0.9c0.2-0.3,0.6-0.6,1.2-0.8
		c0.6,0.5,0.7,1.2,0.6,1.3c-0.3,0.3-0.5,0.4-0.5,0.4l1.4,1.5l0.1-1.1C632.1,65.9,633.8,71.1,631.6,77.6z M625.7,68v-2.3
		c0,0-1-0.3-2.1-1.2c-2.2,0.3-4.9,2.6-4.9,2.6s0.9,1.7,1.9,3.6C622.3,70.8,624.9,68.6,625.7,68z M627.9,72.2c0,0-0.2-1-0.9-1.8h-1.7
		c0,0-2.3,2-3.7,2c0,0,0.8,1.5,1.2,2.2c0.8-0.2,2.2-0.8,2.7-1.4c0,0,0.4,1.2,0.3,2.6C626.5,75.3,627.6,74.1,627.9,72.2z M628.6,64.6
		c-0.9,0.7-1.6,1.1-1.6,1.1V68c0.6,0.7,1.2,1.3,1.7,2.3C629.6,68.8,629.4,66.5,628.6,64.6z M507.8,74.8V55.2h6.2
		c4,0,7.1,2.4,7.1,6.5c0,4.2-3,6.6-7.1,6.6h-2.4v6.4L507.8,74.8L507.8,74.8z M511.6,64.7h2.2c1.9,0,3.3-1.1,3.3-3s-1.4-2.9-3.3-2.9
		h-2.2L511.6,64.7L511.6,64.7z M565.5,61.9h3.6v12.9h-3.6V61.9z M567.4,60.2c-1.3,0-2.2-1-2.2-2.2c0-1.3,1-2.2,2.2-2.2
		s2.2,1,2.2,2.2C569.6,59.2,568.6,60.2,567.4,60.2 M560.2,67.2c0-1.4-0.8-2.3-2-2.3c-1.4,0-2.1,0.9-2.1,2.3v7.6h-3.6v-7.6
		c0-1.4-0.8-2.3-2-2.3c-1.4,0-2.1,0.9-2.1,2.3v7.6h-3.6V61.9h3.1l0.4,1.7c0,0,0.8-2,3.2-2c1.5,0,2.7,0.6,3.6,1.9l0.1,0.1l0.1-0.1
		c1.3-1.8,2.8-1.9,3.8-1.9c2.7,0,4.6,2.1,4.6,5v8.2h-3.6L560.2,67.2L560.2,67.2z M585.1,74.8V61.9h3.1l0.4,1.9c0.6-1.2,1.7-2,3.3-2
		c0.3,0,0.7,0,1,0.1v3.4c-0.4-0.1-0.8-0.1-1.3-0.1c-1.7,0-2.9,1.1-2.9,3.1v6.5H585.1z M522.3,74.8V61.9h3.1l0.4,1.9
		c0.6-1.2,1.7-2,3.3-2c0.3,0,0.7,0,1,0.1v3.4c-0.4-0.1-0.8-0.1-1.3-0.1c-1.7,0-2.9,1.1-2.9,3.1v6.5H522.3z M577.4,75.1
		c-4,0-6.9-2.7-6.9-6.7c0-3.6,2.6-6.8,6.8-6.8c3.1,0,6.3,2.4,6.3,6.7c0,0.3,0,0.8-0.1,1.3h-9.4c0.3,1.4,1.6,2.4,3.2,2.4
		c1.4,0,2.5-0.5,3.5-1.5l2.2,2.2C581.6,74.3,579.6,75.1,577.4,75.1 M577.2,64.7c-1.5,0-2.7,0.9-3,2.3h6
		C579.9,65.6,578.7,64.7,577.2,64.7 M537.2,75.1c-4,0-6.9-2.7-6.9-6.7c0-3.6,2.6-6.8,6.8-6.8c3.1,0,6.3,2.4,6.3,6.7
		c0,0.3,0,0.8-0.1,1.3H534c0.3,1.4,1.6,2.4,3.2,2.4c1.4,0,2.5-0.5,3.5-1.5l2.2,2.2C541.4,74.3,539.4,75.1,537.2,75.1 M537,64.7
		c-1.5,0-2.7,0.9-3,2.3h6C539.7,65.6,538.5,64.7,537,64.7 M704.6,75.2c2.8,0,6.3-1.5,6.3-6.3V62h-3.6v6.6c0,2.1-1.2,3.2-2.7,3.2
		c-1.7,0-2.7-1-2.7-3.2V62h-3.6v6.9C698.3,73.6,701.8,75.2,704.6,75.2 M674,75.2c-3.4,0-6.4-3.1-6.4-6.8c0-3.6,3-6.6,6.4-6.6
		c1.9,0,3.2,0.7,4,1.9l0.4-1.7h3.1v12.9h-3.1l-0.4-1.6C677.2,74.4,675.7,75.2,674,75.2 M674.7,65c-1.9,0-3.4,1.4-3.4,3.4
		c0,1.9,1.4,3.4,3.4,3.4c1.9,0,3.3-1.5,3.3-3.4C678,66.4,676.6,65,674.7,65 M652.4,74.9v-3.6h-8.3v-16h-3.8v19.6H652.4z M660.1,75.2
		c-4,0-6.9-2.7-6.9-6.7c0-3.6,2.6-6.8,6.8-6.8c3.1,0,6.3,2.4,6.3,6.7c0,0.3,0,0.8-0.1,1.3h-9.4c0.3,1.4,1.6,2.4,3.2,2.4
		c1.4,0,2.5-0.5,3.5-1.5l2.2,2.2C664.3,74.3,662.3,75.2,660.1,75.2 M659.9,64.7c-1.5,0-2.7,0.9-3,2.3h6
		C662.6,65.7,661.4,64.7,659.9,64.7 M719.1,75.2c-4,0-6.9-2.7-6.9-6.7c0-3.6,2.6-6.8,6.8-6.8c3.1,0,6.3,2.4,6.3,6.7
		c0,0.3,0,0.8-0.1,1.3h-9.4c0.3,1.4,1.6,2.4,3.2,2.4c1.4,0,2.5-0.5,3.5-1.5l2.2,2.2C723.3,74.3,721.2,75.2,719.1,75.2 M718.9,64.7
		c-1.5,0-2.7,0.9-3,2.3h6C721.5,65.7,720.3,64.7,718.9,64.7 M689.9,65c-1.9,0-3.4,1.4-3.4,3.4c0,1.9,1.5,3.4,3.4,3.4
		s3.4-1.5,3.4-3.4C693.3,66.4,691.8,65,689.9,65 M693.1,63.6l0.4-1.6h3.1v12.3c0,2.4-0.7,4.1-2.3,5.3c-1.2,0.9-2.8,1.6-4.8,1.6
		c-2.7,0-4.6-0.9-6.2-2.4l2-2.7c1,0.9,2.3,1.7,3.9,1.7c2.6,0,3.8-1.3,3.8-3.2v-0.9c-1.1,1.1-2.3,1.5-3.7,1.5c-3.7,0-6.5-3-6.5-6.8
		s3-6.6,6.6-6.6C690.9,61.8,692.3,62.5,693.1,63.6"/>
</g>
<g id="Advertising_board_R">
	<g id="Shadow_2_" class="st12">
		<g>
			<polygon class="st13" points="1385.6,72.8 1404.3,107.6 1684,107.6 1702.6,72.8 			"/>
		</g>
	</g>
	<rect x="1404" y="26.3" class="st24" width="280" height="80"/>
	<path class="st25" d="M1534.3,49.3c1.8,0.8,3,1.9,3.2,2c-0.1-0.5-0.5-2.7-0.7-4.1c1.1,0.7,3.5,2.4,4.3,3c0.3-1,1.5-4.3,1.5-4.3
		s2,3.3,2.4,3.9c0.4-0.4,2.9-3.2,3.5-3.9c0.1,1.6,0.3,3.8,0.3,4.2c0.1-0.2,1.1-1.5,2.6-2.7c-0.7,1.3-1,3.2-1.2,4.7
		c-1.5-0.4-3.2-0.7-4.9-0.7c-3.2,0-6.3,0.9-8.9,2.3C1536,52.3,1535.3,50.5,1534.3,49.3z M1559,77.6l-1.4-1.6
		c-0.4,4.3-2.5,7.9-6.3,10.4l-0.6-2.3c-3.3,2.4-8.8,3.9-13.6,1.2c0.6-3,1.1-6.1,0-9.8c-2.7,4.1-5,5.7-5,5.7c-1.8-3-1.6-9.1-1.1-10.8
		l-3,0.9c0-2,1.5-6.3,3.6-8.8l-1.9-0.3l0,0c1.3-2.6,3.2-4.8,5.5-6.5l0,0c-0.7,1.1-0.7,3.8,1.3,4.8c-0.9-1.5-1-3.4-0.1-4.4
		s2.4-0.6,3.4,0.1c-0.3-0.8-1.1-1.9-2.4-2l0,0c2.4-1.2,5.1-1.9,8-1.9c0.5,0,1.1,0,1.6,0.1l0,0c0.8,0.3,2.1,1.5,2.6,2.2
		c0,0,0-0.9-0.4-1.9c3.1,0.8,4.6,2,5.2,2.6c0.1,1.3,0.5,2.2,1.1,3.4c-1-1.1-3.5-3-4.8-3.4c0,0-0.1,1.2-0.5,1.7
		c-2.4-1.7-3.6-2.2-3.6-2.2c-2.6,0.4-4.3,1.4-5.3,2.2l0.8,0.7c-1.6,0.5-2.6,1.9-2.6,1.9l1.4,0.2c0,0-0.1,1.7,1.9,2.7
		c1.8,0.9,4.3-0.2,6.8,0.8c-1.6-1.8-2.7-2.6-2.7-2.6s-0.6-0.1-1.1-0.1c-0.6,0-1.4,0.1-2.3-0.2c-0.4-0.2-0.9-0.5-1.3-0.7
		c0,0,1.1-1.1,2.7-1.4c0,0,1.5,0.4,2.6,1.3c0.8-0.8,1.6-0.7,1.6-0.7s-0.8,0.7-0.6,1.6c1.2,1,2.4,2.5,2.4,2.5
		c1.3-0.7,4.1-0.5,4.6,0.1c-0.7-0.9-1.8-1.7-2.6-2.4c-0.1-0.4-1-1.6-1.1-1.7c0,0,0.8,0.3,1.6,0.9c0.2-0.3,0.6-0.6,1.2-0.8
		c0.6,0.5,0.7,1.2,0.6,1.3c-0.3,0.3-0.5,0.4-0.5,0.4l1.4,1.5l0.1-1.1C1559.5,65.9,1561.2,71.1,1559,77.6z M1553.1,68v-2.3
		c0,0-1-0.3-2.1-1.2c-2.2,0.3-4.9,2.6-4.9,2.6s0.9,1.7,1.9,3.6C1549.7,70.8,1552.3,68.6,1553.1,68z M1555.3,72.2c0,0-0.2-1-0.9-1.8
		h-1.7c0,0-2.3,2-3.7,2c0,0,0.8,1.5,1.2,2.2c0.8-0.2,2.2-0.8,2.7-1.4c0,0,0.4,1.2,0.3,2.6C1553.9,75.3,1555,74.1,1555.3,72.2z
		 M1556.1,64.6c-0.9,0.7-1.6,1.1-1.6,1.1V68c0.6,0.7,1.2,1.3,1.7,2.3C1557,68.8,1556.9,66.5,1556.1,64.6z M1435.3,74.8V55.2h6.2
		c4,0,7.1,2.4,7.1,6.5c0,4.2-3,6.6-7.1,6.6h-2.4v6.4L1435.3,74.8L1435.3,74.8z M1439.1,64.7h2.2c1.9,0,3.3-1.1,3.3-3
		s-1.4-2.9-3.3-2.9h-2.2V64.7z M1492.9,61.9h3.6v12.9h-3.6V61.9z M1494.8,60.2c-1.3,0-2.2-1-2.2-2.2c0-1.3,1-2.2,2.2-2.2
		c1.3,0,2.2,1,2.2,2.2S1496,60.2,1494.8,60.2 M1487.6,67.2c0-1.4-0.8-2.3-2-2.3c-1.4,0-2.1,0.9-2.1,2.3v7.6h-3.6v-7.6
		c0-1.4-0.8-2.3-2-2.3c-1.4,0-2.1,0.9-2.1,2.3v7.6h-3.6V61.9h3.1l0.4,1.7c0,0,0.8-2,3.2-2c1.5,0,2.7,0.6,3.6,1.9l0.1,0.1l0.1-0.1
		c1.3-1.8,2.8-1.9,3.8-1.9c2.7,0,4.6,2.1,4.6,5v8.2h-3.6L1487.6,67.2L1487.6,67.2z M1512.5,74.8V61.9h3.1l0.4,1.9
		c0.6-1.2,1.7-2,3.3-2c0.3,0,0.7,0,1,0.1v3.4c-0.4-0.1-0.8-0.1-1.3-0.1c-1.7,0-2.9,1.1-2.9,3.1v6.5H1512.5z M1449.7,74.8V61.9h3.1
		l0.4,1.9c0.6-1.2,1.7-2,3.3-2c0.3,0,0.7,0,1,0.1v3.4c-0.4-0.1-0.8-0.1-1.3-0.1c-1.7,0-2.9,1.1-2.9,3.1v6.5H1449.7z M1504.8,75.1
		c-4,0-6.9-2.7-6.9-6.7c0-3.6,2.6-6.8,6.8-6.8c3.1,0,6.3,2.4,6.3,6.7c0,0.3,0,0.8-0.1,1.3h-9.4c0.3,1.4,1.6,2.4,3.2,2.4
		c1.4,0,2.5-0.5,3.5-1.5l2.2,2.2C1509,74.3,1507,75.1,1504.8,75.1 M1504.6,64.7c-1.5,0-2.7,0.9-3,2.3h6
		C1507.3,65.6,1506.1,64.7,1504.6,64.7 M1464.7,75.1c-4,0-6.9-2.7-6.9-6.7c0-3.6,2.6-6.8,6.8-6.8c3.1,0,6.3,2.4,6.3,6.7
		c0,0.3,0,0.8-0.1,1.3h-9.4c0.3,1.4,1.6,2.4,3.2,2.4c1.4,0,2.5-0.5,3.5-1.5l2.2,2.2C1468.8,74.3,1466.8,75.1,1464.7,75.1
		 M1464.5,64.7c-1.5,0-2.7,0.9-3,2.3h6C1467.1,65.6,1465.9,64.7,1464.5,64.7 M1632,75.2c2.8,0,6.3-1.5,6.3-6.3V62h-3.6v6.6
		c0,2.1-1.2,3.2-2.7,3.2c-1.7,0-2.7-1-2.7-3.2V62h-3.6v6.9C1625.7,73.6,1629.2,75.2,1632,75.2 M1601.4,75.2c-3.4,0-6.4-3.1-6.4-6.8
		c0-3.6,3-6.6,6.4-6.6c1.9,0,3.2,0.7,4,1.9l0.4-1.7h3.1v12.9h-3.1l-0.4-1.6C1604.6,74.4,1603.2,75.2,1601.4,75.2 M1602.1,65
		c-1.9,0-3.4,1.4-3.4,3.4c0,1.9,1.4,3.4,3.4,3.4c1.9,0,3.3-1.5,3.3-3.4C1605.4,66.4,1604,65,1602.1,65 M1579.8,74.9v-3.6h-8.3v-16
		h-3.8v19.6H1579.8z M1587.5,75.2c-4,0-6.9-2.7-6.9-6.7c0-3.6,2.6-6.8,6.8-6.8c3.1,0,6.3,2.4,6.3,6.7c0,0.3,0,0.8-0.1,1.3h-9.4
		c0.3,1.4,1.6,2.4,3.2,2.4c1.4,0,2.5-0.5,3.5-1.5l2.2,2.2C1591.7,74.3,1589.7,75.2,1587.5,75.2 M1587.3,64.7c-1.5,0-2.7,0.9-3,2.3h6
		C1590,65.7,1588.8,64.7,1587.3,64.7 M1646.5,75.2c-4,0-6.9-2.7-6.9-6.7c0-3.6,2.6-6.8,6.8-6.8c3.1,0,6.3,2.4,6.3,6.7
		c0,0.3,0,0.8-0.1,1.3h-9.4c0.3,1.4,1.6,2.4,3.2,2.4c1.4,0,2.5-0.5,3.5-1.5l2.2,2.2C1650.7,74.3,1648.7,75.2,1646.5,75.2
		 M1646.3,64.7c-1.5,0-2.7,0.9-3,2.3h6C1648.9,65.7,1647.7,64.7,1646.3,64.7 M1617.3,65c-1.9,0-3.4,1.4-3.4,3.4
		c0,1.9,1.5,3.4,3.4,3.4s3.4-1.5,3.4-3.4C1620.7,66.4,1619.2,65,1617.3,65 M1620.5,63.6l0.4-1.6h3.1v12.3c0,2.4-0.7,4.1-2.3,5.3
		c-1.2,0.9-2.8,1.6-4.8,1.6c-2.7,0-4.6-0.9-6.2-2.4l2-2.7c1,0.9,2.3,1.7,3.9,1.7c2.6,0,3.8-1.3,3.8-3.2v-0.9
		c-1.1,1.1-2.3,1.5-3.7,1.5c-3.7,0-6.5-3-6.5-6.8s3-6.6,6.6-6.6C1618.4,61.8,1619.7,62.5,1620.5,63.6"/>
</g>
</svg>
