<svg 
  width="2208"
  height="1428"
  x="24"
  y="24"
  xmlns="http://www.w3.org/2000/svg" 
  xmlns:xlink="http://www.w3.org/1999/xlink" 
  style="margin-left: .5rem; filter: drop-shadow(0 0 5px #1EE3CF); overflow: visible;"
>
 <style type="text/css">.st0{enable-background:new    ;}
	.st1{clip-path:url(#SVGID_2_);}
	.st2{fill:#01BA5C;}
	.st3{clip-path:url(#SVGID_4_);}
	.st4{clip-path:url(#SVGID_6_);fill:#00AE55;}
	.st5{clip-path:url(#SVGID_8_);fill:#00AE55;}
	.st6{clip-path:url(#SVGID_10_);fill:#00AE55;}
	.st7{clip-path:url(#SVGID_12_);fill:#00AE55;}
	.st8{clip-path:url(#SVGID_14_);fill:#00AE55;}
	.st9{clip-path:url(#SVGID_16_);fill:#00AE55;}
	.st10{clip-path:url(#SVGID_18_);}
	.st11{clip-path:url(#SVGID_20_);fill:#FFFFFF;}
	.st12{opacity:0.102;}
	.st13{fill-rule:evenodd;clip-rule:evenodd;}
	.st14{clip-path:url(#SVGID_22_);}
	.st15{fill:#CECECE;}
	.st16{clip-path:url(#SVGID_24_);}
	.st17{clip-path:url(#SVGID_26_);}
	.st18{clip-path:url(#SVGID_28_);}
	.st19{clip-path:url(#SVGID_30_);}
	.st20{clip-path:url(#SVGID_32_);}
	.st21{clip-path:url(#SVGID_34_);}
	.st22{clip-path:url(#SVGID_36_);}
	.st23{fill:none;stroke:#FFFFFF;stroke-width:7.89;stroke-miterlimit:10;}
	.st24{fill:#FFFFFF;}
	.st25{fill:#37003C;}</style>
 <g>
  <title>background</title>
  <rect fill="none" id="canvas_background" height="402" width="582" y="-1" x="-1"/>
 </g>
 <g>
  <title>Layer 1</title>
  <g id="Pitch_Layers_1_">
   <g id="Outer_pitch_green">
    <g id="svg_1" class="st0">
     <g id="svg_2">
      <defs>
       <polygon points="1.7,1380.3 392.7,73.1 1767.3,73.1 2158.3,1380.3      " id="SVGID_1_"/>
      </defs>
      <clipPath id="SVGID_2_">
       <use id="svg_3" xlink:href="#SVGID_1_"/>
      </clipPath>
      <g id="svg_4" class="st1">
       <polyline id="svg_5" points="1767.3,73.1 392.7,73.1 1.7,1380.3 2158.3,1380.3 1767.3,73.1      " class="st2"/>
      </g>
     </g>
    </g>
   </g>
   <g id="Mow_lines_clipped">
    <g id="svg_6" class="st0">
     <g id="svg_7">
      <defs>
       <polygon points="36.7,1379.6 402,129.5 1754.5,129.5 2119.7,1379.6      " id="SVGID_3_"/>
      </defs>
      <clipPath id="SVGID_4_">
       <use id="svg_8" xlink:href="#SVGID_3_"/>
      </clipPath>
      <g id="svg_9" class="st3">
       <g id="svg_10">
        <g id="svg_11">
         <defs>
          <polyline points="402,129.5 36.7,1379.6 2119.7,1379.6 1754.5,129.5 402,129.5         " id="SVGID_5_"/>
         </defs>
         <clipPath id="SVGID_6_">
          <use id="svg_12" xlink:href="#SVGID_5_"/>
         </clipPath>
         <path id="svg_13" d="m1079.3,866.5c-48.9,0 -95.8,7.8 -138.9,22c-43.5,14.3 -83.7,35.3 -118.5,61.6c-35.4,26.8 -65.6,59.2 -88.3,96.1c-23.2,37.7 -38.8,80.2 -44.1,126c-2.1,18.3 -2.5,36.5 -1.3,54.4c1.2,18.1 4.1,35.9 8.6,53.3c4.5,17.6 10.6,34.8 18.2,51.4c7.7,16.8 16.9,32.9 27.5,48.4l277.6,0c-10.5,-2.4 -20.7,-5.5 -30.6,-9.2c-9.9,-3.7 -19.5,-8 -28.7,-12.8c-9.2,-4.9 -18,-10.3 -26.4,-16.3s-16.3,-12.5 -23.8,-19.5c-11,-10.4 -20.6,-21.5 -28.8,-33.3c-8.1,-11.7 -14.8,-24 -19.9,-36.8c-5.1,-12.7 -8.8,-25.8 -10.9,-39.1c-2.1,-13.3 -2.7,-26.8 -1.8,-40.4c0.9,-13.5 3.3,-26.7 7.1,-39.5c3.8,-12.6 8.9,-24.9 15.3,-36.5c6.4,-11.6 14,-22.6 22.9,-32.9c8.8,-10.3 18.7,-19.8 29.8,-28.6c10.8,-8.6 22.3,-16.2 34.4,-22.7c12.1,-6.5 24.7,-12 37.8,-16.4s26.6,-7.8 40.4,-10c13.8,-2.2 28,-3.4 42.4,-3.4s28.5,1.1 42.4,3.4c13.9,2.2 27.4,5.6 40.5,10s25.8,9.9 37.8,16.4c12.1,6.5 23.6,14.1 34.4,22.7c11.1,8.8 21,18.4 29.8,28.6c8.8,10.3 16.5,21.3 22.9,32.9s11.6,23.8 15.4,36.5s6.2,25.9 7.2,39.5c0.9,13.6 0.3,27.1 -1.8,40.4c-2.1,13.4 -5.8,26.5 -10.9,39.1c-5.2,12.8 -11.8,25.1 -19.9,36.8c-8.1,11.8 -17.8,23 -28.8,33.3c-7.4,7 -15.4,13.5 -23.8,19.5s-17.2,11.4 -26.4,16.3c-9.2,4.9 -18.8,9.1 -28.7,12.8c-9.9,3.7 -20.1,6.7 -30.6,9.2l277.6,0c10.6,-15.5 19.8,-31.6 27.4,-48.4c7.6,-16.6 13.7,-33.8 18.2,-51.4c4.4,-17.4 7.3,-35.2 8.5,-53.3c1.2,-17.9 0.8,-36.1 -1.3,-54.4c-5.3,-45.8 -20.9,-88.3 -44.2,-126c-22.7,-36.9 -52.9,-69.3 -88.3,-96.1c-34.8,-26.3 -75,-47.3 -118.5,-61.6c-43.1,-14.3 -89.9,-22 -138.9,-22" class="st4"/>
        </g>
        <g id="svg_14">
         <defs>
          <polyline points="402,129.5 36.7,1379.6 2119.7,1379.6 1754.5,129.5 402,129.5         " id="SVGID_7_"/>
         </defs>
         <clipPath id="SVGID_8_">
          <use id="svg_15" xlink:href="#SVGID_7_"/>
         </clipPath>
         <path id="svg_16" d="m1079.3,658c-82.3,0 -161.4,12.2 -234.8,34.6c-74.6,22.8 -144.4,56.3 -206.4,98.9c-63.8,43.8 -119.9,97.7 -164.5,159.9c-46.4,64.7 -80.8,139 -97.9,220.8c-3.6,17.2 -6.4,34.4 -8.3,51.5c-2,17.3 -3.1,34.6 -3.5,51.9c-0.3,17.4 0.2,34.8 1.5,52.1c1.3,17.4 3.5,34.8 6.4,52l181.5,0c-0.3,-1 -0.7,-2 -1,-3s-0.7,-2 -1,-3s-0.7,-2 -1,-3s-0.6,-2 -1,-3c-5.1,-16.3 -9.2,-32.6 -12.3,-49.1c-3.1,-16.3 -5.2,-32.7 -6.3,-49.1c-1.1,-16.3 -1.3,-32.5 -0.5,-48.8c0.8,-16.1 2.5,-32.3 5.1,-48.4c2.6,-16 6,-31.6 10.3,-47c4.2,-15.2 9.3,-30.2 15.1,-44.9c5.8,-14.5 12.4,-28.8 19.7,-42.7c7.3,-13.8 15.3,-27.3 24.1,-40.5c8.4,-12.6 17.4,-24.8 26.9,-36.5s19.5,-22.9 30.1,-33.7c10.5,-10.7 21.5,-21.1 33.1,-31c11.5,-9.8 23.5,-19.3 35.9,-28.3c12.4,-8.9 25.1,-17.3 38.1,-25.1c12.9,-7.8 26.2,-15.1 39.8,-21.8c13.5,-6.7 27.3,-12.9 41.4,-18.6c14.1,-5.7 28.4,-10.8 43,-15.4c15,-4.8 30.2,-8.9 45.5,-12.5s30.7,-6.5 46.3,-8.9c15.5,-2.4 31.2,-4.1 47,-5.3s31.7,-1.8 47.7,-1.8s31.9,0.6 47.7,1.8c15.8,1.2 31.5,3 47,5.3c15.6,2.4 31,5.3 46.3,8.9c15.3,3.6 30.5,7.7 45.5,12.5c14.6,4.6 29,9.8 43,15.4c14.1,5.7 27.9,11.9 41.4,18.6c13.6,6.8 26.8,14 39.8,21.8s25.7,16.2 38.1,25.1c12.5,9 24.5,18.4 36,28.3c11.6,9.9 22.6,20.2 33.1,31c10.6,10.8 20.6,22.1 30.1,33.7c9.5,11.7 18.5,23.9 26.9,36.5c8.8,13.2 16.8,26.7 24.1,40.5c7.4,13.9 13.9,28.1 19.7,42.7c5.9,14.7 10.9,29.6 15.1,44.9c4.3,15.4 7.7,31.1 10.3,47c2.6,16.1 4.3,32.2 5.1,48.4c0.8,16.3 0.6,32.6 -0.5,48.8c-1.1,16.4 -3.2,32.8 -6.3,49.1c-3.1,16.5 -7.2,32.8 -12.3,49.1c-0.3,1 -0.6,2 -1,3c-0.3,1 -0.7,2 -1,3s-0.7,2 -1,3s-0.7,2 -1,3l181.5,0c3,-17.2 5.1,-34.5 6.4,-52c1.3,-17.3 1.8,-34.6 1.4,-52.1c-0.3,-17.3 -1.5,-34.6 -3.5,-51.9c-2,-17.2 -4.8,-34.3 -8.4,-51.5c-17.2,-81.8 -51.6,-156.1 -98,-220.8c-44.6,-62.1 -100.9,-116 -164.6,-159.9c-62,-42.6 -131.8,-76.1 -206.4,-98.9c-73.2,-22.4 -152.3,-34.6 -234.5,-34.6" class="st5"/>
        </g>
        <g id="svg_17">
         <defs>
          <polyline points="402,129.5 36.7,1379.6 2119.7,1379.6 1754.5,129.5 402,129.5         " id="SVGID_9_"/>
         </defs>
         <clipPath id="SVGID_10_">
          <use id="svg_18" xlink:href="#SVGID_9_"/>
         </clipPath>
         <path id="svg_19" d="m1079.2,476.2c-93,0 -183.1,10.8 -268.6,30.9c-86.8,20.4 -170.1,50.8 -247.6,89.8c-79.8,40.1 -154.5,89.9 -221.3,148.3c-69.6,60.8 -131.3,131.5 -181.3,211.1l-123.7,423.3l163.5,0c-0.9,-17.7 -1.1,-35.4 -0.6,-53.1c0.5,-17.5 1.6,-34.9 3.5,-52.3c1.8,-17.2 4.2,-34.4 7.3,-51.5c3,-16.9 6.7,-33.8 11,-50.5c6.4,-25 14,-49.4 22.9,-73.3c8.7,-23.5 18.6,-46.5 29.7,-68.8c10.9,-22.1 22.9,-43.6 36,-64.5c12.9,-20.7 26.9,-40.8 41.9,-60.4c7.1,-9.3 14.5,-18.5 22.1,-27.5c7.5,-9 15.3,-17.8 23.3,-26.4c7.9,-8.6 16,-17.1 24.3,-25.3s16.7,-16.3 25.3,-24.2c8.5,-7.8 17.1,-15.4 26,-22.8c8.8,-7.4 17.7,-14.7 26.8,-21.7c9.1,-7 18.3,-13.9 27.6,-20.6c9.3,-6.7 18.8,-13.1 28.3,-19.4c9.5,-6.3 19.2,-12.3 29,-18.3c9.7,-5.9 19.6,-11.6 29.6,-17.1c9.9,-5.5 20,-10.8 30.2,-16c10.1,-5.1 20.3,-10 30.6,-14.8s20.8,-9.3 31.3,-13.7s21.1,-8.6 31.8,-12.6c10.6,-4 21.4,-7.8 32.1,-11.4c10.8,-3.6 21.6,-7 32.4,-10.2c22.5,-6.6 45.1,-12.4 67.9,-17.3c22.7,-4.9 45.6,-9 68.6,-12.3s46.1,-5.7 69.5,-7.3c23.3,-1.6 46.8,-2.4 70.4,-2.4s47.1,0.8 70.4,2.4c23.3,1.6 46.5,4.1 69.5,7.3c23,3.3 45.9,7.4 68.6,12.3c22.8,4.9 45.5,10.7 67.9,17.3c10.9,3.2 21.7,6.6 32.4,10.2c10.8,3.6 21.5,7.4 32.1,11.4c10.7,4 21.3,8.2 31.8,12.6c10.5,4.4 21,9 31.3,13.7s20.5,9.7 30.6,14.8c10.2,5.1 20.2,10.5 30.2,16s19.9,11.2 29.6,17.1c9.8,5.9 19.5,12 29,18.3c9.6,6.3 19,12.8 28.3,19.4c9.4,6.7 18.6,13.6 27.6,20.6c9.1,7.1 18.1,14.3 26.9,21.7s17.5,15.1 26,22.8c8.6,7.9 17.1,16 25.3,24.2c8.3,8.3 16.4,16.7 24.3,25.3c8,8.7 15.7,17.5 23.3,26.4c7.6,9 15,18.2 22.1,27.5c15,19.6 29,39.7 42,60.4c13.1,20.9 25.2,42.5 36.1,64.5c11.1,22.4 21,45.3 29.8,68.8c8.9,23.8 16.5,48.3 22.9,73.3c4.3,16.8 8,33.6 11,50.5c3.1,17.1 5.5,34.3 7.4,51.5c1.8,17.4 3,34.8 3.5,52.3c0.5,17.7 0.3,35.4 -0.5,53.1l160.9,0l-125.6,-430c-50.3,-78.4 -112,-148.2 -181.3,-208.1c-66.6,-57.6 -141,-106.7 -220.4,-146.3c-77.2,-38.5 -160,-68.4 -246.2,-88.6c-84.7,-19.7 -174.2,-30.4 -266.6,-30.4" class="st6"/>
        </g>
        <g id="svg_20">
         <defs>
          <polyline points="402,129.5 36.7,1379.6 2119.7,1379.6 1754.5,129.5 402,129.5         " id="SVGID_11_"/>
         </defs>
         <clipPath id="SVGID_12_">
          <use id="svg_21" xlink:href="#SVGID_11_"/>
         </clipPath>
         <path id="svg_22" d="m1079.1,316.2c-72.4,0 -143.3,5 -212.2,14.5c-69.5,9.6 -137.5,23.9 -203.5,42.6c-67,18.9 -132.3,42.4 -195.4,70.1c-64.4,28.3 -126.9,61.3 -186.5,98.6l-45.3,155.1c1,-0.9 2.1,-1.8 3.1,-2.7s2.1,-1.8 3.1,-2.7s2.1,-1.8 3.1,-2.6c1,-0.9 2.1,-1.8 3.2,-2.6c11.8,-9.8 23.8,-19.4 36,-28.7c12.1,-9.3 24.4,-18.4 36.9,-27.2c12.4,-8.8 24.9,-17.4 37.6,-25.7c12.6,-8.3 25.4,-16.3 38.3,-24.1c12.8,-7.8 25.8,-15.3 38.9,-22.6c13,-7.3 26.2,-14.3 39.5,-21.1c13.2,-6.8 26.6,-13.3 40,-19.6c13.4,-6.3 26.9,-12.3 40.4,-18.1c13.6,-5.8 27.4,-11.4 41.2,-16.8c13.8,-5.3 27.6,-10.4 41.6,-15.3c13.9,-4.8 27.9,-9.5 41.9,-13.8c14,-4.4 28.1,-8.5 42.2,-12.4c14.3,-3.9 28.7,-7.6 43.1,-11.1c14.4,-3.4 28.9,-6.6 43.4,-9.6s29.1,-5.7 43.7,-8.1c14.6,-2.5 29.2,-4.7 43.8,-6.7c15,-2 30,-3.8 45.2,-5.3c15.1,-1.5 30.2,-2.8 45.4,-3.8s30.4,-1.8 45.6,-2.3s30.5,-0.8 45.7,-0.8s30.5,0.3 45.7,0.8s30.4,1.3 45.6,2.3s30.3,2.3 45.4,3.8s30.2,3.3 45.2,5.3c14.6,2 29.2,4.2 43.8,6.7c14.6,2.5 29.2,5.2 43.7,8.1c14.5,3 29,6.2 43.5,9.6s28.9,7.1 43.2,11.1c14.1,3.9 28.2,8 42.2,12.4s28,9 41.9,13.8c14,4.9 27.8,10 41.6,15.3c13.8,5.4 27.6,10.9 41.2,16.8c13.6,5.8 27.1,11.8 40.5,18.1c13.5,6.3 26.8,12.8 40,19.6c13.3,6.8 26.5,13.8 39.5,21.1c13.1,7.3 26.1,14.8 38.9,22.6c12.9,7.8 25.7,15.9 38.3,24.1c12.7,8.3 25.3,16.9 37.7,25.7c12.5,8.8 24.8,17.9 36.9,27.2c12.2,9.4 24.2,18.9 36,28.7c0.8,0.7 1.6,1.4 2.5,2c0.8,0.7 1.6,1.4 2.5,2.1c0.8,0.7 1.6,1.4 2.5,2.1c0.8,0.7 1.6,1.4 2.4,2.1l-45.1,-154.2c-59.5,-37.1 -121.8,-69.8 -186.1,-97.9c-62.9,-27.5 -128.1,-50.9 -194.9,-69.6c-65.8,-18.5 -133.6,-32.7 -202.9,-42.3c-68.8,-9.6 -139.5,-14.6 -211.7,-14.6" class="st7"/>
        </g>
        <g id="svg_23">
         <defs>
          <polyline points="402,129.5 36.7,1379.6 2119.7,1379.6 1754.5,129.5 402,129.5         " id="SVGID_13_"/>
         </defs>
         <clipPath id="SVGID_14_">
          <use id="svg_24" xlink:href="#SVGID_13_"/>
         </clipPath>
         <path id="svg_25" d="m1079.1,174.4c-64.7,0 -128.3,3.2 -190.7,9.4c-62.7,6.3 -124.5,15.6 -185.1,27.8c-61.2,12.3 -121.5,27.6 -180.7,45.8c-60,18.4 -119.1,39.9 -176.9,64.2l-29.7,101.6c11,-5.5 22,-11 33.1,-16.3s22.2,-10.4 33.3,-15.5c11.1,-5 22.3,-9.9 33.5,-14.6s22.3,-9.3 33.6,-13.8c16.7,-6.6 33.4,-13 50.3,-19.1c16.8,-6.1 33.7,-11.9 50.6,-17.4s33.8,-10.7 50.8,-15.7c16.9,-4.9 33.9,-9.6 51,-14c17.3,-4.5 34.6,-8.6 52,-12.5s34.8,-7.5 52.3,-10.9c17.4,-3.3 34.9,-6.4 52.4,-9.2c17.5,-2.8 35,-5.3 52.5,-7.5c17.9,-2.3 36,-4.3 54.1,-6s36.2,-3.1 54.3,-4.3c18.1,-1.1 36.3,-2 54.5,-2.6s36.4,-0.9 54.6,-0.9s36.4,0.3 54.6,0.9c18.2,0.6 36.4,1.4 54.5,2.6c18.1,1.1 36.3,2.6 54.3,4.3c18.1,1.7 36.1,3.7 54.1,6c17.5,2.2 35,4.7 52.5,7.5s35,5.8 52.4,9.2c17.5,3.3 34.9,7 52.3,10.9s34.8,8.1 52.1,12.5c17,4.4 34,9.1 51,14c17,5 34,10.2 50.9,15.7c17,5.5 33.8,11.3 50.6,17.4c16.9,6.1 33.7,12.5 50.3,19.1c11,4.4 22.1,8.9 33,13.6c11,4.7 22,9.5 32.9,14.4c11,4.9 21.9,10 32.8,15.2s21.8,10.5 32.6,16l-29.6,-101.4c-57.6,-24.2 -116.6,-45.5 -176.4,-63.8c-59,-18 -119.1,-33.3 -180.2,-45.5c-60.4,-12.1 -122,-21.4 -184.5,-27.6c-62.1,-6.3 -125.5,-9.5 -190,-9.5" class="st8"/>
        </g>
        <g id="svg_26">
         <defs>
          <polyline points="402,129.5 36.7,1379.6 2119.7,1379.6 1754.5,129.5 402,129.5         " id="SVGID_15_"/>
         </defs>
         <clipPath id="SVGID_16_">
          <use id="svg_27" xlink:href="#SVGID_15_"/>
         </clipPath>
         <path id="svg_28" d="m787.5,129.5l-312.7,0c-6.7,1.8 -13.3,3.7 -20,5.6c-6.7,1.9 -13.3,3.8 -19.9,5.8s-13.3,4 -19.9,6s-13.3,4.1 -19.9,6.2l-23.4,80c18,-6.5 36.1,-12.8 54.2,-18.8c18,-6 36.2,-11.7 54.3,-17.2c18.1,-5.5 36.2,-10.7 54.4,-15.6c18.1,-4.9 36.2,-9.6 54.4,-14c16.5,-4 33,-7.8 49.5,-11.4c16.5,-3.6 33.1,-6.9 49.6,-10.1c16.5,-3.2 33.1,-6.1 49.7,-8.9c16.6,-2.7 33.1,-5.2 49.7,-7.6m895.8,0l-312.7,0c16.6,2.3 33.2,4.9 49.7,7.6c16.6,2.8 33.2,5.7 49.7,8.9c16.6,3.2 33.1,6.5 49.6,10.1c16.6,3.6 33.1,7.4 49.5,11.4c18,4.4 36,9 53.9,13.9c18,4.9 36,10 53.9,15.4c18,5.4 36,11.1 53.9,17c18,6 35.9,12.2 53.7,18.6l-23.3,-79.9c-6.5,-2 -13,-4.1 -19.4,-6c-6.5,-2 -13,-3.9 -19.5,-5.9c-6.5,-1.9 -13,-3.8 -19.5,-5.7c-6.4,-1.8 -12.9,-3.6 -19.5,-5.4" class="st9"/>
        </g>
       </g>
      </g>
     </g>
    </g>
   </g>
   <g id="Pitch_Markings">
    <g id="svg_29" class="st0">
     <g id="svg_30">
      <defs>
       <polygon points="37.6,1380.2 402.9,130.1 1755.4,130.1 2120.6,1380.2      " id="SVGID_17_"/>
      </defs>
      <clipPath id="SVGID_18_">
       <use id="svg_31" xlink:href="#SVGID_17_"/>
      </clipPath>
      <g id="svg_32" class="st10">
       <g id="svg_33">
        <g id="svg_34">
         <defs>
          <polyline points="402.9,130.1 37.6,1380.2 2120.6,1380.2 1755.4,130.1 402.9,130.1         " id="SVGID_19_"/>
         </defs>
         <clipPath id="SVGID_20_">
          <use id="svg_35" xlink:href="#SVGID_19_"/>
         </clipPath>
         <path id="svg_36" d="m1755.4,130.1l-1352.5,0l-365.3,1250.1l7.9,0l59.3,-204.7l735.4,0c-1.2,22.7 2,44.8 8.9,65.7c7,21.2 17.8,41.1 31.9,59.1c14.2,18.2 31.8,34.4 51.9,47.9c20.3,13.6 43.3,24.5 68.2,32l36.9,0c-28.4,-4.5 -54.9,-13.4 -78.7,-26c-23.6,-12.5 -44.2,-28.4 -61.2,-46.9c-16.8,-18.3 -29.8,-39.2 -38.3,-61.6c-8.4,-22.1 -12.4,-45.8 -11.2,-70.2l204.8,0c0.5,2.7 1.5,5.3 3,7.6c1.5,2.3 3.5,4.4 5.8,6.1s5,3.1 7.9,4.1s6.1,1.5 9.4,1.5s6.5,-0.5 9.4,-1.5s5.6,-2.3 7.9,-4.1c2.3,-1.7 4.3,-3.8 5.8,-6.1c1.5,-2.3 2.5,-4.9 3,-7.6l204.8,0c1.2,24.4 -2.8,48.1 -11.2,70.2c-8.5,22.4 -21.5,43.3 -38.3,61.6c-16.9,18.5 -37.6,34.5 -61.1,46.9c-23.7,12.5 -50.3,21.5 -78.6,26l36.9,0c24.9,-7.5 47.8,-18.4 68.2,-32c20.2,-13.5 37.7,-29.7 51.9,-47.9c14.1,-18 24.9,-37.9 31.9,-59.1c6.9,-20.9 10,-43 8.9,-65.7l735.4,0l59.4,204.7l6.8,0l-365.2,-1250.1zm-3.7,2.6l8.5,29.5c-6.7,-0.3 -13.2,-1.4 -19.3,-3c-6.1,-1.6 -11.9,-3.8 -17,-6.4c-5.1,-2.6 -9.6,-5.7 -13.2,-9.1c-3.6,-3.4 -6.3,-7 -7.9,-10.9l48.9,0l0,-0.1zm-840.1,0l335.7,0l3.6,49.3l-342.8,0l3.5,-49.3zm-5.8,0l-4,52.9l355.4,0l-4,-52.9l130,0l12.9,98.2l-633.2,0l12.9,-98.2l130,0l0,0zm289.9,102.1c-4.4,7.4 -10.5,14.2 -18.1,20.2c-7.6,6.1 -16.7,11.4 -26.8,15.8c-10.2,4.4 -21.5,7.9 -33.5,10.3s-24.7,3.7 -37.8,3.7s-25.8,-1.3 -37.8,-3.7c-12,-2.4 -23.3,-5.9 -33.5,-10.3s-19.2,-9.7 -26.8,-15.8c-7.6,-6.1 -13.7,-12.9 -18.1,-20.2l232.4,0l0,0zm-788.4,-102.1l49,0c-1.6,3.9 -4.3,7.6 -7.9,10.9c-3.6,3.4 -8.1,6.5 -13.2,9.1s-10.9,4.8 -17,6.4c-6.2,1.6 -12.7,2.7 -19.4,3l8.5,-29.4zm698.3,1035.6c-0.5,-2.7 -1.6,-5.2 -3.1,-7.5s-3.5,-4.3 -5.8,-6s-4.9,-3 -7.8,-4c-2.9,-0.9 -6,-1.4 -9.2,-1.4s-6.4,0.5 -9.2,1.4c-2.9,0.9 -5.5,2.3 -7.8,4s-4.3,3.7 -5.8,6s-2.6,4.8 -3.1,7.5l-204.5,0c2.4,-26.7 10.8,-51.8 23.9,-74.3c12.9,-22.2 30.5,-41.8 51.3,-58.2c20.7,-16.2 44.7,-29.2 70.9,-38.1c26.1,-8.9 54.5,-13.7 84.2,-13.7s58.1,4.9 84.2,13.7c26.2,8.9 50.2,21.9 70.9,38.1c20.9,16.3 38.4,36 51.3,58.2c13.1,22.5 21.6,47.5 24,74.3l-204.4,0zm212.9,0c-2.5,-27.7 -11.3,-53.7 -25,-76.9c-13.5,-22.9 -31.6,-43.3 -53.3,-60.2c-21.4,-16.7 -46.3,-30.1 -73.5,-39.3c-27,-9.1 -56.4,-14.2 -87.1,-14.2s-60.1,5 -87.1,14.2c-27.2,9.2 -52,22.6 -73.5,39.3c-21.6,16.9 -39.8,37.3 -53.3,60.2c-13.6,23.3 -22.4,49.2 -25,76.9l-733.7,0l290.7,-1002.6c7.5,-0.3 14.9,-1.5 21.8,-3.3s13.4,-4.3 19.2,-7.2c5.7,-3 10.8,-6.4 14.8,-10.2s7,-7.9 8.8,-12.3l307.7,0l-13.6,101.9l200.4,0c4.4,8 10.7,15.3 18.6,21.9c8,6.6 17.5,12.4 28.3,17.1c10.8,4.8 22.8,8.6 35.6,11.2s26.4,4 40.4,4s27.6,-1.4 40.4,-4s24.8,-6.4 35.6,-11.2c10.8,-4.8 20.3,-10.6 28.3,-17.1c7.9,-6.6 14.2,-13.9 18.6,-21.9l200.4,0l-13.6,-101.9l307.6,0c1.7,4.3 4.7,8.5 8.7,12.3s9,7.2 14.7,10.2s12.2,5.4 19.1,7.2s14.3,3 21.7,3.3l291,1002.6l-733.7,0z" class="st11"/>
        </g>
       </g>
      </g>
     </g>
    </g>
   </g>
  </g>
  <g id="Goal_1_">
   <g class="st12" id="Goal_shad_1_">
    <g id="svg_37">
     <polygon id="svg_38" points="892,73 922,130 1237,130 1267,73    " class="st13"/>
    </g>
   </g>
   <g id="NET_2_">
    <g id="svg_39">
     <defs>
      <rect height="114.9" width="304.5" y="17.7" x="927.5" id="SVGID_21_"/>
     </defs>
     <clipPath id="SVGID_22_">
      <use id="svg_40" xlink:href="#SVGID_21_"/>
     </clipPath>
     <g id="svg_41" class="st14">
      <g id="svg_42">
       <path id="svg_43" d="m928,-2.7l9,4.9l0,9.8l-9,4.9l-9,-4.9l0,-9.8l9,-4.9m0,-1.2l-10,5.5l0,11l10,5.5l10,-5.5l0,-11l-10,-5.5l0,0z" class="st15"/>
      </g>
      <g id="svg_44">
       <path id="svg_45" d="m947,-2.7l9,4.9l0,9.8l-9,4.9l-9,-4.9l0,-9.8l9,-4.9m0,-1.2l-10,5.5l0,11l10,5.5l10,-5.5l0,-11l-10,-5.5l0,0z" class="st15"/>
      </g>
      <g id="svg_46">
       <path id="svg_47" d="m966,-2.7l9,4.9l0,9.8l-9,4.9l-9,-4.9l0,-9.8l9,-4.9m0,-1.2l-10,5.5l0,11l10,5.5l10,-5.5l0,-11l-10,-5.5l0,0z" class="st15"/>
      </g>
      <g id="svg_48">
       <path id="svg_49" d="m985,-2.7l9,4.9l0,9.8l-9,4.9l-9,-4.9l0,-9.8l9,-4.9m0,-1.2l-10,5.5l0,11l10,5.5l10,-5.5l0,-11l-10,-5.5l0,0z" class="st15"/>
      </g>
      <g id="svg_50">
       <path id="svg_51" d="m1004,-2.7l9,4.9l0,9.8l-9,4.9l-9,-4.9l0,-9.8l9,-4.9m0,-1.2l-10,5.5l0,11l10,5.5l10,-5.5l0,-11l-10,-5.5l0,0z" class="st15"/>
      </g>
      <g id="svg_52">
       <path id="svg_53" d="m1023,-2.7l9,4.9l0,9.8l-9,4.9l-9,-4.9l0,-9.8l9,-4.9m0,-1.2l-10,5.5l0,11l10,5.5l10,-5.5l0,-11l-10,-5.5l0,0z" class="st15"/>
      </g>
      <g id="svg_54">
       <path id="svg_55" d="m1042,-2.7l9,4.9l0,9.8l-9,4.9l-9,-4.9l0,-9.8l9,-4.9m0,-1.2l-10,5.5l0,11l10,5.5l10,-5.5l0,-11l-10,-5.5l0,0z" class="st15"/>
      </g>
      <g id="svg_56">
       <path id="svg_57" d="m1061,-2.7l9,4.9l0,9.8l-9,4.9l-9,-4.9l0,-9.8l9,-4.9m0,-1.2l-10,5.5l0,11l10,5.5l10,-5.5l0,-11l-10,-5.5l0,0z" class="st15"/>
      </g>
      <g id="svg_58">
       <path id="svg_59" d="m1080,-2.7l9,4.9l0,9.8l-9,4.9l-9,-4.9l0,-9.8l9,-4.9m0,-1.2l-10,5.5l0,11l10,5.5l10,-5.5l0,-11l-10,-5.5l0,0z" class="st15"/>
      </g>
      <g id="svg_60">
       <path id="svg_61" d="m1099,-2.7l9,4.9l0,9.8l-9,4.9l-9,-4.9l0,-9.8l9,-4.9m0,-1.2l-10,5.5l0,11l10,5.5l10,-5.5l0,-11l-10,-5.5l0,0z" class="st15"/>
      </g>
      <g id="svg_62">
       <path id="svg_63" d="m1118,-2.7l9,4.9l0,9.8l-9,4.9l-9,-4.9l0,-9.8l9,-4.9m0,-1.2l-10,5.5l0,11l10,5.5l10,-5.5l0,-11l-10,-5.5l0,0z" class="st15"/>
      </g>
      <g id="svg_64">
       <path id="svg_65" d="m1137,-2.7l9,4.9l0,9.8l-9,4.9l-9,-4.9l0,-9.8l9,-4.9m0,-1.2l-10,5.5l0,11l10,5.5l10,-5.5l0,-11l-10,-5.5l0,0z" class="st15"/>
      </g>
      <g id="svg_66">
       <path id="svg_67" d="m1156,-2.7l9,4.9l0,9.8l-9,4.9l-9,-4.9l0,-9.8l9,-4.9m0,-1.2l-10,5.5l0,11l10,5.5l10,-5.5l0,-11l-10,-5.5l0,0z" class="st15"/>
      </g>
      <g id="svg_68">
       <path id="svg_69" d="m1175,-2.7l9,4.9l0,9.8l-9,4.9l-9,-4.9l0,-9.8l9,-4.9m0,-1.2l-10,5.5l0,11l10,5.5l10,-5.5l0,-11l-10,-5.5l0,0z" class="st15"/>
      </g>
      <g id="svg_70">
       <path id="svg_71" d="m1194,-2.7l9,4.9l0,9.8l-9,4.9l-9,-4.9l0,-9.8l9,-4.9m0,-1.2l-10,5.5l0,11l10,5.5l10,-5.5l0,-11l-10,-5.5l0,0z" class="st15"/>
      </g>
      <g id="svg_72">
       <path id="svg_73" d="m1213,-2.7l9,4.9l0,9.8l-9,4.9l-9,-4.9l0,-9.8l9,-4.9m0,-1.2l-10,5.5l0,11l10,5.5l10,-5.5l0,-11l-10,-5.5l0,0z" class="st15"/>
      </g>
      <g id="svg_74">
       <path id="svg_75" d="m1232,-2.7l9,4.9l0,9.8l-9,4.9l-9,-4.9l0,-9.8l9,-4.9m0,-1.2l-10,5.5l0,11l10,5.5l10,-5.5l0,-11l-10,-5.5l0,0z" class="st15"/>
      </g>
      <g id="svg_76">
       <path id="svg_77" d="m1251,-2.7l9,4.9l0,9.8l-9,4.9l-9,-4.9l0,-9.8l9,-4.9m0,-1.2l-10,5.5l0,11l10,5.5l10,-5.5l0,-11l-10,-5.5l0,0z" class="st15"/>
      </g>
      <g id="svg_78">
       <path id="svg_79" d="m1270,-2.7l9,4.9l0,9.8l-9,4.9l-9,-4.9l0,-9.8l9,-4.9m0,-1.2l-10,5.5l0,11l10,5.5l10,-5.5l0,-11l-10,-5.5l0,0z" class="st15"/>
      </g>
      <g id="svg_80">
       <path id="svg_81" d="m1289,-2.7l9,4.9l0,9.8l-9,4.9l-9,-4.9l0,-9.8l9,-4.9m0,-1.2l-10,5.5l0,11l10,5.5l10,-5.5l0,-11l-10,-5.5l0,0z" class="st15"/>
      </g>
     </g>
    </g>
    <g id="svg_82">
     <defs>
      <rect height="114.9" width="304.5" y="17.7" x="927.5" id="SVGID_23_"/>
     </defs>
     <clipPath id="SVGID_24_">
      <use id="svg_83" xlink:href="#SVGID_23_"/>
     </clipPath>
     <g id="svg_84" class="st16">
      <g id="svg_85">
       <path id="svg_86" d="m937.5,13.3l9,4.9l0,9.8l-9,4.9l-9,-4.9l0,-9.8l9,-4.9m0,-1.1l-10,5.5l0,11l10,5.5l10,-5.5l0,-11l-10,-5.5l0,0z" class="st15"/>
      </g>
      <g id="svg_87">
       <path id="svg_88" d="m956.5,13.3l9,4.9l0,9.8l-9,4.9l-9,-4.9l0,-9.8l9,-4.9m0,-1.1l-10,5.5l0,11l10,5.5l10,-5.5l0,-11l-10,-5.5l0,0z" class="st15"/>
      </g>
      <g id="svg_89">
       <path id="svg_90" d="m975.5,13.3l9,4.9l0,9.8l-9,4.9l-9,-4.9l0,-9.8l9,-4.9m0,-1.1l-10,5.5l0,11l10,5.5l10,-5.5l0,-11l-10,-5.5l0,0z" class="st15"/>
      </g>
      <g id="svg_91">
       <path id="svg_92" d="m994.5,13.3l9,4.9l0,9.8l-9,4.9l-9,-4.9l0,-9.8l9,-4.9m0,-1.1l-10,5.5l0,11l10,5.5l10,-5.5l0,-11l-10,-5.5l0,0z" class="st15"/>
      </g>
      <g id="svg_93">
       <path id="svg_94" d="m1013.5,13.3l9,4.9l0,9.8l-9,4.9l-9,-4.9l0,-9.8l9,-4.9m0,-1.1l-10,5.5l0,11l10,5.5l10,-5.5l0,-11l-10,-5.5l0,0z" class="st15"/>
      </g>
      <g id="svg_95">
       <path id="svg_96" d="m1032.5,13.3l9,4.9l0,9.8l-9,4.9l-9,-4.9l0,-9.8l9,-4.9m0,-1.1l-10,5.5l0,11l10,5.5l10,-5.5l0,-11l-10,-5.5l0,0z" class="st15"/>
      </g>
      <g id="svg_97">
       <path id="svg_98" d="m1051.5,13.3l9,4.9l0,9.8l-9,4.9l-9,-4.9l0,-9.8l9,-4.9m0,-1.1l-10,5.5l0,11l10,5.5l10,-5.5l0,-11l-10,-5.5l0,0z" class="st15"/>
      </g>
      <g id="svg_99">
       <path id="svg_100" d="m1070.5,13.3l9,4.9l0,9.8l-9,4.9l-9,-4.9l0,-9.8l9,-4.9m0,-1.1l-10,5.5l0,11l10,5.5l10,-5.5l0,-11l-10,-5.5l0,0z" class="st15"/>
      </g>
      <g id="svg_101">
       <path id="svg_102" d="m1089.5,13.3l9,4.9l0,9.8l-9,4.9l-9,-4.9l0,-9.8l9,-4.9m0,-1.1l-10,5.5l0,11l10,5.5l10,-5.5l0,-11l-10,-5.5l0,0z" class="st15"/>
      </g>
      <g id="svg_103">
       <path id="svg_104" d="m1108.5,13.3l9,4.9l0,9.8l-9,4.9l-9,-4.9l0,-9.8l9,-4.9m0,-1.1l-10,5.5l0,11l10,5.5l10,-5.5l0,-11l-10,-5.5l0,0z" class="st15"/>
      </g>
      <g id="svg_105">
       <path id="svg_106" d="m1127.5,13.3l9,4.9l0,9.8l-9,4.9l-9,-4.9l0,-9.8l9,-4.9m0,-1.1l-10,5.5l0,11l10,5.5l10,-5.5l0,-11l-10,-5.5l0,0z" class="st15"/>
      </g>
      <g id="svg_107">
       <path id="svg_108" d="m1146.5,13.3l9,4.9l0,9.8l-9,4.9l-9,-4.9l0,-9.8l9,-4.9m0,-1.1l-10,5.5l0,11l10,5.5l10,-5.5l0,-11l-10,-5.5l0,0z" class="st15"/>
      </g>
      <g id="svg_109">
       <path id="svg_110" d="m1165.5,13.3l9,4.9l0,9.8l-9,4.9l-9,-4.9l0,-9.8l9,-4.9m0,-1.1l-10,5.5l0,11l10,5.5l10,-5.5l0,-11l-10,-5.5l0,0z" class="st15"/>
      </g>
      <g id="svg_111">
       <path id="svg_112" d="m1184.5,13.3l9,4.9l0,9.8l-9,4.9l-9,-4.9l0,-9.8l9,-4.9m0,-1.1l-10,5.5l0,11l10,5.5l10,-5.5l0,-11l-10,-5.5l0,0z" class="st15"/>
      </g>
      <g id="svg_113">
       <path id="svg_114" d="m1203.5,13.3l9,4.9l0,9.8l-9,4.9l-9,-4.9l0,-9.8l9,-4.9m0,-1.1l-10,5.5l0,11l10,5.5l10,-5.5l0,-11l-10,-5.5l0,0z" class="st15"/>
      </g>
      <g id="svg_115">
       <path id="svg_116" d="m1222.5,13.3l9,4.9l0,9.8l-9,4.9l-9,-4.9l0,-9.8l9,-4.9m0,-1.1l-10,5.5l0,11l10,5.5l10,-5.5l0,-11l-10,-5.5l0,0z" class="st15"/>
      </g>
      <g id="svg_117">
       <path id="svg_118" d="m1241.5,13.3l9,4.9l0,9.8l-9,4.9l-9,-4.9l0,-9.8l9,-4.9m0,-1.1l-10,5.5l0,11l10,5.5l10,-5.5l0,-11l-10,-5.5l0,0z" class="st15"/>
      </g>
      <g id="svg_119">
       <path id="svg_120" d="m1260.5,13.3l9,4.9l0,9.8l-9,4.9l-9,-4.9l0,-9.8l9,-4.9m0,-1.1l-10,5.5l0,11l10,5.5l10,-5.5l0,-11l-10,-5.5l0,0z" class="st15"/>
      </g>
      <g id="svg_121">
       <path id="svg_122" d="m1279.5,13.3l9,4.9l0,9.8l-9,4.9l-9,-4.9l0,-9.8l9,-4.9m0,-1.1l-10,5.5l0,11l10,5.5l10,-5.5l0,-11l-10,-5.5l0,0z" class="st15"/>
      </g>
      <g id="svg_123">
       <path id="svg_124" d="m1298.5,13.3l9,4.9l0,9.8l-9,4.9l-9,-4.9l0,-9.8l9,-4.9m0,-1.1l-10,5.5l0,11l10,5.5l10,-5.5l0,-11l-10,-5.5l0,0z" class="st15"/>
      </g>
     </g>
    </g>
    <g id="svg_125">
     <defs>
      <rect height="114.9" width="304.5" y="17.7" x="927.5" id="SVGID_25_"/>
     </defs>
     <clipPath id="SVGID_26_">
      <use id="svg_126" xlink:href="#SVGID_25_"/>
     </clipPath>
     <g id="svg_127" class="st17">
      <g id="svg_128">
       <path id="svg_129" d="m928,29.5l9,4.9l0,9.8l-9,4.9l-9,-4.9l0,-9.8l9,-4.9m0,-1.1l-10,5.5l0,11l10,5.5l10,-5.5l0,-11l-10,-5.5l0,0z" class="st15"/>
      </g>
      <g id="svg_130">
       <path id="svg_131" d="m947,29.5l9,4.9l0,9.8l-9,4.9l-9,-4.9l0,-9.8l9,-4.9m0,-1.1l-10,5.5l0,11l10,5.5l10,-5.5l0,-11l-10,-5.5l0,0z" class="st15"/>
      </g>
      <g id="svg_132">
       <path id="svg_133" d="m966,29.5l9,4.9l0,9.8l-9,4.9l-9,-4.9l0,-9.8l9,-4.9m0,-1.1l-10,5.5l0,11l10,5.5l10,-5.5l0,-11l-10,-5.5l0,0z" class="st15"/>
      </g>
      <g id="svg_134">
       <path id="svg_135" d="m985,29.5l9,4.9l0,9.8l-9,4.9l-9,-4.9l0,-9.8l9,-4.9m0,-1.1l-10,5.5l0,11l10,5.5l10,-5.5l0,-11l-10,-5.5l0,0z" class="st15"/>
      </g>
      <g id="svg_136">
       <path id="svg_137" d="m1004,29.5l9,4.9l0,9.8l-9,4.9l-9,-4.9l0,-9.8l9,-4.9m0,-1.1l-10,5.5l0,11l10,5.5l10,-5.5l0,-11l-10,-5.5l0,0z" class="st15"/>
      </g>
      <g id="svg_138">
       <path id="svg_139" d="m1023,29.5l9,4.9l0,9.8l-9,4.9l-9,-4.9l0,-9.8l9,-4.9m0,-1.1l-10,5.5l0,11l10,5.5l10,-5.5l0,-11l-10,-5.5l0,0z" class="st15"/>
      </g>
      <g id="svg_140">
       <path id="svg_141" d="m1042,29.5l9,4.9l0,9.8l-9,4.9l-9,-4.9l0,-9.8l9,-4.9m0,-1.1l-10,5.5l0,11l10,5.5l10,-5.5l0,-11l-10,-5.5l0,0z" class="st15"/>
      </g>
      <g id="svg_142">
       <path id="svg_143" d="m1061,29.5l9,4.9l0,9.8l-9,4.9l-9,-4.9l0,-9.8l9,-4.9m0,-1.1l-10,5.5l0,11l10,5.5l10,-5.5l0,-11l-10,-5.5l0,0z" class="st15"/>
      </g>
      <g id="svg_144">
       <path id="svg_145" d="m1080,29.5l9,4.9l0,9.8l-9,4.9l-9,-4.9l0,-9.8l9,-4.9m0,-1.1l-10,5.5l0,11l10,5.5l10,-5.5l0,-11l-10,-5.5l0,0z" class="st15"/>
      </g>
      <g id="svg_146">
       <path id="svg_147" d="m1099,29.5l9,4.9l0,9.8l-9,4.9l-9,-4.9l0,-9.8l9,-4.9m0,-1.1l-10,5.5l0,11l10,5.5l10,-5.5l0,-11l-10,-5.5l0,0z" class="st15"/>
      </g>
      <g id="svg_148">
       <path id="svg_149" d="m1118,29.5l9,4.9l0,9.8l-9,4.9l-9,-4.9l0,-9.8l9,-4.9m0,-1.1l-10,5.5l0,11l10,5.5l10,-5.5l0,-11l-10,-5.5l0,0z" class="st15"/>
      </g>
      <g id="svg_150">
       <path id="svg_151" d="m1137,29.5l9,4.9l0,9.8l-9,4.9l-9,-4.9l0,-9.8l9,-4.9m0,-1.1l-10,5.5l0,11l10,5.5l10,-5.5l0,-11l-10,-5.5l0,0z" class="st15"/>
      </g>
      <g id="svg_152">
       <path id="svg_153" d="m1156,29.5l9,4.9l0,9.8l-9,4.9l-9,-4.9l0,-9.8l9,-4.9m0,-1.1l-10,5.5l0,11l10,5.5l10,-5.5l0,-11l-10,-5.5l0,0z" class="st15"/>
      </g>
      <g id="svg_154">
       <path id="svg_155" d="m1175,29.5l9,4.9l0,9.8l-9,4.9l-9,-4.9l0,-9.8l9,-4.9m0,-1.1l-10,5.5l0,11l10,5.5l10,-5.5l0,-11l-10,-5.5l0,0z" class="st15"/>
      </g>
      <g id="svg_156">
       <path id="svg_157" d="m1194,29.5l9,4.9l0,9.8l-9,4.9l-9,-4.9l0,-9.8l9,-4.9m0,-1.1l-10,5.5l0,11l10,5.5l10,-5.5l0,-11l-10,-5.5l0,0z" class="st15"/>
      </g>
      <g id="svg_158">
       <path id="svg_159" d="m1213,29.5l9,4.9l0,9.8l-9,4.9l-9,-4.9l0,-9.8l9,-4.9m0,-1.1l-10,5.5l0,11l10,5.5l10,-5.5l0,-11l-10,-5.5l0,0z" class="st15"/>
      </g>
      <g id="svg_160">
       <path id="svg_161" d="m1232,29.5l9,4.9l0,9.8l-9,4.9l-9,-4.9l0,-9.8l9,-4.9m0,-1.1l-10,5.5l0,11l10,5.5l10,-5.5l0,-11l-10,-5.5l0,0z" class="st15"/>
      </g>
      <g id="svg_162">
       <path id="svg_163" d="m1251,29.5l9,4.9l0,9.8l-9,4.9l-9,-4.9l0,-9.8l9,-4.9m0,-1.1l-10,5.5l0,11l10,5.5l10,-5.5l0,-11l-10,-5.5l0,0z" class="st15"/>
      </g>
      <g id="svg_164">
       <path id="svg_165" d="m1270,29.5l9,4.9l0,9.8l-9,4.9l-9,-4.9l0,-9.8l9,-4.9m0,-1.1l-10,5.5l0,11l10,5.5l10,-5.5l0,-11l-10,-5.5l0,0z" class="st15"/>
      </g>
      <g id="svg_166">
       <path id="svg_167" d="m1289,29.5l9,4.9l0,9.8l-9,4.9l-9,-4.9l0,-9.8l9,-4.9m0,-1.1l-10,5.5l0,11l10,5.5l10,-5.5l0,-11l-10,-5.5l0,0z" class="st15"/>
      </g>
     </g>
    </g>
    <g id="svg_168">
     <defs>
      <rect height="114.9" width="304.5" y="17.7" x="927.5" id="SVGID_27_"/>
     </defs>
     <clipPath id="SVGID_28_">
      <use id="svg_169" xlink:href="#SVGID_27_"/>
     </clipPath>
     <g id="svg_170" class="st18">
      <g id="svg_171">
       <path id="svg_172" d="m937.5,45.6l9,4.9l0,9.8l-9,4.9l-9,-4.9l0,-9.8l9,-4.9m0,-1.2l-10,5.5l0,11l10,5.5l10,-5.5l0,-11l-10,-5.5l0,0z" class="st15"/>
      </g>
      <g id="svg_173">
       <path id="svg_174" d="m956.5,45.6l9,4.9l0,9.8l-9,4.9l-9,-4.9l0,-9.8l9,-4.9m0,-1.2l-10,5.5l0,11l10,5.5l10,-5.5l0,-11l-10,-5.5l0,0z" class="st15"/>
      </g>
      <g id="svg_175">
       <path id="svg_176" d="m975.5,45.6l9,4.9l0,9.8l-9,4.9l-9,-4.9l0,-9.8l9,-4.9m0,-1.2l-10,5.5l0,11l10,5.5l10,-5.5l0,-11l-10,-5.5l0,0z" class="st15"/>
      </g>
      <g id="svg_177">
       <path id="svg_178" d="m994.5,45.6l9,4.9l0,9.8l-9,4.9l-9,-4.9l0,-9.8l9,-4.9m0,-1.2l-10,5.5l0,11l10,5.5l10,-5.5l0,-11l-10,-5.5l0,0z" class="st15"/>
      </g>
      <g id="svg_179">
       <path id="svg_180" d="m1013.5,45.6l9,4.9l0,9.8l-9,4.9l-9,-4.9l0,-9.8l9,-4.9m0,-1.2l-10,5.5l0,11l10,5.5l10,-5.5l0,-11l-10,-5.5l0,0z" class="st15"/>
      </g>
      <g id="svg_181">
       <path id="svg_182" d="m1032.5,45.6l9,4.9l0,9.8l-9,4.9l-9,-4.9l0,-9.8l9,-4.9m0,-1.2l-10,5.5l0,11l10,5.5l10,-5.5l0,-11l-10,-5.5l0,0z" class="st15"/>
      </g>
      <g id="svg_183">
       <path id="svg_184" d="m1051.5,45.6l9,4.9l0,9.8l-9,4.9l-9,-4.9l0,-9.8l9,-4.9m0,-1.2l-10,5.5l0,11l10,5.5l10,-5.5l0,-11l-10,-5.5l0,0z" class="st15"/>
      </g>
      <g id="svg_185">
       <path id="svg_186" d="m1070.5,45.6l9,4.9l0,9.8l-9,4.9l-9,-4.9l0,-9.8l9,-4.9m0,-1.2l-10,5.5l0,11l10,5.5l10,-5.5l0,-11l-10,-5.5l0,0z" class="st15"/>
      </g>
      <g id="svg_187">
       <path id="svg_188" d="m1089.5,45.6l9,4.9l0,9.8l-9,4.9l-9,-4.9l0,-9.8l9,-4.9m0,-1.2l-10,5.5l0,11l10,5.5l10,-5.5l0,-11l-10,-5.5l0,0z" class="st15"/>
      </g>
      <g id="svg_189">
       <path id="svg_190" d="m1108.5,45.6l9,4.9l0,9.8l-9,4.9l-9,-4.9l0,-9.8l9,-4.9m0,-1.2l-10,5.5l0,11l10,5.5l10,-5.5l0,-11l-10,-5.5l0,0z" class="st15"/>
      </g>
      <g id="svg_191">
       <path id="svg_192" d="m1127.5,45.6l9,4.9l0,9.8l-9,4.9l-9,-4.9l0,-9.8l9,-4.9m0,-1.2l-10,5.5l0,11l10,5.5l10,-5.5l0,-11l-10,-5.5l0,0z" class="st15"/>
      </g>
      <g id="svg_193">
       <path id="svg_194" d="m1146.5,45.6l9,4.9l0,9.8l-9,4.9l-9,-4.9l0,-9.8l9,-4.9m0,-1.2l-10,5.5l0,11l10,5.5l10,-5.5l0,-11l-10,-5.5l0,0z" class="st15"/>
      </g>
      <g id="svg_195">
       <path id="svg_196" d="m1165.5,45.6l9,4.9l0,9.8l-9,4.9l-9,-4.9l0,-9.8l9,-4.9m0,-1.2l-10,5.5l0,11l10,5.5l10,-5.5l0,-11l-10,-5.5l0,0z" class="st15"/>
      </g>
      <g id="svg_197">
       <path id="svg_198" d="m1184.5,45.6l9,4.9l0,9.8l-9,4.9l-9,-4.9l0,-9.8l9,-4.9m0,-1.2l-10,5.5l0,11l10,5.5l10,-5.5l0,-11l-10,-5.5l0,0z" class="st15"/>
      </g>
      <g id="svg_199">
       <path id="svg_200" d="m1203.5,45.6l9,4.9l0,9.8l-9,4.9l-9,-4.9l0,-9.8l9,-4.9m0,-1.2l-10,5.5l0,11l10,5.5l10,-5.5l0,-11l-10,-5.5l0,0z" class="st15"/>
      </g>
      <g id="svg_201">
       <path id="svg_202" d="m1222.5,45.6l9,4.9l0,9.8l-9,4.9l-9,-4.9l0,-9.8l9,-4.9m0,-1.2l-10,5.5l0,11l10,5.5l10,-5.5l0,-11l-10,-5.5l0,0z" class="st15"/>
      </g>
      <g id="svg_203">
       <path id="svg_204" d="m1241.5,45.6l9,4.9l0,9.8l-9,4.9l-9,-4.9l0,-9.8l9,-4.9m0,-1.2l-10,5.5l0,11l10,5.5l10,-5.5l0,-11l-10,-5.5l0,0z" class="st15"/>
      </g>
      <g id="svg_205">
       <path id="svg_206" d="m1260.5,45.6l9,4.9l0,9.8l-9,4.9l-9,-4.9l0,-9.8l9,-4.9m0,-1.2l-10,5.5l0,11l10,5.5l10,-5.5l0,-11l-10,-5.5l0,0z" class="st15"/>
      </g>
      <g id="svg_207">
       <path id="svg_208" d="m1279.5,45.6l9,4.9l0,9.8l-9,4.9l-9,-4.9l0,-9.8l9,-4.9m0,-1.2l-10,5.5l0,11l10,5.5l10,-5.5l0,-11l-10,-5.5l0,0z" class="st15"/>
      </g>
      <g id="svg_209">
       <path id="svg_210" d="m1298.5,45.6l9,4.9l0,9.8l-9,4.9l-9,-4.9l0,-9.8l9,-4.9m0,-1.2l-10,5.5l0,11l10,5.5l10,-5.5l0,-11l-10,-5.5l0,0z" class="st15"/>
      </g>
     </g>
    </g>
    <g id="svg_211">
     <defs>
      <rect height="114.9" width="304.5" y="17.7" x="927.5" id="SVGID_29_"/>
     </defs>
     <clipPath id="SVGID_30_">
      <use id="svg_212" xlink:href="#SVGID_29_"/>
     </clipPath>
     <g id="svg_213" class="st19">
      <g id="svg_214">
       <path id="svg_215" d="m928,61.8l9,4.9l0,9.8l-9,4.9l-9,-4.9l0,-9.8l9,-4.9m0,-1.2l-10,5.5l0,11l10,5.5l10,-5.5l0,-11l-10,-5.5l0,0z" class="st15"/>
      </g>
      <g id="svg_216">
       <path id="svg_217" d="m947,61.8l9,4.9l0,9.8l-9,4.9l-9,-4.9l0,-9.8l9,-4.9m0,-1.2l-10,5.5l0,11l10,5.5l10,-5.5l0,-11l-10,-5.5l0,0z" class="st15"/>
      </g>
      <g id="svg_218">
       <path id="svg_219" d="m966,61.8l9,4.9l0,9.8l-9,4.9l-9,-4.9l0,-9.8l9,-4.9m0,-1.2l-10,5.5l0,11l10,5.5l10,-5.5l0,-11l-10,-5.5l0,0z" class="st15"/>
      </g>
      <g id="svg_220">
       <path id="svg_221" d="m985,61.8l9,4.9l0,9.8l-9,4.9l-9,-4.9l0,-9.8l9,-4.9m0,-1.2l-10,5.5l0,11l10,5.5l10,-5.5l0,-11l-10,-5.5l0,0z" class="st15"/>
      </g>
      <g id="svg_222">
       <path id="svg_223" d="m1004,61.8l9,4.9l0,9.8l-9,4.9l-9,-4.9l0,-9.8l9,-4.9m0,-1.2l-10,5.5l0,11l10,5.5l10,-5.5l0,-11l-10,-5.5l0,0z" class="st15"/>
      </g>
      <g id="svg_224">
       <path id="svg_225" d="m1023,61.8l9,4.9l0,9.8l-9,4.9l-9,-4.9l0,-9.8l9,-4.9m0,-1.2l-10,5.5l0,11l10,5.5l10,-5.5l0,-11l-10,-5.5l0,0z" class="st15"/>
      </g>
      <g id="svg_226">
       <path id="svg_227" d="m1042,61.8l9,4.9l0,9.8l-9,4.9l-9,-4.9l0,-9.8l9,-4.9m0,-1.2l-10,5.5l0,11l10,5.5l10,-5.5l0,-11l-10,-5.5l0,0z" class="st15"/>
      </g>
      <g id="svg_228">
       <path id="svg_229" d="m1061,61.8l9,4.9l0,9.8l-9,4.9l-9,-4.9l0,-9.8l9,-4.9m0,-1.2l-10,5.5l0,11l10,5.5l10,-5.5l0,-11l-10,-5.5l0,0z" class="st15"/>
      </g>
      <g id="svg_230">
       <path id="svg_231" d="m1080,61.8l9,4.9l0,9.8l-9,4.9l-9,-4.9l0,-9.8l9,-4.9m0,-1.2l-10,5.5l0,11l10,5.5l10,-5.5l0,-11l-10,-5.5l0,0z" class="st15"/>
      </g>
      <g id="svg_232">
       <path id="svg_233" d="m1099,61.8l9,4.9l0,9.8l-9,4.9l-9,-4.9l0,-9.8l9,-4.9m0,-1.2l-10,5.5l0,11l10,5.5l10,-5.5l0,-11l-10,-5.5l0,0z" class="st15"/>
      </g>
      <g id="svg_234">
       <path id="svg_235" d="m1118,61.8l9,4.9l0,9.8l-9,4.9l-9,-4.9l0,-9.8l9,-4.9m0,-1.2l-10,5.5l0,11l10,5.5l10,-5.5l0,-11l-10,-5.5l0,0z" class="st15"/>
      </g>
      <g id="svg_236">
       <path id="svg_237" d="m1137,61.8l9,4.9l0,9.8l-9,4.9l-9,-4.9l0,-9.8l9,-4.9m0,-1.2l-10,5.5l0,11l10,5.5l10,-5.5l0,-11l-10,-5.5l0,0z" class="st15"/>
      </g>
      <g id="svg_238">
       <path id="svg_239" d="m1156,61.8l9,4.9l0,9.8l-9,4.9l-9,-4.9l0,-9.8l9,-4.9m0,-1.2l-10,5.5l0,11l10,5.5l10,-5.5l0,-11l-10,-5.5l0,0z" class="st15"/>
      </g>
      <g id="svg_240">
       <path id="svg_241" d="m1175,61.8l9,4.9l0,9.8l-9,4.9l-9,-4.9l0,-9.8l9,-4.9m0,-1.2l-10,5.5l0,11l10,5.5l10,-5.5l0,-11l-10,-5.5l0,0z" class="st15"/>
      </g>
      <g id="svg_242">
       <path id="svg_243" d="m1194,61.8l9,4.9l0,9.8l-9,4.9l-9,-4.9l0,-9.8l9,-4.9m0,-1.2l-10,5.5l0,11l10,5.5l10,-5.5l0,-11l-10,-5.5l0,0z" class="st15"/>
      </g>
      <g id="svg_244">
       <path id="svg_245" d="m1213,61.8l9,4.9l0,9.8l-9,4.9l-9,-4.9l0,-9.8l9,-4.9m0,-1.2l-10,5.5l0,11l10,5.5l10,-5.5l0,-11l-10,-5.5l0,0z" class="st15"/>
      </g>
      <g id="svg_246">
       <path id="svg_247" d="m1232,61.8l9,4.9l0,9.8l-9,4.9l-9,-4.9l0,-9.8l9,-4.9m0,-1.2l-10,5.5l0,11l10,5.5l10,-5.5l0,-11l-10,-5.5l0,0z" class="st15"/>
      </g>
      <g id="svg_248">
       <path id="svg_249" d="m1251,61.8l9,4.9l0,9.8l-9,4.9l-9,-4.9l0,-9.8l9,-4.9m0,-1.2l-10,5.5l0,11l10,5.5l10,-5.5l0,-11l-10,-5.5l0,0z" class="st15"/>
      </g>
      <g id="svg_250">
       <path id="svg_251" d="m1270,61.8l9,4.9l0,9.8l-9,4.9l-9,-4.9l0,-9.8l9,-4.9m0,-1.2l-10,5.5l0,11l10,5.5l10,-5.5l0,-11l-10,-5.5l0,0z" class="st15"/>
      </g>
      <g id="svg_252">
       <path id="svg_253" d="m1289,61.8l9,4.9l0,9.8l-9,4.9l-9,-4.9l0,-9.8l9,-4.9m0,-1.2l-10,5.5l0,11l10,5.5l10,-5.5l0,-11l-10,-5.5l0,0z" class="st15"/>
      </g>
     </g>
    </g>
    <g id="svg_254">
     <defs>
      <rect height="114.9" width="304.5" y="17.7" x="927.5" id="SVGID_31_"/>
     </defs>
     <clipPath id="SVGID_32_">
      <use id="svg_255" xlink:href="#SVGID_31_"/>
     </clipPath>
     <g id="svg_256" class="st20">
      <g id="svg_257">
       <path id="svg_258" d="m937.5,77.8l9,4.9l0,9.8l-9,4.9l-9,-4.9l0,-9.8l9,-4.9m0,-1.1l-10,5.5l0,11l10,5.5l10,-5.5l0,-11l-10,-5.5l0,0z" class="st15"/>
      </g>
      <g id="svg_259">
       <path id="svg_260" d="m956.5,77.8l9,4.9l0,9.8l-9,4.9l-9,-4.9l0,-9.8l9,-4.9m0,-1.1l-10,5.5l0,11l10,5.5l10,-5.5l0,-11l-10,-5.5l0,0z" class="st15"/>
      </g>
      <g id="svg_261">
       <path id="svg_262" d="m975.5,77.8l9,4.9l0,9.8l-9,4.9l-9,-4.9l0,-9.8l9,-4.9m0,-1.1l-10,5.5l0,11l10,5.5l10,-5.5l0,-11l-10,-5.5l0,0z" class="st15"/>
      </g>
      <g id="svg_263">
       <path id="svg_264" d="m994.5,77.8l9,4.9l0,9.8l-9,4.9l-9,-4.9l0,-9.8l9,-4.9m0,-1.1l-10,5.5l0,11l10,5.5l10,-5.5l0,-11l-10,-5.5l0,0z" class="st15"/>
      </g>
      <g id="svg_265">
       <path id="svg_266" d="m1013.5,77.8l9,4.9l0,9.8l-9,4.9l-9,-4.9l0,-9.8l9,-4.9m0,-1.1l-10,5.5l0,11l10,5.5l10,-5.5l0,-11l-10,-5.5l0,0z" class="st15"/>
      </g>
      <g id="svg_267">
       <path id="svg_268" d="m1032.5,77.8l9,4.9l0,9.8l-9,4.9l-9,-4.9l0,-9.8l9,-4.9m0,-1.1l-10,5.5l0,11l10,5.5l10,-5.5l0,-11l-10,-5.5l0,0z" class="st15"/>
      </g>
      <g id="svg_269">
       <path id="svg_270" d="m1051.5,77.8l9,4.9l0,9.8l-9,4.9l-9,-4.9l0,-9.8l9,-4.9m0,-1.1l-10,5.5l0,11l10,5.5l10,-5.5l0,-11l-10,-5.5l0,0z" class="st15"/>
      </g>
      <g id="svg_271">
       <path id="svg_272" d="m1070.5,77.8l9,4.9l0,9.8l-9,4.9l-9,-4.9l0,-9.8l9,-4.9m0,-1.1l-10,5.5l0,11l10,5.5l10,-5.5l0,-11l-10,-5.5l0,0z" class="st15"/>
      </g>
      <g id="svg_273">
       <path id="svg_274" d="m1089.5,77.8l9,4.9l0,9.8l-9,4.9l-9,-4.9l0,-9.8l9,-4.9m0,-1.1l-10,5.5l0,11l10,5.5l10,-5.5l0,-11l-10,-5.5l0,0z" class="st15"/>
      </g>
      <g id="svg_275">
       <path id="svg_276" d="m1108.5,77.8l9,4.9l0,9.8l-9,4.9l-9,-4.9l0,-9.8l9,-4.9m0,-1.1l-10,5.5l0,11l10,5.5l10,-5.5l0,-11l-10,-5.5l0,0z" class="st15"/>
      </g>
      <g id="svg_277">
       <path id="svg_278" d="m1127.5,77.8l9,4.9l0,9.8l-9,4.9l-9,-4.9l0,-9.8l9,-4.9m0,-1.1l-10,5.5l0,11l10,5.5l10,-5.5l0,-11l-10,-5.5l0,0z" class="st15"/>
      </g>
      <g id="svg_279">
       <path id="svg_280" d="m1146.5,77.8l9,4.9l0,9.8l-9,4.9l-9,-4.9l0,-9.8l9,-4.9m0,-1.1l-10,5.5l0,11l10,5.5l10,-5.5l0,-11l-10,-5.5l0,0z" class="st15"/>
      </g>
      <g id="svg_281">
       <path id="svg_282" d="m1165.5,77.8l9,4.9l0,9.8l-9,4.9l-9,-4.9l0,-9.8l9,-4.9m0,-1.1l-10,5.5l0,11l10,5.5l10,-5.5l0,-11l-10,-5.5l0,0z" class="st15"/>
      </g>
      <g id="svg_283">
       <path id="svg_284" d="m1184.5,77.8l9,4.9l0,9.8l-9,4.9l-9,-4.9l0,-9.8l9,-4.9m0,-1.1l-10,5.5l0,11l10,5.5l10,-5.5l0,-11l-10,-5.5l0,0z" class="st15"/>
      </g>
      <g id="svg_285">
       <path id="svg_286" d="m1203.5,77.8l9,4.9l0,9.8l-9,4.9l-9,-4.9l0,-9.8l9,-4.9m0,-1.1l-10,5.5l0,11l10,5.5l10,-5.5l0,-11l-10,-5.5l0,0z" class="st15"/>
      </g>
      <g id="svg_287">
       <path id="svg_288" d="m1222.5,77.8l9,4.9l0,9.8l-9,4.9l-9,-4.9l0,-9.8l9,-4.9m0,-1.1l-10,5.5l0,11l10,5.5l10,-5.5l0,-11l-10,-5.5l0,0z" class="st15"/>
      </g>
      <g id="svg_289">
       <path id="svg_290" d="m1241.5,77.8l9,4.9l0,9.8l-9,4.9l-9,-4.9l0,-9.8l9,-4.9m0,-1.1l-10,5.5l0,11l10,5.5l10,-5.5l0,-11l-10,-5.5l0,0z" class="st15"/>
      </g>
      <g id="svg_291">
       <path id="svg_292" d="m1260.5,77.8l9,4.9l0,9.8l-9,4.9l-9,-4.9l0,-9.8l9,-4.9m0,-1.1l-10,5.5l0,11l10,5.5l10,-5.5l0,-11l-10,-5.5l0,0z" class="st15"/>
      </g>
      <g id="svg_293">
       <path id="svg_294" d="m1279.5,77.8l9,4.9l0,9.8l-9,4.9l-9,-4.9l0,-9.8l9,-4.9m0,-1.1l-10,5.5l0,11l10,5.5l10,-5.5l0,-11l-10,-5.5l0,0z" class="st15"/>
      </g>
      <g id="svg_295">
       <path id="svg_296" d="m1298.5,77.8l9,4.9l0,9.8l-9,4.9l-9,-4.9l0,-9.8l9,-4.9m0,-1.1l-10,5.5l0,11l10,5.5l10,-5.5l0,-11l-10,-5.5l0,0z" class="st15"/>
      </g>
     </g>
    </g>
    <g id="svg_297">
     <defs>
      <rect height="114.9" width="304.5" y="17.7" x="927.5" id="SVGID_33_"/>
     </defs>
     <clipPath id="SVGID_34_">
      <use id="svg_298" xlink:href="#SVGID_33_"/>
     </clipPath>
     <g id="svg_299" class="st21">
      <g id="svg_300">
       <path id="svg_301" d="m928,94l9,4.9l0,9.8l-9,4.9l-9,-4.9l0,-9.7l9,-5m0,-1.1l-10,5.5l0,11l10,5.5l10,-5.5l0,-11l-10,-5.5l0,0z" class="st15"/>
      </g>
      <g id="svg_302">
       <path id="svg_303" d="m947,94l9,4.9l0,9.8l-9,4.9l-9,-4.9l0,-9.7l9,-5m0,-1.1l-10,5.5l0,11l10,5.5l10,-5.5l0,-11l-10,-5.5l0,0z" class="st15"/>
      </g>
      <g id="svg_304">
       <path id="svg_305" d="m966,94l9,4.9l0,9.8l-9,4.9l-9,-4.9l0,-9.7l9,-5m0,-1.1l-10,5.5l0,11l10,5.5l10,-5.5l0,-11l-10,-5.5l0,0z" class="st15"/>
      </g>
      <g id="svg_306">
       <path id="svg_307" d="m985,94l9,4.9l0,9.8l-9,4.9l-9,-4.9l0,-9.7l9,-5m0,-1.1l-10,5.5l0,11l10,5.5l10,-5.5l0,-11l-10,-5.5l0,0z" class="st15"/>
      </g>
      <g id="svg_308">
       <path id="svg_309" d="m1004,94l9,4.9l0,9.8l-9,4.9l-9,-4.9l0,-9.7l9,-5m0,-1.1l-10,5.5l0,11l10,5.5l10,-5.5l0,-11l-10,-5.5l0,0z" class="st15"/>
      </g>
      <g id="svg_310">
       <path id="svg_311" d="m1023,94l9,4.9l0,9.8l-9,4.9l-9,-4.9l0,-9.7l9,-5m0,-1.1l-10,5.5l0,11l10,5.5l10,-5.5l0,-11l-10,-5.5l0,0z" class="st15"/>
      </g>
      <g id="svg_312">
       <path id="svg_313" d="m1042,94l9,4.9l0,9.8l-9,4.9l-9,-4.9l0,-9.7l9,-5m0,-1.1l-10,5.5l0,11l10,5.5l10,-5.5l0,-11l-10,-5.5l0,0z" class="st15"/>
      </g>
      <g id="svg_314">
       <path id="svg_315" d="m1061,94l9,4.9l0,9.8l-9,4.9l-9,-4.9l0,-9.7l9,-5m0,-1.1l-10,5.5l0,11l10,5.5l10,-5.5l0,-11l-10,-5.5l0,0z" class="st15"/>
      </g>
      <g id="svg_316">
       <path id="svg_317" d="m1080,94l9,4.9l0,9.8l-9,4.9l-9,-4.9l0,-9.7l9,-5m0,-1.1l-10,5.5l0,11l10,5.5l10,-5.5l0,-11l-10,-5.5l0,0z" class="st15"/>
      </g>
      <g id="svg_318">
       <path id="svg_319" d="m1099,94l9,4.9l0,9.8l-9,4.9l-9,-4.9l0,-9.7l9,-5m0,-1.1l-10,5.5l0,11l10,5.5l10,-5.5l0,-11l-10,-5.5l0,0z" class="st15"/>
      </g>
      <g id="svg_320">
       <path id="svg_321" d="m1118,94l9,4.9l0,9.8l-9,4.9l-9,-4.9l0,-9.7l9,-5m0,-1.1l-10,5.5l0,11l10,5.5l10,-5.5l0,-11l-10,-5.5l0,0z" class="st15"/>
      </g>
      <g id="svg_322">
       <path id="svg_323" d="m1137,94l9,4.9l0,9.8l-9,4.9l-9,-4.9l0,-9.7l9,-5m0,-1.1l-10,5.5l0,11l10,5.5l10,-5.5l0,-11l-10,-5.5l0,0z" class="st15"/>
      </g>
      <g id="svg_324">
       <path id="svg_325" d="m1156,94l9,4.9l0,9.8l-9,4.9l-9,-4.9l0,-9.7l9,-5m0,-1.1l-10,5.5l0,11l10,5.5l10,-5.5l0,-11l-10,-5.5l0,0z" class="st15"/>
      </g>
      <g id="svg_326">
       <path id="svg_327" d="m1175,94l9,4.9l0,9.8l-9,4.9l-9,-4.9l0,-9.7l9,-5m0,-1.1l-10,5.5l0,11l10,5.5l10,-5.5l0,-11l-10,-5.5l0,0z" class="st15"/>
      </g>
      <g id="svg_328">
       <path id="svg_329" d="m1194,94l9,4.9l0,9.8l-9,4.9l-9,-4.9l0,-9.7l9,-5m0,-1.1l-10,5.5l0,11l10,5.5l10,-5.5l0,-11l-10,-5.5l0,0z" class="st15"/>
      </g>
      <g id="svg_330">
       <path id="svg_331" d="m1213,94l9,4.9l0,9.8l-9,4.9l-9,-4.9l0,-9.7l9,-5m0,-1.1l-10,5.5l0,11l10,5.5l10,-5.5l0,-11l-10,-5.5l0,0z" class="st15"/>
      </g>
      <g id="svg_332">
       <path id="svg_333" d="m1232,94l9,4.9l0,9.8l-9,4.9l-9,-4.9l0,-9.7l9,-5m0,-1.1l-10,5.5l0,11l10,5.5l10,-5.5l0,-11l-10,-5.5l0,0z" class="st15"/>
      </g>
      <g id="svg_334">
       <path id="svg_335" d="m1251,94l9,4.9l0,9.8l-9,4.9l-9,-4.9l0,-9.7l9,-5m0,-1.1l-10,5.5l0,11l10,5.5l10,-5.5l0,-11l-10,-5.5l0,0z" class="st15"/>
      </g>
      <g id="svg_336">
       <path id="svg_337" d="m1270,94l9,4.9l0,9.8l-9,4.9l-9,-4.9l0,-9.7l9,-5m0,-1.1l-10,5.5l0,11l10,5.5l10,-5.5l0,-11l-10,-5.5l0,0z" class="st15"/>
      </g>
      <g id="svg_338">
       <path id="svg_339" d="m1289,94l9,4.9l0,9.8l-9,4.9l-9,-4.9l0,-9.7l9,-5m0,-1.1l-10,5.5l0,11l10,5.5l10,-5.5l0,-11l-10,-5.5l0,0z" class="st15"/>
      </g>
     </g>
    </g>
    <g id="svg_340">
     <defs>
      <rect height="114.9" width="304.5" y="17.7" x="927.5" id="SVGID_35_"/>
     </defs>
     <clipPath id="SVGID_36_">
      <use id="svg_341" xlink:href="#SVGID_35_"/>
     </clipPath>
     <g id="svg_342" class="st22">
      <g id="svg_343">
       <path id="svg_344" d="m937.5,110.1l9,4.9l0,9.8l-9,4.9l-9,-4.9l0,-9.8l9,-4.9m0,-1.2l-10,5.5l0,11l10,5.5l10,-5.5l0,-11l-10,-5.5l0,0z" class="st15"/>
      </g>
      <g id="svg_345">
       <path id="svg_346" d="m956.5,110.1l9,4.9l0,9.8l-9,4.9l-9,-4.9l0,-9.8l9,-4.9m0,-1.2l-10,5.5l0,11l10,5.5l10,-5.5l0,-11l-10,-5.5l0,0z" class="st15"/>
      </g>
      <g id="svg_347">
       <path id="svg_348" d="m975.5,110.1l9,4.9l0,9.8l-9,4.9l-9,-4.9l0,-9.8l9,-4.9m0,-1.2l-10,5.5l0,11l10,5.5l10,-5.5l0,-11l-10,-5.5l0,0z" class="st15"/>
      </g>
      <g id="svg_349">
       <path id="svg_350" d="m994.5,110.1l9,4.9l0,9.8l-9,4.9l-9,-4.9l0,-9.8l9,-4.9m0,-1.2l-10,5.5l0,11l10,5.5l10,-5.5l0,-11l-10,-5.5l0,0z" class="st15"/>
      </g>
      <g id="svg_351">
       <path id="svg_352" d="m1013.5,110.1l9,4.9l0,9.8l-9,4.9l-9,-4.9l0,-9.8l9,-4.9m0,-1.2l-10,5.5l0,11l10,5.5l10,-5.5l0,-11l-10,-5.5l0,0z" class="st15"/>
      </g>
      <g id="svg_353">
       <path id="svg_354" d="m1032.5,110.1l9,4.9l0,9.8l-9,4.9l-9,-4.9l0,-9.8l9,-4.9m0,-1.2l-10,5.5l0,11l10,5.5l10,-5.5l0,-11l-10,-5.5l0,0z" class="st15"/>
      </g>
      <g id="svg_355">
       <path id="svg_356" d="m1051.5,110.1l9,4.9l0,9.8l-9,4.9l-9,-4.9l0,-9.8l9,-4.9m0,-1.2l-10,5.5l0,11l10,5.5l10,-5.5l0,-11l-10,-5.5l0,0z" class="st15"/>
      </g>
      <g id="svg_357">
       <path id="svg_358" d="m1070.5,110.1l9,4.9l0,9.8l-9,4.9l-9,-4.9l0,-9.8l9,-4.9m0,-1.2l-10,5.5l0,11l10,5.5l10,-5.5l0,-11l-10,-5.5l0,0z" class="st15"/>
      </g>
      <g id="svg_359">
       <path id="svg_360" d="m1089.5,110.1l9,4.9l0,9.8l-9,4.9l-9,-4.9l0,-9.8l9,-4.9m0,-1.2l-10,5.5l0,11l10,5.5l10,-5.5l0,-11l-10,-5.5l0,0z" class="st15"/>
      </g>
      <g id="svg_361">
       <path id="svg_362" d="m1108.5,110.1l9,4.9l0,9.8l-9,4.9l-9,-4.9l0,-9.8l9,-4.9m0,-1.2l-10,5.5l0,11l10,5.5l10,-5.5l0,-11l-10,-5.5l0,0z" class="st15"/>
      </g>
      <g id="svg_363">
       <path id="svg_364" d="m1127.5,110.1l9,4.9l0,9.8l-9,4.9l-9,-4.9l0,-9.8l9,-4.9m0,-1.2l-10,5.5l0,11l10,5.5l10,-5.5l0,-11l-10,-5.5l0,0z" class="st15"/>
      </g>
      <g id="svg_365">
       <path id="svg_366" d="m1146.5,110.1l9,4.9l0,9.8l-9,4.9l-9,-4.9l0,-9.8l9,-4.9m0,-1.2l-10,5.5l0,11l10,5.5l10,-5.5l0,-11l-10,-5.5l0,0z" class="st15"/>
      </g>
      <g id="svg_367">
       <path id="svg_368" d="m1165.5,110.1l9,4.9l0,9.8l-9,4.9l-9,-4.9l0,-9.8l9,-4.9m0,-1.2l-10,5.5l0,11l10,5.5l10,-5.5l0,-11l-10,-5.5l0,0z" class="st15"/>
      </g>
      <g id="svg_369">
       <path id="svg_370" d="m1184.5,110.1l9,4.9l0,9.8l-9,4.9l-9,-4.9l0,-9.8l9,-4.9m0,-1.2l-10,5.5l0,11l10,5.5l10,-5.5l0,-11l-10,-5.5l0,0z" class="st15"/>
      </g>
      <g id="svg_371">
       <path id="svg_372" d="m1203.5,110.1l9,4.9l0,9.8l-9,4.9l-9,-4.9l0,-9.8l9,-4.9m0,-1.2l-10,5.5l0,11l10,5.5l10,-5.5l0,-11l-10,-5.5l0,0z" class="st15"/>
      </g>
      <g id="svg_373">
       <path id="svg_374" d="m1222.5,110.1l9,4.9l0,9.8l-9,4.9l-9,-4.9l0,-9.8l9,-4.9m0,-1.2l-10,5.5l0,11l10,5.5l10,-5.5l0,-11l-10,-5.5l0,0z" class="st15"/>
      </g>
      <g id="svg_375">
       <path id="svg_376" d="m1241.5,110.1l9,4.9l0,9.8l-9,4.9l-9,-4.9l0,-9.8l9,-4.9m0,-1.2l-10,5.5l0,11l10,5.5l10,-5.5l0,-11l-10,-5.5l0,0z" class="st15"/>
      </g>
      <g id="svg_377">
       <path id="svg_378" d="m1260.5,110.1l9,4.9l0,9.8l-9,4.9l-9,-4.9l0,-9.8l9,-4.9m0,-1.2l-10,5.5l0,11l10,5.5l10,-5.5l0,-11l-10,-5.5l0,0z" class="st15"/>
      </g>
      <g id="svg_379">
       <path id="svg_380" d="m1279.5,110.1l9,4.9l0,9.8l-9,4.9l-9,-4.9l0,-9.8l9,-4.9m0,-1.2l-10,5.5l0,11l10,5.5l10,-5.5l0,-11l-10,-5.5l0,0z" class="st15"/>
      </g>
      <g id="svg_381">
       <path id="svg_382" d="m1298.5,110.1l9,4.9l0,9.8l-9,4.9l-9,-4.9l0,-9.8l9,-4.9m0,-1.2l-10,5.5l0,11l10,5.5l10,-5.5l0,-11l-10,-5.5l0,0z" class="st15"/>
      </g>
     </g>
    </g>
   </g>
   <polyline id="svg_383" points="925,131.3 925,14.3 1235,14.3 1235,131.3  " class="st23"/>
  </g>
 </g>
</svg>